<?xml version="1.0" encoding="UTF-8" standalone="no"?>
<svg
   width="161"
   height="161"
   viewBox="0 0 161 161"
   fill="none"
   version="1.1"
   id="svg57"
   sodipodi:docname="hse-eng.svg"
   inkscape:export-filename="hse-eng.png"
   inkscape:export-xdpi="53.667934"
   inkscape:export-ydpi="53.667934"
   inkscape:version="1.2.2 (732a01da63, 2022-12-09)"
   xmlns:inkscape="http://www.inkscape.org/namespaces/inkscape"
   xmlns:sodipodi="http://sodipodi.sourceforge.net/DTD/sodipodi-0.dtd"
   xmlns="http://www.w3.org/2000/svg"
   xmlns:svg="http://www.w3.org/2000/svg">
  <sodipodi:namedview
     id="namedview59"
     pagecolor="#ffffff"
     bordercolor="#000000"
     borderopacity="0.25"
     inkscape:showpageshadow="2"
     inkscape:pageopacity="0.0"
     inkscape:pagecheckerboard="0"
     inkscape:deskcolor="#d1d1d1"
     showgrid="false"
     inkscape:zoom="5.4099379"
     inkscape:cx="70.51837"
     inkscape:cy="80.592423"
     inkscape:window-width="1857"
     inkscape:window-height="1057"
     inkscape:window-x="55"
     inkscape:window-y="-8"
     inkscape:window-maximized="1"
     inkscape:current-layer="svg57" />
  <g
     clip-path="url(#clip0_1154_279)"
     id="g50">
    <path
       d="M80.5126 0C64.5907 0 49.0263 4.72139 35.7878 13.5671C22.5492 22.4129 12.231 34.9856 6.13793 49.6955C0.0448787 64.4055 -1.54932 80.5918 1.55688 96.2078C4.66309 111.824 12.3302 126.168 23.5887 137.426C34.8472 148.685 49.1913 156.352 64.8073 159.458C80.4233 162.564 96.6096 160.97 111.32 154.877C126.029 148.784 138.602 138.466 147.448 125.227C156.294 111.989 161.015 96.4244 161.015 80.5025C161.015 59.1519 152.534 38.6758 137.436 23.5786C122.339 8.4815 101.863 0 80.5126 0Z"
       fill="#0F2D69"
       id="path2" />
    <path
       d="M105.069 101.757C105.069 88.5492 100.802 79.644 89.7328 75.7324C92.4772 74.5778 94.8877 72.7525 96.7432 70.4239C99.2107 67.5378 100.543 63.8523 100.492 60.0556C100.492 57.1905 99.7048 51.4653 94.6706 47.5233C91.2162 44.8563 88.158 43.571 80.853 43.571H77.1548C77.0379 43.571 76.9313 43.571 76.789 43.571H61.5491V115.58H105.085L105.069 101.757ZM95.2141 111.617H87.3554V87.5739H78.2978V111.643H71.3687V47.1575H78.4806C81.1527 47.1575 85.2015 47.7468 88.0615 51.3028C89.5603 53.2117 90.5041 55.4966 90.7894 57.9068H78.2978V61.4628H90.9012C90.8674 62.8491 90.6119 64.2212 90.1443 65.5267C89.6696 66.8045 88.9826 67.993 88.1123 69.0421C86.9519 70.5335 85.4643 71.7384 83.7644 72.5637C82.0645 73.389 80.1976 73.8127 78.3079 73.802H78.2317V77.3987C90.4694 77.3987 95.2344 85.5267 95.2344 100.421L95.2141 111.617Z"
       fill="white"
       id="path4" />
    <path
       d="M52.3238 30.8406L49.6314 25.2577L56.276 22.0522L58.9684 27.6402L61.2391 26.5429L55.0619 13.7312L52.7911 14.8234L55.2549 19.9288L48.6103 23.1343L46.1465 18.0289L43.8757 19.1211L50.053 31.9379L52.3238 30.8406Z"
       fill="white"
       id="path6" />
    <path
       d="M73.2025 19.9186C73.3904 21.1023 72.5472 22.2503 70.9012 22.5094C69.6363 22.7126 68.3613 22.3214 67.0049 21.3258L65.8822 23.1749C67.6805 24.5109 69.3011 24.9884 71.2467 24.6989C74.5385 24.1909 75.9965 21.8389 75.6257 19.5529C74.757 14.1376 67.8787 17.2974 67.3961 14.29C67.2132 13.1419 67.9701 12.3444 69.3315 12.1259C70.693 11.9075 71.6734 12.3444 73.04 13.2994L74.1524 11.3944C72.4049 10.2514 71.1045 9.70276 69.0166 10.038C66.1515 10.4952 64.6783 12.4612 65.039 14.7065C65.9229 20.1777 72.7301 16.9468 73.2025 19.9186Z"
       fill="white"
       id="path8" />
    <path
       d="M89.2603 21.8795L84.2616 21.4629L84.5867 17.5767L89.1587 17.9577L89.3467 15.7276L84.7696 15.3466L85.0592 11.8668L90.063 12.2834L90.2509 9.99233L82.7376 9.36749L81.5591 23.5407L89.0724 24.1655L89.2603 21.8795Z"
       fill="white"
       id="path10" />
    <path
       d="M107.787 31.0641C111.023 32.8573 114.503 31.8617 116.21 28.7883L120.309 21.3969L118.105 20.1726L113.959 27.6351C113.451 28.4545 112.648 29.0471 111.715 29.2901C110.782 29.533 109.791 29.4077 108.948 28.9401C108.105 28.4725 107.474 27.6985 107.186 26.7784C106.898 25.8583 106.975 24.8627 107.401 23.9978L111.546 16.5303L109.342 15.3111L105.237 22.7025C103.54 25.7758 104.536 29.2607 107.787 31.0641Z"
       fill="white"
       id="path12" />
    <path
       d="M119.644 39.2734L126.71 32.7862L125.125 45.2474L126.334 46.5632L136.814 36.9468L135.112 35.0926L128.046 41.5746L129.616 29.1033L128.417 27.7977L117.937 37.4192L119.644 39.2734Z"
       fill="white"
       id="path14" />
    <path
       d="M141.857 44.9115L129.419 51.8117L130.642 54.015L143.08 47.1148L141.857 44.9115Z"
       fill="white"
       id="path16" />
    <path
       d="M135.239 65.796L150.454 67.2184L149.707 64.6174L138.846 63.6979L147.568 57.1752L146.817 54.5591L134.686 63.8605L135.239 65.796Z"
       fill="white"
       id="path18" />
    <path
       d="M137.221 83.6166L139.517 83.5759L139.43 78.5569L143.332 78.4909L143.413 83.0832L145.643 83.0425L145.567 78.4553L149.062 78.3944L149.148 83.4134L151.444 83.3727L151.312 75.834L137.094 76.0779L137.221 83.6166Z"
       fill="white"
       id="path20" />
    <path
       d="M136.144 91.4194L140.929 92.5472L140.66 93.6749C140.152 94.7214 135.255 94.3811 134.477 97.6627C134.386 98.0865 134.347 98.5198 134.361 98.953L136.657 99.4966C136.635 99.2822 136.65 99.0657 136.702 98.8565C137.073 97.297 139.847 97.1344 140.441 96.1895C140.468 97.159 140.814 98.0925 141.426 98.8449C142.038 99.5973 142.881 100.126 143.825 100.35C144.43 100.493 145.058 100.515 145.672 100.413C146.286 100.311 146.874 100.089 147.401 99.7576C147.928 99.4267 148.384 98.9943 148.743 98.4855C149.101 97.9767 149.355 97.4018 149.489 96.794L150.566 92.2221L136.718 88.9556L136.144 91.4194ZM142.748 94.9754L143.195 93.1009L147.701 94.1626L147.259 96.0422C147.199 96.3551 147.077 96.653 146.901 96.9183C146.724 97.1837 146.497 97.4112 146.231 97.5876C145.966 97.7641 145.668 97.8858 145.355 97.9458C145.042 98.0058 144.721 98.0028 144.409 97.937C144.102 97.8547 143.815 97.7116 143.565 97.516C143.314 97.3205 143.106 97.0765 142.952 96.7988C142.798 96.521 142.701 96.2151 142.668 95.8992C142.635 95.5833 142.665 95.264 142.758 94.9602L142.748 94.9754Z"
       fill="white"
       id="path22" />
    <path
       d="M141.772 108.539C136.855 105.887 135.28 113.253 132.628 111.836C131.577 111.262 131.18 109.895 131.973 108.432C132.583 107.305 133.67 106.532 135.285 106.065L134.503 104.033C132.349 104.648 130.977 105.638 130.042 107.376C128.458 110.307 129.423 112.882 131.46 113.98C136.291 116.586 137.967 109.199 140.649 110.647C141.665 111.201 141.843 112.288 141.188 113.502C140.533 114.716 139.588 115.224 137.998 115.727L138.836 117.759C140.802 117.063 142.041 116.352 143.037 114.508C144.434 111.988 143.774 109.621 141.772 108.539Z"
       fill="white"
       id="path24" />
    <path
       d="M124.526 116.299L122.897 118.221L133.75 127.415L135.379 125.493L124.526 116.299Z"
       fill="white"
       id="path26" />
    <path
       d="M123.246 134.203L116.002 124.78L114 126.314L121.244 135.742L117.785 138.404L119.207 140.253L128.133 133.395L126.71 131.541L123.246 134.203Z"
       fill="white"
       id="path28" />
    <path
       d="M102.743 132.776L100.406 133.72L102.169 138.074L101.188 148.752L103.805 147.69L104.384 140.182L110.022 145.176L112.639 144.114L104.506 137.129L102.743 132.776Z"
       fill="white"
       id="path30" />
    <path
       d="M57.5409 135.285L62.3008 136.88L61.0613 140.578L56.7078 139.121L55.9966 141.239L60.3501 142.697L59.2427 146.009L54.4827 144.419L53.7512 146.593L60.9038 148.991L65.42 135.504L58.2724 133.111L57.5409 135.285Z"
       fill="white"
       id="path32" />
    <path
       d="M49.977 128.285C47.1627 126.497 44.5261 127.269 43.2866 129.235C40.3453 133.868 47.5945 136.062 45.9638 138.638C45.344 139.613 44.2468 139.71 43.0784 138.973C41.91 138.237 41.4731 137.256 41.0819 135.636L38.9839 136.327C39.5325 138.359 40.1625 139.623 41.9303 140.746C44.3839 142.301 46.7919 141.808 48.0263 139.888C51.0184 135.168 43.7794 133.075 45.3796 130.551C46.0197 129.535 47.4116 129.245 48.8187 130.134C49.9008 130.82 50.5968 131.963 50.9524 133.604L53.0148 132.969C52.5373 130.774 51.6432 129.336 49.977 128.285Z"
       fill="white"
       id="path34" />
    <path
       d="M39.248 119.913L37.5462 118.059L28.7832 126.085L25.8317 122.865L24.1096 124.444L31.7144 132.745L33.4365 131.165L30.485 127.945L39.248 119.913Z"
       fill="white"
       id="path36" />
    <path
       d="M24.5973 100.751L25.7657 104.135L27.9958 103.368L24.8361 94.2033L22.606 94.9704L23.7794 98.3689L12.3088 102.326L12.7356 103.556L17.3736 107.65L18.7604 106.075L16.0731 103.693L24.5973 100.751Z"
       fill="white"
       id="path38" />
    <path
       d="M14.2698 90.4339C17.0689 90.2358 18.9586 88.1886 18.7453 85.1456C18.7118 84.217 18.329 83.3353 17.6734 82.6768C19.7511 82.9968 21.0872 84.5564 21.7374 87.2183C21.7374 87.5028 21.778 87.7872 21.778 88.092L24.0488 87.9295C24.0579 87.5304 24.0358 87.1313 23.9827 86.7357C23.1293 81.8437 19.741 79.7609 14.7575 80.1317H14.5949C11.3336 80.3603 8.8088 82.0875 9.05771 85.674C9.24567 88.5492 11.2878 90.6422 14.2698 90.4339ZM11.171 85.5216C11.0643 83.9976 12.126 82.8444 13.8075 82.7276C15.489 82.6107 16.6625 83.6267 16.7692 85.1253C16.7979 85.4836 16.7522 85.8439 16.6347 86.1835C16.5173 86.5232 16.3307 86.8348 16.0868 87.0988C15.8429 87.3627 15.5469 87.5733 15.2176 87.7171C14.8882 87.861 14.5327 87.935 14.1733 87.9346C12.4918 88.0514 11.2777 87.0202 11.171 85.5216Z"
       fill="white"
       id="path40" />
    <path
       d="M14.0006 72.659C16.7539 73.2077 19.1162 71.7294 19.7105 68.7373C19.9228 67.8314 19.7849 66.8788 19.3244 66.0703C21.2497 66.9288 22.1235 68.783 22.0371 71.5211C21.9812 71.7954 21.9254 72.0748 21.8492 72.3746L24.0793 72.8165C24.1943 72.4326 24.2793 72.0402 24.3333 71.643C24.7956 66.7002 22.0778 63.7995 17.1705 62.8293L17.013 62.7988C13.8025 62.1587 10.917 63.1595 10.216 66.6901C9.65211 69.5196 11.0694 72.0799 14.0006 72.659ZM12.3039 67.1066C12.5985 65.6283 13.9295 64.7749 15.5805 65.1051C17.2315 65.4353 18.1205 66.7205 17.8055 68.1937C17.4906 69.6669 16.2002 70.5508 14.5695 70.2257C12.9388 69.9006 12.0143 68.5798 12.3039 67.1066Z"
       fill="white"
       id="path42" />
    <path
       d="M18.7351 53.9545C17.8664 52.3238 17.7496 51.1758 18.3439 49.9769C18.4732 49.6949 18.6597 49.4429 18.8915 49.2367C19.1233 49.0306 19.3954 48.8748 19.6905 48.7793C19.9856 48.6838 20.2974 48.6506 20.606 48.6819C20.9146 48.7131 21.2134 48.8082 21.4834 48.9609C23.4493 49.9363 24.3028 55.2702 25.3493 58.8923L27.0967 59.7559L31.496 50.8507L29.3827 49.8042L26.604 55.4328C25.7709 52.3035 24.9225 47.8738 22.3165 46.5885C20.0914 45.4862 17.6226 46.1263 16.2764 48.8593C15.2198 50.9929 15.6515 53.0147 16.6218 54.813L18.7351 53.9545Z"
       fill="white"
       id="path44" />
    <path
       d="M82.6259 142.661C82.1268 142.613 81.6245 142.713 81.1824 142.95C80.7402 143.187 80.378 143.549 80.1414 143.991C79.9048 144.433 79.8043 144.935 79.8527 145.434C79.901 145.934 80.0961 146.407 80.4132 146.796C80.7303 147.184 81.1553 147.47 81.6347 147.617C82.114 147.765 82.6263 147.767 83.1068 147.623C83.5874 147.48 84.0148 147.198 84.3351 146.812C84.6554 146.426 84.8544 145.954 84.9068 145.455C84.9419 145.122 84.9107 144.785 84.8148 144.463C84.719 144.142 84.5604 143.843 84.3484 143.583C84.1363 143.323 83.8749 143.108 83.5793 142.95C83.2837 142.792 82.9597 142.694 82.6259 142.661Z"
       fill="white"
       id="path46" />
    <path
       d="M32.4509 37.2262C32.95 37.2746 33.4523 37.1741 33.8944 36.9375C34.3366 36.7009 34.6988 36.3387 34.9354 35.8966C35.1721 35.4544 35.2725 34.9521 35.2241 34.453C35.1758 33.9539 34.9807 33.4802 34.6636 33.0917C34.3464 32.7033 33.9214 32.4174 33.4421 32.2701C32.9627 32.1228 32.4505 32.1207 31.97 32.264C31.4894 32.4073 31.062 32.6897 30.7417 33.0756C30.4214 33.4614 30.2224 33.9334 30.17 34.4322C30.1349 34.7656 30.1661 35.1027 30.262 35.4241C30.3578 35.7454 30.5163 36.0445 30.7284 36.3043C30.9404 36.564 31.2018 36.7792 31.4974 36.9374C31.7931 37.0957 32.1171 37.1938 32.4509 37.2262Z"
       fill="white"
       id="path48" />
  </g>
  <defs
     id="defs55">
    <clipPath
       id="clip0_1154_279">
      <rect
         width="161"
         height="161"
         fill="white"
         id="rect52" />
    </clipPath>
  </defs>
</svg>
