<?xml version="1.0" encoding="UTF-8" standalone="no"?>
<!-- Generator: Adobe Illustrator 26.1.0, SVG Export Plug-In . SVG Version: 6.00 Build 0)  -->

<svg
   version="1.1"
   id="Layer_1"
   x="0px"
   y="0px"
   viewBox="0 0 120 120"
   style="enable-background:new 0 0 120 120;"
   xml:space="preserve"
   sodipodi:docname="IPEE RAS En 120x120.svg"
   width="120"
   height="120"
   inkscape:version="1.2.2 (732a01da63, 2022-12-09)"
   xmlns:inkscape="http://www.inkscape.org/namespaces/inkscape"
   xmlns:sodipodi="http://sodipodi.sourceforge.net/DTD/sodipodi-0.dtd"
   xmlns="http://www.w3.org/2000/svg"
   xmlns:svg="http://www.w3.org/2000/svg"
   xmlns:rdf="http://www.w3.org/1999/02/22-rdf-syntax-ns#"
   xmlns:cc="http://creativecommons.org/ns#"
   xmlns:dc="http://purl.org/dc/elements/1.1/"><defs
   id="defs407" /><sodipodi:namedview
   id="namedview405"
   pagecolor="#ffffff"
   bordercolor="#000000"
   borderopacity="0.25"
   inkscape:showpageshadow="2"
   inkscape:pageopacity="0.0"
   inkscape:pagecheckerboard="0"
   inkscape:deskcolor="#d1d1d1"
   showgrid="false"
   inkscape:zoom="7.2583333"
   inkscape:cx="25.901263"
   inkscape:cy="59.655569"
   inkscape:window-width="1857"
   inkscape:window-height="1057"
   inkscape:window-x="55"
   inkscape:window-y="-8"
   inkscape:window-maximized="1"
   inkscape:current-layer="Layer_1" />
<style
   type="text/css"
   id="style252">
	.st0{fill:url(#SVGID_1_);}
	.st1{fill:url(#SVGID_00000098211651950707941680000003340843457945509555_);}
	.st2{fill:url(#SVGID_00000138573575299908489800000006106526478204053656_);}
	.st3{fill:url(#SVGID_00000112633126463083498960000009391008272513219510_);}
	.st4{fill:url(#SVGID_00000147190619442103375870000004419739361872917663_);}
	.st5{fill:url(#SVGID_00000003803854449896419120000002309364044189722793_);}
	.st6{fill:url(#SVGID_00000171682271888844670330000000029978685119824030_);}
	.st7{fill:url(#SVGID_00000061441272266051586200000010935824668729153923_);}
	.st8{fill:url(#SVGID_00000054963012545106648120000006015233158913459379_);}
	.st9{fill:url(#SVGID_00000155109798505194074260000006597057709138661805_);}
	.st10{fill:#E1A925;}
</style>
<g
   id="tree">
	
		<linearGradient
   id="SVGID_1_"
   gradientUnits="userSpaceOnUse"
   x1="37.2641"
   y1="-254.736"
   x2="37.2641"
   y2="-345.9742"
   gradientTransform="matrix(1 0 0 -1 0 -254.6)">
		<stop
   offset="0"
   style="stop-color:#763217"
   id="stop254" />
		<stop
   offset="0.35"
   style="stop-color:#E1A925"
   id="stop256" />
		<stop
   offset="0.66"
   style="stop-color:#E6B821"
   id="stop258" />
		<stop
   offset="1"
   style="stop-color:#FEFAED"
   id="stop260" />
	</linearGradient>
	<path
   class="st0"
   d="M31.4,91.4c0.1-0.2,0.2-0.3,0.4-0.4c0.4-0.4,0.9-0.8,1.4-1.2c0.5-0.5,1.1-0.9,1.6-1.4c0.2-0.2,0.4-0.4,0.5-0.6   c0.4-0.4,0.8-0.9,1.2-1.3c0.4-0.4,0.8-0.9,1.1-1.3c0.6-0.8,1.1-1.6,1.7-2.4c0.4-0.6,0.8-1.4,1.2-2.1c0.6-1.1,1.1-2.2,1.5-3.4   c0.5-1.2,0.8-2.4,1.1-3.6c0.2-0.9,0.4-1.9,0.6-2.8c0.1-0.6,0.1-1.3,0.2-2c0.1-0.6,0.1-1.2,0.1-1.8c0.1-0.6,0-1.3,0.1-2   c0-0.4,0.1-0.7,0.1-1.1c0-0.7,0-1.4-0.1-2.1c-0.1-0.8-0.1-1.6-0.2-2.4c-0.1-1.1-0.4-2.3-0.6-3.4c-0.4-1.7-0.8-3.4-1.4-5.1   c-0.6-1.7-1.1-3.4-1.7-5.1c-0.3-1-0.7-2-1-3c-0.5-1.5-1-3-1.5-4.5c-0.7-2.1-1.4-4.3-1.9-6.5c-0.2-1.1-0.4-2.2-0.6-3.3   c-0.2-1-0.4-2-0.5-3c-0.1-0.8-0.2-1.6-0.3-2.4l-0.3-2.1c0-0.3-0.1-0.7-0.1-1s-0.1-0.7-0.1-1.1l-0.1-0.9c0-0.4-0.1-0.8-0.1-1.3   c0-0.5-0.1-0.9-0.1-1.4v-0.1c0-0.5,0-1-0.1-1.6c-0.1-0.6-0.1-1.1-0.1-1.7v-0.1c0-0.6-0.1-1.2-0.1-1.8c0-0.9,0-1.8-0.1-2.6   s0-1.7-0.1-2.6c-0.2-1.8-0.1-3.5-0.1-5.2h-2.7c0,1.1-0.1,2.1,0,3.1s0,2,0.1,3.1c0,0.6,0,1.2,0.1,1.8c0,0.5,0.1,1,0.1,1.5   c0,0.8,0.1,1.6,0.1,2.4c0.1,0.6,0.1,1.3,0.1,2c0,0.6,0.1,1.1,0.1,1.6c0.1,0.6,0.1,1.2,0.2,1.8c0.1,0.6,0.1,1.2,0.1,1.7   c0.1,0.5,0.1,1,0.2,1.6c0.1,0.5,0.1,0.9,0.1,1.4c0.1,0.4,0.1,0.8,0.1,1.2c0.1,0.4,0.1,0.9,0.2,1.3c0.1,0.4,0.1,0.7,0.1,1.1   c0.1,0.6,0.2,1.1,0.3,1.6c0.1,0.9,0.3,1.8,0.4,2.7c0.2,1,0.4,2,0.6,2.9c0.2,1.1,0.4,2.2,0.7,3.2c0.4,1.9,0.9,3.8,1.4,5.7   c0.3,1.2,0.6,2.4,1,3.6c0.5,1.7,1.1,3.4,1.6,5.2c0.3,1,0.6,2.1,0.9,3.1c0.2,0.9,0.4,1.9,0.6,2.9c0.1,0.6,0.2,1.3,0.2,2   c0.1,0.7,0.1,1.5,0.1,2.2c0,1.1-0.1,2.3-0.5,3.4c-0.2,0.5-0.4,0.9-0.6,1.4c0.1,0.2,0.2,0.6,0.4,0.9c0.5,1.2,0.8,2.4,1.1,3.7   c0.1,0.6,0.2,1.2,0.3,1.8c0.1,1,0.2,2,0.1,2.9c0,0.4-0.1,0.8-0.1,1.2c-0.1,0.5-0.1,0.9-0.2,1.4c-0.2,1-0.5,2.1-0.9,3   c-0.5,1.3-1.2,2.6-2.1,3.8c-0.4,0.5-0.8,1-1.2,1.5c-0.3,0.4-0.7,0.8-1.1,1.2c-0.3,0.3-0.7,0.7-1.1,1c-0.4,0.3-0.7,0.6-1.1,0.9   c-0.1,0.1-0.3,0.2-0.5,0.3"
   id="path263" />
	
		<linearGradient
   id="SVGID_00000074410632504627575080000001269326370096985248_"
   gradientUnits="userSpaceOnUse"
   x1="27.3888"
   y1="-326.9319"
   x2="27.3888"
   y2="-374.4935"
   gradientTransform="matrix(1 0 0 -1 0 -254.6)">
		<stop
   offset="0"
   style="stop-color:#763217"
   id="stop265" />
		<stop
   offset="0.28"
   style="stop-color:#E1A925"
   id="stop267" />
		<stop
   offset="0.66"
   style="stop-color:#E6B821"
   id="stop269" />
		<stop
   offset="1"
   style="stop-color:#FEFAED"
   id="stop271" />
	</linearGradient>
	<path
   style="fill:url(#SVGID_00000074410632504627575080000001269326370096985248_);"
   d="M29.9,93.7c0.5-0.8,1-1.5,1.5-2.3l1.1-1.9   c0.1-0.3,0.2-0.6,0.4-0.9c0.6-1.2,1-2.4,1.3-3.7c0.2-0.8,0.3-1.6,0.4-2.4c0-0.4,0.1-0.7,0.1-1.1c0-2.1-0.7-4.1-1.9-5.8   c-0.4-0.6-0.9-1.2-1.5-1.7c-0.6-0.6-1.3-1.1-2.1-1.5c-0.1,0-0.2-0.1-0.2-0.1c-0.1,0.1-0.1,0.1-0.1,0.2c-0.3,0.9-0.5,1.8-0.7,2.7   c-0.1,0.5-0.1,1-0.1,1.5c-0.1,1.1-0.1,2.3-0.1,3.4c0,0.4,0.1,0.9,0.1,1.4c0.1,0.5,0.1,1,0.1,1.5c0.1,0.5,0.1,1,0.2,1.5   c0.2,1.1,0.4,2.1,0.6,3.1c0.1,0.7,0.1,1.4-0.1,2.1c-0.2,1-0.6,2-1,2.9c-0.6,1.2-1.3,2.4-1.9,3.6c-0.5,1-1,1.9-1.4,3   c-0.5,1.3-1.1,2.6-1.6,3.9c-0.1,0.4-0.3,0.7-0.4,1.1c0,0.1-0.1,0.2-0.1,0.3c-0.1-0.1-0.2-0.2-0.3-0.4c-0.1-0.3-0.2-0.5-0.2-0.8   c0-1,0.1-2.1,0.4-3.1c0.4-1.4,0.9-2.7,1.5-4c0.3-0.8,0.7-1.5,1-2.2c0.2-0.5,0.3-1,0.4-1.4c0.1-0.4,0.2-0.8,0.2-1.2   c0.1-0.6,0.1-1.1,0.2-1.6c0-0.3,0.1-0.6,0.1-1c0-0.7-0.1-1.4-0.1-2c-0.1-1.3-0.4-2.5-0.8-3.7c-0.3-0.8-0.6-1.7-1-2.4   c-0.1-0.1-0.1-0.3-0.2-0.4c-0.4-0.5-0.8-0.9-1.3-1.3c-0.6,0.7-0.8,1.6-1.1,2.4c-0.3,0.9-0.5,1.9-0.6,2.9c-0.1,0.4-0.1,0.9-0.1,1.3   l-0.2,1.7v0.1c0,0.6-0.1,1.2-0.1,1.8c-0.1,1.8-0.1,3.7-0.1,5.5c0,1.1,0,2.2,0.1,3.3c0,0.5,0,1.1,0.1,1.6l0.1,1.5l0.1,1.4   c0,0.6,0,1.1,0.1,1.6c0.1,0.6,0,1.1,0.1,1.7c0.1,0.7,0,1.4,0.1,2c0.1,0.9,0,1.7,0.1,2.6c0.1,2.5,0,5,0.1,7.4c0,0.5,0,1.1-0.1,1.6   c0,0.2-0.1,0.4-0.1,0.5h1.8c0-1.4,0-2.8,0.1-4.2c0-0.4,0-0.8,0.1-1.2l0.3-2.1c0.1-0.5,0.1-1.1,0.2-1.6c0.1-0.8,0.3-1.5,0.5-2.3   c0.3-1.3,0.6-2.6,1.1-3.9c0.3-0.9,0.6-1.9,1-2.8c0.3-0.7,0.6-1.4,0.9-2.1c0.1-0.1,0.1-0.2,0.2-0.3l0,0c0.5-1.4,1-2.9,2-3.9   C29.1,94.9,29.5,94.3,29.9,93.7z"
   id="path274" />
	
		<linearGradient
   id="SVGID_00000046303837471556524840000006928358826882900107_"
   gradientUnits="userSpaceOnUse"
   x1="41.047"
   y1="-254.736"
   x2="41.047"
   y2="-353.9796"
   gradientTransform="matrix(1 0 0 -1 0 -254.6)">
		<stop
   offset="0"
   style="stop-color:#763217"
   id="stop276" />
		<stop
   offset="0.28"
   style="stop-color:#E1A925"
   id="stop278" />
		<stop
   offset="0.66"
   style="stop-color:#E6B821"
   id="stop280" />
		<stop
   offset="1"
   style="stop-color:#FEFAED"
   id="stop282" />
	</linearGradient>
	<path
   style="fill:url(#SVGID_00000046303837471556524840000006928358826882900107_);"
   d="M55.3,54.6c0-0.9,0-1.7-0.1-2.6   c0-0.7-0.1-1.4-0.1-2.1C55,49.4,55,48.8,55,48.2c-0.1-0.6-0.1-1.2-0.2-1.7c-0.1-0.5-0.1-1.1-0.1-1.6c-0.1-0.5-0.1-0.9-0.2-1.4   c-0.1-0.4-0.1-0.9-0.1-1.3c-0.1-0.5-0.1-0.9-0.2-1.4c-0.1-0.4-0.1-0.9-0.1-1.3c0-0.4-0.1-0.7-0.2-1.1c-0.1-0.4-0.1-0.8-0.2-1.2   c-0.1-0.5-0.1-1.1-0.2-1.6c-0.1-0.6-0.2-1.3-0.3-2c-0.1-0.6-0.2-1.2-0.3-1.8l-0.1-0.8c0-0.4-0.1-0.7-0.1-1.1   c-0.1-0.6-0.1-1.3-0.1-2v-0.1c0-1.1,0-2.2-0.1-3.3c-0.1-1-0.1-2.1-0.1-3.1c0-0.9,0-1.9,0.1-2.9c0-0.5,0-0.9,0.1-1.4   c0.1-0.7,0.1-1.4,0.1-2.1c0.1-0.8,0.1-1.5,0.2-2.3c0.1-1,0.3-2.1,0.4-3.1c0.2-1.6,0.5-3.1,0.8-4.6c0.3-1.4,0.6-2.7,1-4l0.3-0.9   H42.2v1.3c0,0.5,0,1,0.1,1.5c0,0.4,0.1,0.9,0.1,1.3c0.1,0.8,0.1,1.6,0.1,2.4c0.1,0.7,0.1,1.4,0.1,2.1c0.1,0.6,0.1,1.3,0.1,2   c0.1,0.7,0.1,1.4,0.2,2.1c0,0.4,0.1,0.8,0.1,1.2c0,0.4,0.1,0.8,0.1,1.1c0,0.3,0.1,0.5,0.1,0.8c0.1,0.7,0.1,1.4,0.2,2   c0.1,0.6,0.1,1.1,0.1,1.6c0.1,0.5,0.1,0.9,0.2,1.4l0.2,1.3c0.1,0.4,0.1,0.9,0.1,1.3c0.1,0.4,0.1,0.8,0.2,1.2   c0.1,0.7,0.2,1.4,0.3,2.1c0.2,1,0.4,2,0.6,2.9c0.3,1.4,0.6,2.7,1,4.1c0.4,1.2,0.8,2.3,1.1,3.5c0.4,1.2,0.7,2.3,1,3.4   c0.3,1,0.5,2,0.7,3c0.3,1.2,0.5,2.5,0.8,3.7c0.1,0.7,0.3,1.4,0.4,2.1c0.1,0.6,0.1,1.1,0.2,1.7l0.2,1.3c0,0.3,0.1,0.5,0.1,0.8   s0.1,0.6,0.1,1l0.1,0.8c0,0.4,0.1,0.8,0.1,1.2c0,0.5,0.1,1.1,0.1,1.6c0,0.4,0,0.7,0,1.1c0.1,1.1,0.1,2.2,0.1,3.4c0,0.6,0,1.3-0.1,2   c0,0.6-0.1,1.2-0.1,1.8c-0.1,0.8-0.2,1.6-0.3,2.4c-0.2,1.3-0.4,2.6-0.8,3.8c-0.3,1.1-0.7,2.2-1.1,3.3c-0.2,0.4-0.4,0.9-0.6,1.3   c-0.6,1.3-1.4,2.4-2.3,3.5c-0.7,0.8-1.4,1.6-2.1,2.3c-0.4,0.4-0.8,0.8-1.3,1.2c-0.7,0.6-1.4,1.2-2,1.8l-0.7,0.6   c-0.3,0.3-0.6,0.6-0.9,0.9c-0.5,0.4-0.9,0.8-1.4,1.2c-0.4,0.4-0.8,0.7-1.2,1l-1.1,0.9l-1,0.9l-1.3,1.1c-0.6,0.5-1.3,1-1.9,1.5   c-0.6,0.5-1.3,1-1.9,1.5c-0.1,0-0.1,0.1-0.2,0.1l0,0c-1,1.1-1.5,2.5-2,3.9c0.8-0.7,1.6-1.5,2.4-2.2l1.3-1.2l0.1-0.1l1-0.9   c0.4-0.4,0.9-0.8,1.3-1.2l1.5-1.2c0.6-0.5,1.2-1,1.9-1.4c1.1-0.8,2.3-1.6,3.4-2.4c1.1-0.7,2.1-1.5,3.1-2.4c0.7-0.6,1.4-1.2,2-1.8   c0.4-0.3,0.7-0.6,1-1l2.1-2.4v0l0.1-0.1l0.1-0.1L48,81l0.1-0.1c0.1-0.1,0.1-0.3,0.2-0.4c0.7-0.9,1.4-1.8,1.9-2.8   c0.8-1.3,1.6-2.7,2.1-4.2c0.4-1.1,0.8-2.3,1.1-3.4c0.4-1.2,0.6-2.5,0.9-3.8c0.2-0.7,0.3-1.5,0.4-2.2c0.1-0.4,0.1-0.9,0.1-1.3   c0.1-0.6,0.1-1.1,0.2-1.7V61c0-0.5,0-1,0.1-1.5C55.3,57.8,55.3,56.2,55.3,54.6z"
   id="path285" />
	
		<linearGradient
   id="SVGID_00000133521868650561572420000006283088057651841973_"
   gradientUnits="userSpaceOnUse"
   x1="55.3199"
   y1="-254.736"
   x2="55.3199"
   y2="-338.1747"
   gradientTransform="matrix(1 0 0 -1 0 -254.6)">
		<stop
   offset="0"
   style="stop-color:#763217"
   id="stop287" />
		<stop
   offset="0.35"
   style="stop-color:#E1A925"
   id="stop289" />
		<stop
   offset="0.66"
   style="stop-color:#E6B821"
   id="stop291" />
		<stop
   offset="1"
   style="stop-color:#FEFAED"
   id="stop293" />
	</linearGradient>
	<path
   style="fill:url(#SVGID_00000133521868650561572420000006283088057651841973_);"
   d="M47.8,81.2L47.8,81.2L47.8,81.2l0.1-0.1   L48,81l0.1-0.1c0.1,0,0.1-0.1,0.2-0.1c0.7-0.7,1.4-1.4,2.1-2.1c0.6-0.7,1.1-1.4,1.7-2.1c0.8-1.1,1.6-2.3,2.2-3.6   c0.4-0.7,0.7-1.4,1-2.1c0.4-1,0.8-2,1.2-3c0.6-1.6,1-3.1,1.3-4.8c0.2-0.9,0.4-1.9,0.5-2.8c0.1-0.9,0.2-1.7,0.3-2.5   c0.1-0.7,0.1-1.4,0.1-2.2c0-1.4,0.1-2.9-0.1-4.3c-0.1-0.7-0.1-1.5-0.1-2.2c-0.1-0.6-0.1-1.1-0.1-1.7c-0.1-0.7-0.2-1.4-0.4-2.1   c-0.2-1.2-0.5-2.4-0.7-3.6c-0.1-0.6-0.2-1.2-0.4-1.8c-0.1-0.6-0.2-1.3-0.3-1.9c-0.1-0.4-0.1-0.7-0.1-1.1c-0.1-0.5-0.1-0.9-0.1-1.4   c-0.1-0.5-0.1-1.1-0.2-1.6c0-0.4-0.1-0.8-0.1-1.2c0-0.4-0.1-0.7-0.1-1c0-0.5-0.1-0.9-0.1-1.4c0-0.4-0.1-0.9-0.1-1.3   c0-0.7-0.1-1.5-0.1-2.2c0-2.6-0.1-5.3,0.1-7.9l0.1-2.7v-0.1C56,15.2,56,14.6,56,14c0-0.6,0.1-1.1,0.1-1.6v-0.1   c0.1-0.4,0.1-0.9,0.1-1.4c0-0.4,0-0.9,0.1-1.3c0.1-0.6,0.1-1.3,0.2-1.9c0.1-0.8,0.1-1.6,0.2-2.5c0-0.3,0.1-0.6,0.1-0.8   C56.9,4,57,3.6,57,3.1c0.1-0.5,0.1-1,0.2-1.5l0.2-1.3L60,0.1c-0.1,0.9-0.3,1.8-0.4,2.6c-0.1,0.7-0.2,1.5-0.3,2.2   c-0.1,0.6-0.2,1.2-0.3,1.8c-0.1,0.6-0.1,1.3-0.2,2c-0.1,0.7-0.2,1.5-0.3,2.2c-0.1,0.6-0.1,1.1-0.1,1.7l-0.2,2.1v0.1   c-0.1,1.6-0.1,3.2-0.1,4.8c0,0.4,0.1,0.9,0.1,1.4s0.1,0.9,0.2,1.4c0.1,0.4,0.1,0.9,0.1,1.3c0,0.5,0.1,0.9,0.2,1.4L59,27   c0.1,0.6,0.1,1.1,0.2,1.7c0.1,0.6,0.2,1.3,0.3,1.9c0.1,0.9,0.3,1.7,0.5,2.5c0.3,1.5,0.7,3.1,1.2,4.6c0.3,0.8,0.6,1.6,0.9,2.4   c0.3,0.9,0.6,1.8,0.9,2.7c0.6,1.9,0.9,3.9,1.4,5.9c0.2,0.8,0.3,1.6,0.4,2.5v0.1c0,1,0.1,2,0.1,3c-0.1,1.3-0.2,2.7-0.4,4   c-0.3,1.5-0.7,3-1.2,4.5c-0.4,0.9-0.8,1.9-1.2,2.7c-0.5,1-1,1.9-1.5,2.9c-0.8,1.4-1.7,2.7-2.6,3.9c-0.5,0.6-1,1.3-1.5,1.9   c-0.4,0.4-0.8,0.9-1.1,1.3c-0.9,1.1-1.9,2.1-2.9,3.1c-0.6,0.6-1.3,1.2-2,1.8c-0.5,0.4-1,0.9-1.5,1.3c-0.5,0.4-1.1,0.9-1.6,1.3   c-0.1,0.1-0.2,0.1-0.3,0.1c-0.5-0.1-0.9,0.1-1.2,0.5"
   id="path296" />
	
		<linearGradient
   id="SVGID_00000145034404414708034950000008757324642773674889_"
   gradientUnits="userSpaceOnUse"
   x1="68.8851"
   y1="-254.7654"
   x2="68.8851"
   y2="-321.2631"
   gradientTransform="matrix(1 0 0 -1 0 -254.6)">
		<stop
   offset="0"
   style="stop-color:#763217"
   id="stop298" />
		<stop
   offset="0.28"
   style="stop-color:#E1A925"
   id="stop300" />
		<stop
   offset="0.66"
   style="stop-color:#E6B821"
   id="stop302" />
		<stop
   offset="1"
   style="stop-color:#FEFAED"
   id="stop304" />
	</linearGradient>
	<path
   style="fill:url(#SVGID_00000145034404414708034950000008757324642773674889_);"
   d="M77,36.2L77,36.2L77,36.2   c-0.1-0.3-0.1-0.6-0.1-1c0-0.5-0.1-1.1-0.1-1.6c-0.1-0.5-0.1-1-0.1-1.5c-0.1-0.5-0.1-0.9-0.2-1.4c-0.2-0.8-0.4-1.6-0.6-2.4   c-0.3-0.9-0.6-1.9-1-2.7c-0.7-1.4-1.5-2.7-2.4-3.9c-0.7-1-1.5-2-2.1-3.1c-0.5-0.8-1-1.6-1.4-2.4c-0.7-1.3-1.3-2.6-1.8-4   c-0.4-1-0.7-2.1-1.1-3.1c-0.2-0.6-0.4-1.3-0.6-1.9c-0.1-0.5-0.2-0.9-0.2-1.4c-0.1-0.4-0.1-0.8-0.1-1.2V2.2c0-0.7,0.1-1.4,0.1-2.1   h-4c0,0.1,0,0.2,0,0.3C61,1.1,61,1.7,60.9,2.3c0,0.4-0.1,0.9-0.1,1.3c0,0.6-0.1,1.3-0.1,1.9s0,1.2,0,1.8s0,1.2,0,1.8   c0.1,1.1-0.1,2.3,0.1,3.4c0,0.5,0.1,1,0.1,1.5c0,0.7,0.1,1.5,0.1,2.2c0.1,0.8,0.1,1.7,0.2,2.5c0.1,0.6,0.1,1.1,0.1,1.7   c0,0.2,0.1,0.5,0.1,0.7c0.1,0.5,0.1,0.9,0.2,1.4c0.1,0.6,0.1,1.2,0.2,1.9c0.1,0.8,0.3,1.6,0.4,2.5c0.3,1.4,0.5,2.9,0.8,4.3   c0.4,2,0.8,4,1.3,6c0.4,1.5,0.8,3.1,1.2,4.6c0.4,1.5,0.9,3.1,1.4,4.6c0.4,1.1,0.6,2.3,0.7,3.4c0.1,1,0,2-0.1,3   c-0.1,0.6-0.2,1.3-0.3,1.9c-0.2,1.1-0.5,2.2-0.9,3.3c-0.4,1.3-0.9,2.6-1.5,3.8c-0.5,1.1-1.1,2.2-1.8,3.2c-0.2,0.4-0.5,0.8-0.7,1.1   c-0.1,0.1-0.1,0.2,0,0.3c0.1,0.1,0.2,0.1,0.3,0c0.1,0,0.3-0.1,0.4-0.1c0.1-0.1,0.1-0.1,0.2-0.2c0.6-0.8,1.3-1.6,1.9-2.4   c0.9-1.1,1.7-2.3,2.5-3.5c0.7-1,1.4-2.1,2-3.1c0.6-0.9,1.1-1.9,1.6-2.8l0.7-1.3c0.4-0.7,0.7-1.5,1.1-2.2c0.1-0.2,0.2-0.5,0.3-0.7   c0.4-0.9,0.8-1.9,1.1-2.8c0.1-0.2,0.2-0.4,0.4-0.6c0.4-1,0.4-2.4,0.9-3.3v-0.1c0.1-0.6,0.3-1.3,0.4-1.9c0.1-0.2,0.2-0.4,0.3-0.5   C77.3,39.4,77.1,37.8,77,36.2z"
   id="path307" />
	
		<linearGradient
   id="SVGID_00000083792180727374946770000017943431094138796958_"
   gradientUnits="userSpaceOnUse"
   x1="40.1902"
   y1="-254.736"
   x2="40.1902"
   y2="-346.1802"
   gradientTransform="matrix(1 0 0 -1 0 -254.6)">
		<stop
   offset="0"
   style="stop-color:#763217"
   id="stop309" />
		<stop
   offset="0.35"
   style="stop-color:#E1A925"
   id="stop311" />
		<stop
   offset="0.66"
   style="stop-color:#E6B821"
   id="stop313" />
		<stop
   offset="1"
   style="stop-color:#FEFAED"
   id="stop315" />
	</linearGradient>
	<path
   style="fill:url(#SVGID_00000083792180727374946770000017943431094138796958_);"
   d="M39.9,0.1c0,0.4-0.1,0.8-0.1,1.1v4.2   c0,0.7,0,1.3,0.1,2C40,8,40,8.4,40,8.9c0,0.6,0.1,1.2,0.1,1.8v0.1c0,0.6,0,1.2,0.1,1.8c0,0.5,0.1,1,0.1,1.5v0.1   c0,0.5,0,1.1,0.1,1.6c0,0.4,0.1,0.9,0.1,1.3l0.1,1.1c0,0.5,0,0.9,0.1,1.4c0.1,0.5,0.1,0.9,0.1,1.3c0,0.3,0.1,0.6,0.1,0.9   c0,0.5,0.1,1,0.1,1.5c0,0.7,0.1,1.4,0.1,2v0.1c0,0.6,0,1.2,0.1,1.8c0.1,0.7,0.1,1.4,0.2,2.1c0.1,0.6,0.1,1.1,0.1,1.7   c0.1,0.6,0.2,1.2,0.3,1.9c0.1,0.6,0.2,1.2,0.3,1.8c0.2,1.1,0.4,2.1,0.7,3.2c0.3,1.3,0.7,2.6,1.2,3.9c0.4,1.2,0.9,2.4,1.4,3.6   c0.5,1.3,1,2.6,1.4,3.9c0.4,1.3,0.7,2.5,0.9,3.8c0.1,0.8,0.3,1.6,0.4,2.4l0.3,1.9c0.1,0.4,0.1,0.7,0.1,1.1c0,0.4,0.1,0.8,0.1,1.2   V60l0.1,1.6c0,0.6,0.1,1.2,0.1,1.8c0,0.7-0.1,1.4-0.1,2.1c0,0.6-0.1,1.2-0.2,1.9c-0.1,0.8-0.3,1.5-0.4,2.3c-0.4,1.7-0.9,3.4-1.6,5   c-0.5,1.1-1,2.1-1.6,3.2c-0.6,1.1-1.3,2.2-2,3.3c-0.6,0.8-1.1,1.6-1.7,2.4c-0.6,0.7-1.1,1.4-1.7,2c-0.8,0.9-1.7,1.8-2.6,2.7   c-0.6,0.6-1.2,1.1-1.8,1.6s-1.2,1-1.8,1.5c-0.1,0.1-0.3,0.2-0.6,0.2c-0.1,0-0.2,0-0.2,0l-0.4,0.1c-0.1-0.2,0-0.3,0.2-0.4   c0.5-0.4,1-0.7,1.5-1.1c0.4-0.3,0.8-0.6,1.2-1c0.8-0.8,1.6-1.5,2.4-2.3c0.5-0.5,1-1,1.4-1.6c0.7-0.9,1.4-1.8,2.1-2.6   c0.5-0.7,1-1.4,1.4-2.1c0.3-0.5,0.5-0.9,0.8-1.4c0.8-1.6,1.4-3.2,1.9-4.9c0.4-1.3,0.7-2.6,0.9-3.9c0.1-0.7,0.2-1.4,0.3-2.1   c0.1-0.5,0.1-1,0.2-1.5c0-0.3,0.1-0.6,0.1-0.9c0-0.5,0.1-1,0.1-1.5v-3.3c0-0.7,0-1.4-0.1-2c-0.1-0.9-0.2-1.8-0.3-2.7   c-0.2-1.6-0.5-3.1-0.9-4.7c-0.4-1.7-1-3.3-1.6-4.9c-0.4-1-0.9-1.9-1.3-2.9c-0.5-1.1-1-2.2-1.4-3.3c-0.7-2.1-1.4-4.2-1.9-6.3   c-0.2-1-0.5-2-0.7-3c-0.2-1.1-0.4-2.3-0.6-3.4c-0.1-0.8-0.2-1.6-0.4-2.5c-0.1-0.6-0.2-1.1-0.3-1.7c-0.1-0.5-0.1-0.9-0.1-1.4   s-0.1-0.9-0.2-1.4c0-0.3-0.1-0.5-0.1-0.8c-0.1-0.8-0.1-1.6-0.2-2.4c-0.1-0.6-0.1-1.2-0.2-1.8c0-0.4,0-0.8,0-1.1   c0-0.4-0.1-0.8-0.1-1.3v-0.1l-0.1-1.5c0-0.5-0.1-0.9-0.1-1.4v-0.1c0-0.5-0.1-1-0.1-1.5c-0.1-0.8-0.1-1.6-0.1-2.4V6.4   c0-1-0.1-2-0.1-3c0-1.1,0-2.2,0-3.3L39.9,0.1z"
   id="path318" />
	
		<linearGradient
   id="SVGID_00000142854506446104182610000015070536669579614870_"
   gradientUnits="userSpaceOnUse"
   x1="74.2022"
   y1="-254.736"
   x2="74.2022"
   y2="-295.5871"
   gradientTransform="matrix(1 0 0 -1 0 -254.6)">
		<stop
   offset="0"
   style="stop-color:#763217"
   id="stop320" />
		<stop
   offset="0.23"
   style="stop-color:#763317"
   id="stop322" />
		<stop
   offset="0.3"
   style="stop-color:#935323"
   id="stop324" />
		<stop
   offset="0.38"
   style="stop-color:#BD812B"
   id="stop326" />
		<stop
   offset="0.39"
   style="stop-color:#BF852B"
   id="stop328" />
		<stop
   offset="0.45"
   style="stop-color:#CE9C2B"
   id="stop330" />
		<stop
   offset="0.53"
   style="stop-color:#DCAE27"
   id="stop332" />
		<stop
   offset="0.62"
   style="stop-color:#E4B922"
   id="stop334" />
		<stop
   offset="0.75"
   style="stop-color:#EAC21D"
   id="stop336" />
		<stop
   offset="1"
   style="stop-color:#EAC31D"
   id="stop338" />
	</linearGradient>
	<path
   style="fill:url(#SVGID_00000142854506446104182610000015070536669579614870_);"
   d="M81.6,0.1H66.8c0,0.6,0.1,1.3,0.1,2   c0.1,1.1,0.3,2.3,0.6,3.4c0.3,1.2,0.6,2.3,1.1,3.4c0.4,0.8,0.7,1.6,1.1,2.4c0.5,1,1.1,2.1,1.8,3c0.2,0.3,0.5,0.6,0.8,0.9   c1.4,1.6,2.6,3.4,3.5,5.4c0.6,1.3,1.1,2.6,1.4,3.9c0.2,0.7,0.3,1.4,0.4,2.2c0.3,1.5,0.2,3,0.2,4.5c0,0.4-0.1,0.8-0.1,1.3   c-0.1,0.6-0.2,1.3-0.3,2c-0.1,0.6-0.3,1.2-0.4,1.8c0.1,1.6,0.3,3.2-0.4,4.8c0,0,0-0.1,0.1-0.1c0.7-1.1,1.3-2.3,1.8-3.6   c0.5-1.2,0.8-2.4,1.1-3.7c0.2-0.9,0.3-1.7,0.5-2.6c0.2-0.9,0.2-1.8,0.2-2.7c0-0.9-0.1-1.9-0.3-2.8c-0.3-1.6-0.7-3.1-1.2-4.6   c-0.2-0.7-0.4-1.4-0.6-2.1c-0.3-1.2-0.1-2.5,0.4-3.7c0.4-0.8,0.9-1.6,1.4-2.4c0.4-0.5,0.7-1.1,0.8-1.8c0.2-0.8,0.4-1.6,0.4-2.4   c0.1-0.9,0.2-1.8,0.2-2.6c0.1-0.6,0-1.3,0.1-1.9c0-0.6,0.1-1.2,0.1-1.8C81.6,1.5,81.6,0.8,81.6,0.1z"
   id="path341" />
	
		<linearGradient
   id="SVGID_00000096054449950332718410000000101887558123098761_"
   gradientUnits="userSpaceOnUse"
   x1="86.6636"
   y1="-254.7065"
   x2="86.6636"
   y2="-301.3263"
   gradientTransform="matrix(1 0 0 -1 0 -254.6)">
		<stop
   offset="0"
   style="stop-color:#763217"
   id="stop343" />
		<stop
   offset="0.23"
   style="stop-color:#763317"
   id="stop345" />
		<stop
   offset="0.3"
   style="stop-color:#935323"
   id="stop347" />
		<stop
   offset="0.38"
   style="stop-color:#BD812B"
   id="stop349" />
		<stop
   offset="0.39"
   style="stop-color:#BF852B"
   id="stop351" />
		<stop
   offset="0.45"
   style="stop-color:#CE9C2B"
   id="stop353" />
		<stop
   offset="0.53"
   style="stop-color:#DCAE27"
   id="stop355" />
		<stop
   offset="0.62"
   style="stop-color:#E4B922"
   id="stop357" />
		<stop
   offset="0.75"
   style="stop-color:#EAC21D"
   id="stop359" />
		<stop
   offset="1"
   style="stop-color:#EAC31D"
   id="stop361" />
	</linearGradient>
	<path
   style="fill:url(#SVGID_00000096054449950332718410000000101887558123098761_);"
   d="M83.8,0.1c-0.1,0.5-0.2,1.1-0.3,1.6   c-0.1,0.6-0.1,1.1-0.2,1.7c0,0.6,0,1.1,0.1,1.6c0,0.3,0.1,0.6,0.1,0.9c0.1,0.8,0.2,1.7,0.3,2.5c0.1,1.3,0.4,2.6,0.8,3.8   c0.3,0.7,0.6,1.5,0.9,2.2c0.5,1,0.9,2.1,1.2,3.2c0.1,0.4,0.1,0.8,0.2,1.2c0.1,0.9,0.1,1.7,0.1,2.6c0,0.5-0.1,0.9-0.1,1.4   c0,0.3,0,0.5-0.1,0.8c-0.1,0.6-0.2,1.1-0.3,1.6c-0.2,1-0.4,2.1-0.8,3.1c-0.3,0.9-0.6,1.9-1,2.7c-0.3,0.8-0.7,1.6-1.1,2.4   c-0.7,1.5-1.6,2.8-2.5,4.1c-0.6,0.8-1.2,1.6-1.8,2.4c-0.2,0.3-0.5,0.6-0.8,0.9c-0.2,0.2-0.4,0.4-0.6,0.6c-0.5,0.5-1.1,1-1.6,1.6   c-0.1,0.1-0.3,0.2-0.4,0.3v-0.1c-0.5,0.9-0.5,2.3-0.9,3.3l0,0c0.2-0.2,0.4-0.4,0.6-0.6c0.8-0.8,1.6-1.6,2.4-2.5   c0.5-0.6,1-1.1,1.6-1.7s1.1-1.2,1.5-1.8c0.9-1.1,1.7-2.3,2.5-3.5c0.5-0.8,1-1.5,1.4-2.3c0.5-1,1-2.1,1.5-3.1   c0.5-1.1,0.9-2.3,1.1-3.4c0.3-1.3,0.5-2.7,0.9-4c0.4-1.4,0.9-2.8,1.5-4.2c0.1-0.1,0.1-0.2,0.2-0.3c0.5-0.6,1.1-1.3,1.6-1.9   c1-1.2,1.8-2.6,2.5-4c0.3-0.6,0.6-1.3,0.9-1.9c0.4-0.9,0.7-1.7,1.1-2.6c0.5-1.4,0.9-2.9,1.3-4.3c0.2-0.9,0.4-1.9,0.6-2.9   c0.1-0.5,0.1-1.1,0.1-1.6L83.8,0.1z"
   id="path364" />
	
		<linearGradient
   id="SVGID_00000020379691651333075710000000618301742536635013_"
   gradientUnits="userSpaceOnUse"
   x1="36.6591"
   y1="-308.2722"
   x2="36.6591"
   y2="-341.4122"
   gradientTransform="matrix(1 0 0 -1 0 -254.6)">
		<stop
   offset="0"
   style="stop-color:#763217"
   id="stop366" />
		<stop
   offset="0.27"
   style="stop-color:#E1A925"
   id="stop368" />
		<stop
   offset="0.66"
   style="stop-color:#E6B821"
   id="stop370" />
		<stop
   offset="1"
   style="stop-color:#EAC51D"
   id="stop372" />
	</linearGradient>
	<path
   style="fill:url(#SVGID_00000020379691651333075710000000618301742536635013_);"
   d="M35.1,53.7c0,0.1,0.1,0.3,0.1,0.4v0.5   c0,0.8,0,1.6,0.1,2.3c0,0.6,0.1,1.3,0.2,1.9c0.1,0.5,0.1,1,0.1,1.5c0.1,0.5,0.1,1,0.2,1.5l0.5,2.8c0.2,0.9,0.4,1.9,0.7,2.8   c0.4,1.4,0.8,2.8,1.1,4.2c0.2,0.9,0.3,1.7,0.5,2.6c0.1,0.5,0.1,1,0.2,1.6v0.4c0,0.3,0.1,0.6,0.1,0.9v0.5c0,0.2-0.1,0.5-0.1,0.7   c0,0.9-0.2,1.7-0.4,2.5c-0.2,0.9-0.6,1.7-1.1,2.4c-0.2,0.4-0.5,0.6-0.8,1c-0.4,0.5-0.8,0.9-1.2,1.4c-0.3,0.4-0.6,0.7-1,1.1   c0-0.1,0-0.2,0.1-0.3c0.2-0.8,0.5-1.6,0.7-2.5c0.2-0.7,0.3-1.4,0.4-2.2c0.1-0.6,0.2-1.3,0.3-2c0.1-0.4,0.1-0.7,0.1-1.1   c0-0.6,0-1.3,0.1-1.9c0.1-1,0.1-1.9,0-2.9c0-0.6,0-1.1-0.1-1.6c0-0.5-0.1-0.9-0.1-1.4c0-0.3-0.1-0.6-0.1-0.9   c-0.1-0.9-0.2-1.8-0.3-2.7c-0.1-1.1-0.4-2.1-0.5-3.1c-0.1-0.6-0.3-1.3-0.4-2c-0.1-0.4-0.1-0.7-0.1-1.1v-1.7c0-0.7,0.1-1.3,0.1-2   c0.1-0.5,0.1-1,0.1-1.5c0.1-0.5,0.1-1,0.2-1.5C35,54.2,35.1,54,35.1,53.7L35.1,53.7z"
   id="path375" />
	
		<linearGradient
   id="SVGID_00000030478101894951902470000000808943741962008496_"
   gradientUnits="userSpaceOnUse"
   x1="23.1382"
   y1="-254.736"
   x2="23.1382"
   y2="-334.8784"
   gradientTransform="matrix(1 0 0 -1 0 -254.6)">
		<stop
   offset="0"
   style="stop-color:#763217"
   id="stop377" />
		<stop
   offset="0.5"
   style="stop-color:#763217"
   id="stop379" />
		<stop
   offset="0.76"
   style="stop-color:#EBC31D"
   id="stop381" />
		<stop
   offset="1"
   style="stop-color:#F3DD7B"
   id="stop383" />
	</linearGradient>
	<path
   style="fill:url(#SVGID_00000030478101894951902470000000808943741962008496_);"
   d="M23.7,80.3c-0.1-0.2-0.1-0.4-0.1-0.6V6.2   c0-0.3,0.1-0.5,0.2-0.7c0.9-1.3,1.7-2.6,2.5-4l0.8-1.3H19v0.1L19.6,1c0.6,0.9,1.2,1.9,1.9,2.9c0.3,0.5,0.6,1,1,1.5   c0.2,0.3,0.3,0.5,0.3,0.9v72c0,0.2-0.1,0.5-0.2,0.7l0,0C22.9,79.3,23.3,79.8,23.7,80.3z"
   id="path386" />
</g>

<g
   id="b169eb20-ab3e-43b8-ab8a-ac1b4adb7298"
   data-name="дщпщ"
   transform="translate(22.9,1.0560207)"><path
     class="bda9856a-975c-4098-8ee7-ababaa1010ce"
     d="m 52.8,95.2 v -15 h 2.5 v 15 z"
     id="path79"
     style="fill:#e1a925" /><path
     class="bda9856a-975c-4098-8ee7-ababaa1010ce"
     d="m 57.7,95.2 v -15 h 9.1 v 2.5 h -6.6 v 3.4 h 6.2 v 2.5 h -6.2 v 4.1 h 6.9 v 2.5 z"
     id="path81"
     style="fill:#e1a925" /><path
     class="bda9856a-975c-4098-8ee7-ababaa1010ce"
     d="m 69.2,95.2 v -15 h 9.1 v 2.5 h -6.6 v 3.4 h 6.2 v 2.5 h -6.2 v 4.1 h 6.8 v 2.5 z"
     id="path83"
     style="fill:#e1a925" /><path
     class="bda9856a-975c-4098-8ee7-ababaa1010ce"
     d="m 44.3,119.2 v -15 h 5.3 a 6.3,6.3 0 0 1 2.8,0.4 2.7,2.7 0 0 1 1.4,1.4 4.8,4.8 0 0 1 0.6,2.4 4.7,4.7 0 0 1 -0.8,2.8 4.2,4.2 0 0 1 -2.4,1.4 l 1.3,1.2 c 0.3,0.5 0.8,1.3 1.4,2.5 l 1.5,2.9 h -3 l -1.8,-3.3 -1.3,-2.2 a 1.9,1.9 0 0 0 -0.7,-0.6 l -1.3,-0.2 h -0.5 v 6.3 z m 2.5,-8.7 h 4 a 1.6,1.6 0 0 0 0.8,-0.6 3.7,3.7 0 0 0 0,-2.4 2.4,2.4 0 0 0 -0.8,-0.6 h -4 z"
     id="path85"
     style="fill:#e1a925" /><path
     class="bda9856a-975c-4098-8ee7-ababaa1010ce"
     d="m 67.9,119.2 h -2.7 l -1.1,-3.4 h -4.9 l -1.1,3.4 h -2.6 l 4.8,-15 h 2.6 z m -4.6,-5.9 -1.7,-5.6 -1.7,5.6 z"
     id="path87"
     style="fill:#e1a925" /><path
     class="bda9856a-975c-4098-8ee7-ababaa1010ce"
     d="M 68.5,114.3 71,114 c 0.2,1.9 1.1,2.9 2.7,2.9 a 2.4,2.4 0 0 0 1.7,-0.6 1.7,1.7 0 0 0 0.7,-1.4 2,2 0 0 0 -0.2,-0.9 2,2 0 0 0 -0.7,-0.6 l -2.3,-0.8 a 7.1,7.1 0 0 1 -2.3,-1 4.4,4.4 0 0 1 -1.2,-1.5 4.5,4.5 0 0 1 -0.4,-2 4.3,4.3 0 0 1 0.6,-2.2 3.6,3.6 0 0 1 1.5,-1.5 6,6 0 0 1 2.4,-0.5 4.3,4.3 0 0 1 4.7,4.6 h -2.5 a 2.1,2.1 0 0 0 -2.2,-2.2 2.5,2.5 0 0 0 -1.6,0.5 1.2,1.2 0 0 0 -0.5,1 1,1 0 0 0 0.5,1 6.5,6.5 0 0 0 2.2,1 7,7 0 0 1 2.7,1.1 3.7,3.7 0 0 1 1.3,1.5 5.6,5.6 0 0 1 0.5,2.3 4.5,4.5 0 0 1 -1.2,3.3 4.9,4.9 0 0 1 -3.8,1.4 c -3,0.1 -4.7,-1.6 -5.1,-5.1 z"
     id="path89"
     style="fill:#e1a925" /></g><metadata
   id="metadata6569"><rdf:RDF><cc:Work
       rdf:about=""><dc:contributor><cc:Agent><dc:title>https://github.com/halt9k</dc:title></cc:Agent></dc:contributor><dc:creator><cc:Agent><dc:title>Unknown</dc:title></cc:Agent></dc:creator></cc:Work></rdf:RDF></metadata></svg>
