<?xml version="1.0" encoding="UTF-8" standalone="no"?>
<svg
   id="bb676eae-309e-4010-9538-6b4626bd38a0"
   data-name="Layer 1"
   viewBox="0 0 120 120"
   version="1.1"
   sodipodi:docname="MSU_Logotype_120x120_2.svg"
   width="120"
   height="120"
   inkscape:version="1.2.2 (732a01da63, 2022-12-09)"
   xmlns:inkscape="http://www.inkscape.org/namespaces/inkscape"
   xmlns:sodipodi="http://sodipodi.sourceforge.net/DTD/sodipodi-0.dtd"
   xmlns="http://www.w3.org/2000/svg"
   xmlns:svg="http://www.w3.org/2000/svg">
  <sodipodi:namedview
     id="namedview78"
     pagecolor="#ffffff"
     bordercolor="#000000"
     borderopacity="0.25"
     inkscape:showpageshadow="2"
     inkscape:pageopacity="0.0"
     inkscape:pagecheckerboard="0"
     inkscape:deskcolor="#d1d1d1"
     showgrid="false"
     inkscape:zoom="5.378952"
     inkscape:cx="57.446134"
     inkscape:cy="62.837519"
     inkscape:window-width="1857"
     inkscape:window-height="1057"
     inkscape:window-x="55"
     inkscape:window-y="-8"
     inkscape:window-maximized="1"
     inkscape:current-layer="bb676eae-309e-4010-9538-6b4626bd38a0" />
  <defs
     id="defs4">
    <style
       id="style2">.ffe9cec8-0cd9-4946-bf24-5f5a7b948720{fill:#14005c;}</style>
  </defs>
  <g
     id="e5d9c53c-9fbf-4259-88a4-a330726da940"
     data-name="g3292"
     transform="translate(0.00235331,2.7493377)">
    <path
       id="ab9fff5f-b663-4a14-a4fe-57139146d19a"
       data-name="path66"
       class="ffe9cec8-0cd9-4946-bf24-5f5a7b948720"
       d="m 107.9,75.6 a 2.5,2.5 0 0 0 -0.1,0.8 10,10 0 0 1 2.6,-1.8 l 0.6,-0.3 a 11.8,11.8 0 0 0 0.4,-2 v 0 c 0,-0.4 0.1,-0.7 0.1,-1 v 0 -0.3 0 a 4.9,4.9 0 0 0 -0.1,-1.2 v 0 -0.3 0 c -0.1,-0.3 -0.1,-0.5 -0.2,-0.8 v 0 -0.3 0 A 2.5,2.5 0 0 1 111,67.7 V 67 h -0.1 c 0,-0.1 -0.1,-0.2 -0.1,-0.3 l -0.2,-0.3 v 0 -0.4 l -0.3,-0.4 -0.5,-0.7 -0.5,-0.6 -0.4,-0.3 -0.3,0.3 h -0.1 l -0.4,0.5 -1.3,1.5 a 12.6,12.6 0 0 0 -2.1,7.5 10.2,10.2 0 0 0 1.1,2.9 v 0 a 1.8,1.8 0 0 0 0.9,0.6 8,8 0 0 0 0.4,-1.8 c -0.5,-0.6 -1.4,-1.6 -1.3,-1.9 h 0.2 c 0.3,0 0.9,0.5 1.3,1 a 12.9,12.9 0 0 1 0.4,-1.9 v 0 l -1.1,-1.2 c -0.9,-1.1 -0.9,-1.2 -0.9,-1.3 l 0.2,-0.2 0.4,0.2 1.5,1.5 a 5,5 0 0 0 0.2,-1.2 c 0.1,-0.4 0.1,-0.7 0.2,-1.1 a 3,3 0 0 1 -0.8,-0.8 c -0.3,-0.3 -0.5,-0.5 -0.4,-0.7 h 0.2 c 0.1,-0.1 0.2,-0.1 1.1,0.7 a 4.6,4.6 0 0 1 0.2,-1.4 2.2,2.2 0 0 1 0.1,-0.8 c 0.1,-0.3 0.1,-0.3 0.2,-0.3 0.1,0 0.2,0 0.3,0.3 V 67 a 8.6,8.6 0 0 1 -0.1,1.5 c 1,-0.6 1.2,-0.6 1.3,-0.6 v 0.2 a 1.2,1.2 0 0 1 -0.5,0.6 l -0.9,0.7 c 0,0.3 -0.1,0.7 -0.1,1.1 a 4.5,4.5 0 0 0 -0.1,1.2 l 1.8,-1.1 h 0.4 c 0.1,0.1 0.2,0.1 0.2,0.2 0,0.1 0,0.3 -1.2,1.1 a 5.5,5.5 0 0 1 -1.4,0.9 v 0 a 13.6,13.6 0 0 1 -0.2,2 c 0.6,-0.4 1.3,-0.7 1.5,-0.6 a 0.2,0.2 0 0 1 0.2,0.2 5.1,5.1 0 0 1 -1.9,1.3 z" />
    <path
       id="b893c7f2-5ea7-405a-a996-873435d5dbb6"
       data-name="path68"
       class="ffe9cec8-0cd9-4946-bf24-5f5a7b948720"
       d="m 110.2,39.1 0.7,1.4 a 1.3,1.3 0 0 1 0.6,-0.7 v -0.5 l 0.3,-0.9 c 0,-0.2 0.1,-0.3 0.1,-0.5 l -0.3,-0.5 v 0 l -0.2,-0.3 h -0.1 c 0,-0.1 0,-0.1 -0.1,-0.2 -0.1,-0.1 0,-0.1 -0.1,-0.2 H 111 v -0.2 l -1.1,-1.3 -0.6,-0.5 -0.3,-0.2 h -0.3 l -0.2,-0.2 h -0.3 l -0.3,-0.2 -0.9,-0.3 -0.7,-0.2 h -1.1 a 18.3,18.3 0 0 0 0.6,2.5 8.9,8.9 0 0 0 0.6,2 22.6,22.6 0 0 0 1.1,2.2 12,12 0 0 0 1.5,2.4 l 1.4,1.1 h 0.9 l -0.6,-1.6 h -0.2 l -1,-0.3 c -0.2,-0.1 -0.2,-0.2 -0.2,-0.3 0,-0.1 -0.1,0 0,-0.2 h 1 a 3.8,3.8 0 0 0 -0.6,-1.3 l -1.3,-0.5 a 1.5,1.5 0 0 1 -1,-0.5 v -0.2 h 0.9 l 1,0.3 -1,-1.6 -0.9,-0.2 a 0.7,0.7 0 0 1 -0.6,-0.3 c 0,0 -0.2,-0.1 0,-0.2 0.2,-0.1 0.5,-0.2 1,-0.1 l -1.3,-1.7 c -0.2,-0.3 -0.2,-0.3 -0.1,-0.4 0.1,-0.1 0.1,-0.1 0.3,0.1 a 11,11 0 0 1 1.5,1.6 c 0.1,-0.4 0.2,-0.9 0.3,-0.9 0.1,0 0.1,-0.1 0.3,0.1 0.2,0.2 0.1,0.4 0.1,0.7 a 3.4,3.4 0 0 1 -0.1,1 l 1,1.5 a 4.4,4.4 0 0 0 0.2,-1 c 0.1,-0.2 0.1,-0.4 0.2,-0.5 0.1,-0.1 0.1,-0.2 0.2,-0.3 0.1,-0.1 0.1,0 0.2,0.2 0.1,0.2 0.2,0.6 0.1,1.1 a 5.7,5.7 0 0 1 -0.5,0.8 z" />
    <path
       id="f6acfe34-4ced-46d4-90c4-0e07d0fa833d"
       data-name="path70"
       class="ffe9cec8-0cd9-4946-bf24-5f5a7b948720"
       d="m 114.5,55.5 v 0 -0.2 0 -0.2 0 a 8.1,8.1 0 0 0 -0.3,-3.8 L 114,50.8 a 0.8,0.8 0 0 0 -0.2,-0.4 v 0 c 0,-0.1 -0.1,-0.3 -0.1,-0.4 a 2.5,2.5 0 0 0 -0.4,-0.7 0.3,0.3 0 0 0 -0.1,-0.2 h -0.1 V 48.9 H 113 l -0.2,-0.3 -0.3,-0.3 h -0.4 v -0.2 l -1.2,-0.9 -0.4,-0.2 -0.5,-0.2 -0.4,-0.2 h -0.4 l -1.1,-0.2 a 19.5,19.5 0 0 0 0.3,2.7 17.7,17.7 0 0 0 0.4,2 c 0.1,0.8 0.3,1.6 0.5,2.5 l 0.9,2.6 h 0.1 l 0.5,-0.5 h 0.1 v -0.2 c -0.1,-0.1 0,-0.2 0.1,-0.2 0.1,0 0.7,0.1 1,0.2 A 7.7,7.7 0 0 0 111.8,54 l -1.4,-0.7 c -0.4,-0.3 -0.8,-0.5 -0.9,-0.7 -0.1,-0.2 0.1,-0.2 0.1,-0.3 0,-0.1 0.1,-0.1 0.4,0 l 0.5,0.2 1,0.5 a 10.7,10.7 0 0 0 -0.7,-1.9 l -0.9,-0.3 c -0.3,-0.1 -0.6,-0.3 -0.6,-0.4 a 0.1,0.1 0 0 1 0,-0.2 c 0.1,-0.2 0.7,-0.1 1.1,0 l -0.7,-1.3 c -0.1,-0.2 -0.2,-0.3 -0.2,-0.4 l -0.2,-0.3 q -0.2,-0.3 0,-0.3 c 0.1,-0.1 0.1,-0.1 0.3,0.1 0.2,0.2 0.2,0.1 0.2,0.2 l 0.3,0.4 0.8,1.3 c 0.2,-0.4 0.4,-0.9 0.6,-1 0.2,-0.1 0.1,0 0.2,0.2 a 1.1,1.1 0 0 1 0,0.8 l -0.3,1 a 13.4,13.4 0 0 1 0.7,1.8 9.3,9.3 0 0 0 0.5,-1 1.7,1.7 0 0 0 0.2,-0.5 l 0.3,-0.2 c 0,0 0.1,-0.1 0.3,0.1 a 1.8,1.8 0 0 1 -0.3,1.3 6.1,6.1 0 0 1 -0.7,1.4 l 0.3,1.2 v 0.4 l 0.5,-0.4 v 0 c 0.2,-0.2 0.3,-0.3 0.4,-0.2 0.1,0.1 0.2,-0.1 0.2,0.2 0,0.3 0.1,0.2 0,0.4 l -0.8,0.9 h -0.1 c 0,0.3 0.1,0.7 0.1,1 h 0.1 l 0.4,0.6 0.4,-0.3 a 2.2,2.2 0 0 0 0.5,-0.8 c 0.1,-0.1 0.1,-0.2 0.2,-0.4 z" />
    <path
       id="be61bf8e-f2ad-44b8-9a88-7601affbc27c"
       data-name="path72"
       class="ffe9cec8-0cd9-4946-bf24-5f5a7b948720"
       d="m 116.6,47.1 h -0.2 l -0.2,0.2 -0.2,0.2 v 0 l -0.2,0.2 h -0.1 l -0.4,0.6 v 0 l -0.3,0.4 v 0 l -0.4,0.8 a 7.6,7.6 0 0 0 0.4,1.5 0.8,0.8 0 0 0 0.1,0.4 l 0.7,1.4 c 0.2,-0.7 0.4,-1.4 0.6,-1.9 0.2,-0.5 -0.7,-1.5 -0.5,-1.8 a 0.2,0.2 0 0 1 0.2,-0.2 2.3,2.3 0 0 1 0.7,0.9 14.3,14.3 0 0 1 0.8,-2.2 c 0.2,-0.3 0.2,-0.3 0.3,-0.3 0.1,0 0.2,0.1 0.1,0.4 l -0.7,2.3 c 0.5,-0.2 1,-0.4 1.1,-0.3 0.1,0.1 0.1,0 0.1,0.3 a 4.8,4.8 0 0 1 -1.5,1 c -0.1,0.6 -0.3,1.2 -0.5,2 1.6,-1 1.7,-0.9 1.8,-0.8 0.1,0.1 0.1,0 0.1,0.2 a 1.9,1.9 0 0 1 -0.9,0.9 l -1.3,0.8 c -0.2,0.5 -0.3,1.1 -0.5,1.6 -0.2,0.5 1,-0.3 1.1,-0.2 0.1,0.1 0.2,0 0.1,0.2 -0.1,0.2 -0.2,0.4 -1.3,0.9 h -0.1 a 18,18 0 0 0 -0.5,1.9 1.6,1.6 0 0 0 0.9,-0.3 3,3 0 0 0 1.3,-1.2 11.7,11.7 0 0 0 1.4,-3.3 15.7,15.7 0 0 0 0.6,-5.3 l -0.3,-1.8 a 4.2,4.2 0 0 0 -0.4,-1 l -0.9,0.5 -0.6,0.5 -0.2,0.2 v 0 0.2 z" />
    <path
       id="f6217af9-770a-49d9-9ce5-7e32e39219fa"
       data-name="path74"
       class="ffe9cec8-0cd9-4946-bf24-5f5a7b948720"
       d="m 112.9,37.2 v 0 l -0.2,0.3 c 0,0.2 -0.1,0.2 -0.1,0.3 l -0.3,0.9 a 16.5,16.5 0 0 0 -0.5,3.8 V 43 c 0.1,0.6 0.1,1.2 0.2,1.8 a 8.3,8.3 0 0 0 0.4,1.5 1.4,1.4 0 0 0 0.2,0.6 h 0.1 l 0.2,0.2 0.2,0.2 0.3,0.4 a 0.2,0.2 0 0 0 0.2,0.2 c 0.1,0.2 0.3,0.2 0.6,0.3 0.3,0.1 -0.1,-1.3 -0.2,-2 V 46 c -0.9,-0.7 -1,-0.9 -1,-1.1 0,-0.2 0.1,-0.3 0.1,-0.3 0,0 0.7,0.2 1,0.5 v -0.9 c -0.1,-0.2 0,-0.5 0,-0.8 l -0.5,-0.5 -0.5,-0.7 c -0.4,-0.5 -0.7,-0.9 -0.6,-1.2 0.1,-0.3 0,-0.2 0.1,-0.2 0.1,0 0.1,-0.1 0.3,0.1 a 6.9,6.9 0 0 1 1.1,1.3 c 0,-0.8 0.1,-1.5 0.1,-2.1 a 5.9,5.9 0 0 1 -1,-1.6 0.4,0.4 0 0 1 0.2,-0.3 c 0.2,0 0.5,0.4 0.8,0.7 a 10.4,10.4 0 0 0 0.1,-1.6 c 0.1,-0.4 0.1,-0.7 0.2,-0.8 0.1,-0.1 0.1,-0.4 0.2,-0.4 0.1,0 0.1,0 0.2,0.4 a 3.2,3.2 0 0 1 -0.1,0.8 v 1.6 a 2,2 0 0 1 0.9,-0.6 c 0,0 0.1,0 0.1,0.3 0,0.3 -0.7,1.1 -1.1,1.5 a 14.8,14.8 0 0 0 0.1,2 l 1.1,-1.2 h 0.3 c 0,0 0.1,0 0.1,0.2 0,0.2 -0.2,0.7 -0.5,1.1 l -0.6,0.7 -0.4,0.5 v 1.7 c 0.3,-0.2 0.7,-0.6 0.9,-0.5 0.2,0.1 0.1,0 0.1,0.2 0,0.2 0,0.4 -0.8,1.3 h -0.2 c 0.1,0.6 0.1,1.2 0.2,1.7 a 8,8 0 0 1 1.5,-1.7 v 0 -0.2 a 21.9,21.9 0 0 0 0.3,-3.6 20.2,20.2 0 0 0 -0.8,-5.4 l -0.4,-0.9 -0.3,-0.7 -0.5,-1 a 2.7,2.7 0 0 0 -0.7,0.8 h -0.4 c 0,0.1 -0.1,0.1 -0.1,0.2 a 3.6,3.6 0 0 0 -0.5,0.9 c 0,0.1 -0.1,0.2 -0.1,0.3 z" />
    <path
       id="f85dd8ed-fbd0-4127-9931-e4aae18363b8"
       data-name="path76"
       class="ffe9cec8-0cd9-4946-bf24-5f5a7b948720"
       d="m 107.3,29.2 v 0.2 0 0.2 h 0.1 v 0.4 0 a 12.9,12.9 0 0 0 0.7,2.1 l 0.4,0.9 1.1,0.7 0.3,0.3 0.4,0.3 0.6,0.7 a 3.4,3.4 0 0 1 0.9,1.2 h 0.3 l -0.8,-1.6 h -0.2 c -1,-0.4 -1.1,-0.4 -1.2,-0.7 v -0.2 c 0.1,-0.2 0.6,0 1,0.1 l -0.6,-1.4 -1.3,-0.7 a 2.3,2.3 0 0 1 -0.9,-0.7 0.4,0.4 0 0 1 0.1,-0.3 h 0.3 l 1.4,0.7 -0.7,-1.8 c -0.4,-0.2 -1.3,-0.7 -1.3,-1 0,-0.3 0,-0.2 0.1,-0.2 0.1,0 0.5,0.1 0.9,0.2 a 16.6,16.6 0 0 1 -0.6,-2.1 c 0,-0.3 0,-0.3 0.1,-0.3 0.1,0 0.2,-0.1 0.3,0.2 l 0.7,2.1 c 0.1,-0.4 0.6,-0.9 0.7,-0.6 0.1,0.3 -0.2,1.1 -0.4,1.5 a 17.1,17.1 0 0 1 0.7,1.8 5.9,5.9 0 0 1 0.6,-1.2 c 0.1,-0.2 0.1,-0.2 0.2,-0.2 0.1,0 0.1,-0.1 0.2,0.1 a 2.3,2.3 0 0 1 -0.1,1.1 8.9,8.9 0 0 1 -0.5,1.3 l 0.7,1.4 c 0.2,-0.3 0.4,-0.7 0.6,-0.7 0.2,0 0.1,-0.1 0.2,0.1 0.1,0.2 0.1,0.3 -0.3,1.3 v 0.2 l 0.8,1.5 a 0.5,0.5 0 0 0 0.2,-0.4 l 0.3,-0.4 a 7.6,7.6 0 0 0 0.1,-1.5 18.6,18.6 0 0 0 -1,-3.1 16.1,16.1 0 0 0 -2.5,-4.1 6.3,6.3 0 0 0 -1,-1.2 l -0.7,-0.7 c 0,0.1 -0.1,0.2 -0.2,0.4 a 0.3,0.3 0 0 0 -0.1,0.2 c 0,0.1 -0.1,0.2 -0.1,0.3 0,0.1 -0.1,0.1 -0.1,0.2 v 0 a 0.1,0.1 0 0 1 -0.1,0.1 v 0 0.2 0 c 0,0.1 -0.1,0.2 -0.1,0.3 0,0.1 -0.1,0.4 -0.1,0.7 v 1.8 z" />
    <path
       id="eedc5ac6-6bc8-42d7-9b9c-adff528b1812"
       data-name="path78"
       class="ffe9cec8-0cd9-4946-bf24-5f5a7b948720"
       d="m 100.6,95.2 1.7,-0.4 a 4.1,4.1 0 0 0 0.1,-1.1 11.2,11.2 0 0 0 -1.1,-2.5 l -0.2,-0.5 -0.5,-0.8 a 4.9,4.9 0 0 1 -1.2,1.3 l -0.7,0.5 0.3,0.6 a 26.9,26.9 0 0 1 1.6,2.9 z" />
    <path
       id="bb250e3a-f020-4fb9-9972-208289d34c4e"
       data-name="path80"
       class="ffe9cec8-0cd9-4946-bf24-5f5a7b948720"
       d="m 83.2,99.3 a 1.1,1.1 0 0 0 0.6,0 h 1.9 l 0.5,-0.2 0.8,-0.4 a 3.3,3.3 0 0 0 1.3,-1.3 c 0.1,-0.2 0.2,-0.3 0.2,-0.5 v -0.2 0 -0.3 a 4.2,4.2 0 0 0 -0.4,-1 5.8,5.8 0 0 0 -1.1,-1.8 0.3,0.3 0 0 1 0,-0.4 v 0 L 87.2,93 a 9.3,9.3 0 0 1 0.5,-1 4.8,4.8 0 0 0 0.4,-2.6 H 88 a 0.4,0.4 0 0 0 -0.1,-0.3 h -0.1 v -0.2 0 L 87,88.5 h -0.8 a 1.1,1.1 0 0 0 -0.8,0.3 4.3,4.3 0 0 0 -1.5,1.5 1.8,1.8 0 0 0 -0.5,0.7 c 0,0.1 -0.1,0.1 -0.1,0.2 h -0.1 c 0,0.1 -0.1,0.1 -0.2,0.1 l -1.8,-0.7 h -1.5 l -0.4,0.2 a 2.3,2.3 0 0 0 -0.6,1.2 1.4,1.4 0 0 0 -0.2,0.7 v 0.7 a 12.1,12.1 0 0 0 0.1,1.9 V 95 H 76 l -0.4,0.3 a 2.9,2.9 0 0 0 -0.5,1.8 c 0,0.5 0.1,1 0.1,1.5 v 0 c 0,0.1 0,0.2 -0.1,0.2 l -1.2,0.4 0.3,1.7 a 0.7,0.7 0 0 1 0.1,-0.6 h 0.2 c 0.2,0.1 0.4,0.8 0.4,1.3 l 2.2,-1.7 A 2,2 0 0 0 77,99.2 v -1 a 3,3 0 0 1 0,-1.4 h 0.2 c 0.2,0 0.4,0.4 0.5,1 l 0.3,1.5 a 29.6,29.6 0 0 0 2.6,-2.4 7.4,7.4 0 0 0 -0.2,-1.2 7.7,7.7 0 0 0 -0.2,-1.5 c 0,-0.4 -0.1,-0.9 -0.1,-1.3 a 0.8,0.8 0 0 1 0,-0.7 h 0.2 c 0.1,0 0.2,0 0.4,0.5 a 13.6,13.6 0 0 1 0.7,3.5 l 1,-1.1 0.5,-0.6 a 1,1 0 0 0 0.4,-0.5 3.1,3.1 0 0 0 -0.2,-0.8 1.1,1.1 0 0 1 0,-0.8 h 0.1 c 0.3,0 0.6,0.5 0.8,0.9 l 0.4,-0.5 0.3,-0.5 0.3,-0.4 0.2,-0.4 0.4,-0.5 a 0.5,0.5 0 0 1 0.2,-0.4 c 0.2,-0.4 0.3,-0.4 0.4,-0.3 0.1,0.1 0.2,0 0,0.5 l -0.2,0.4 -0.3,0.6 -0.2,0.4 -0.3,0.4 -0.3,0.5 a 2.1,2.1 0 0 1 -0.4,0.6 c 0.4,0 1.1,0.1 1.1,0.4 V 94 a 1.2,1.2 0 0 1 -0.8,0.2 h -0.9 l -0.4,0.5 -0.5,0.6 -1,1.1 h 3.7 c 0.6,0.1 0.6,0.2 0.6,0.3 v 0.2 a 1.1,1.1 0 0 1 -0.8,0.3 h -4.3 l -2.6,2.8 a 4.8,4.8 0 0 1 1.5,0.4 c 0.6,0.1 1,0.3 1,0.5 0,0.2 0,0.2 -0.1,0.2 a 4.1,4.1 0 0 1 -1.6,0 l -1,-0.2 -0.7,-0.2 a 17.4,17.4 0 0 1 -2.2,1.8 c 0.5,0.2 1.2,0.5 1.1,0.7 v 0.2 h -0.8 l -0.9,-0.2 h -0.3 c 0.2,0.6 0.3,1.2 0.5,1.7 H 77 l 0.5,-0.4 a 0.3,0.3 0 0 1 0.1,-0.2 l 0.3,-0.4 0.3,-0.4 v -0.5 0 l 0.3,-0.2 h 0.1 l 0.7,0.2 h 1.1 a 2.5,2.5 0 0 0 1.7,-0.4 1.8,1.8 0 0 0 0.5,-0.7 l 0.3,-0.8 v 0 -1.4 c 0,-0.2 0.1,-0.3 0.2,-0.3 h 0.1 z" />
    <path
       id="fd9593cc-e960-4197-8134-fee59932c9f8"
       data-name="path82"
       class="ffe9cec8-0cd9-4946-bf24-5f5a7b948720"
       d="m 103.2,94 1,-1.2 h 0.3 c 0.1,-0.1 0,-0.1 0,-0.1 v 0 -0.2 0 -1.5 0 -0.2 h -0.1 v -0.2 0 a 17.3,17.3 0 0 0 -1.9,-3.9 l -0.2,-0.3 h -0.1 V 86 86 C 102.1,85.9 102,85.8 102,85.7 h -0.1 v -0.2 h -0.1 c 0,-0.1 -0.1,-0.2 -0.1,-0.3 v 0 l -0.2,-0.3 v 0 l -0.2,-0.3 v 0 c 0,-0.2 -0.1,-0.3 -0.1,-0.4 h -0.1 v -0.3 0 l -0.2,-0.3 v 0 a 0.4,0.4 0 0 0 -0.1,-0.3 v 0 c -0.1,-0.2 -0.1,-0.4 -0.2,-0.6 v 0 c 0,-0.1 -0.1,-0.2 -0.1,-0.3 v 0 -0.3 0 a 0.3,0.3 0 0 0 -0.1,-0.2 v 0 l -0.3,0.6 v 0.6 a 11.8,11.8 0 0 1 -0.4,2 4.7,4.7 0 0 1 1.5,1.3 3,3 0 0 1 0.6,1.8 2.2,2.2 0 0 1 -0.1,0.8 l -0.3,1 0.2,0.5 0.4,0.7 a 9.8,9.8 0 0 1 1.4,3.2 0.6,0.6 0 0 0 0.1,0.4 z" />
    <rect
       id="e6eea2e0-3214-4a40-98ad-fd48a1fad35e"
       data-name="rect84"
       class="ffe9cec8-0cd9-4946-bf24-5f5a7b948720"
       x="64.300003"
       y="80.699997"
       width="1.2"
       height="1.23" />
    <path
       id="e1babc12-3483-41c9-bf5e-9b1b33d5a4c6"
       data-name="path86"
       class="ffe9cec8-0cd9-4946-bf24-5f5a7b948720"
       d="m 96.1,91.6 1.5,-0.4 h 0.5 a 5.1,5.1 0 0 0 2.1,-1.7 v 0 c 0,-0.1 0.1,-0.1 0.1,-0.2 v 0 c 0,-0.1 0.1,-0.1 0.1,-0.2 v 0 c 0,-0.1 0.1,-0.1 0.1,-0.2 v 0 c 0,-0.1 0,-0.2 0.1,-0.2 v -0.2 a 2.5,2.5 0 0 0 -0.7,-2.1 l -0.7,-0.7 -0.6,-0.3 h -0.3 a 0.3,0.3 0 0 1 0,-0.4 v 0 a 0.4,0.4 0 0 0 0.1,-0.3 c 0.1,-0.1 0.1,-0.3 0.2,-0.5 0.1,-0.2 0.1,-0.4 0.1,-0.6 a 0.4,0.4 0 0 1 0.1,-0.3 v 0 -0.4 0 -0.5 0 A 0.7,0.7 0 0 0 98.7,81.9 1.4,1.4 0 0 0 98.5,81.2 C 98.4,80.9 98.1,80.7 97.9,80.5 A 1.5,1.5 0 0 0 97,80.3 l -0.9,0.2 -0.7,0.4 -0.3,0.4 -0.4,0.4 a 9.3,9.3 0 0 1 -0.5,1 c 0,0.2 -0.1,0.3 -0.2,0.5 v 0.4 a 0.3,0.3 0 0 1 -0.1,0.2 v 0 c 0,0.2 -0.1,0.2 -0.3,0.2 l -1.9,-0.2 c -0.7,0 -1.5,0.1 -1.8,0.6 a 3.8,3.8 0 0 0 -0.3,3 14.6,14.6 0 0 0 0.7,1.9 v 0.2 h -1.5 v 0.2 a 4.9,4.9 0 0 1 0.1,1.2 3.6,3.6 0 0 1 -0.2,1.1 c -0.1,0.4 -0.3,0.7 -0.4,1.1 -0.1,0.4 -0.3,0.5 -0.4,0.8 a 1.7,1.7 0 0 1 0.6,0.6 3.5,3.5 0 0 1 0.6,0.9 c 0,0.1 0.1,0.2 0.1,0.4 L 90,94.7 C 89.9,94.4 89.6,93.7 89.4,93 A 3.2,3.2 0 0 1 89,91.4 h 0.2 c 0.2,0 0.5,0.4 0.8,0.9 l 0.6,1.5 c 0.7,-1.1 1.4,-2.2 2,-3.3 l -0.5,-1.2 -0.6,-1.4 a 5.3,5.3 0 0 1 -0.6,-2 c 0,-0.1 0.1,-0.1 0.1,-0.2 0,-0.1 0.2,0 0.6,0.4 l 0.6,1.1 a 16.4,16.4 0 0 1 1,2.2 c 0.5,-0.9 1,-1.8 1.4,-2.7 a 2.9,2.9 0 0 1 -0.4,-0.8 1.1,1.1 0 0 1 -0.3,-0.8 h 0.2 c 0.2,-0.1 0.7,0.4 0.9,0.7 0.8,-1.8 1.1,-2.8 1.3,-3.2 0.2,-0.4 0.2,-0.5 0.3,-0.4 0.1,0.1 0.2,0 0.1,0.5 a 19.1,19.1 0 0 1 -1,3.4 c 0.4,-0.1 1.1,-0.1 1.2,0.1 a 0.2,0.2 0 0 1 0,0.3 l -0.7,0.4 -0.9,0.2 -1.3,2.8 2.4,-0.6 1.3,-0.2 c 0.6,-0.1 0.6,0 0.6,0.1 0,0.1 0.1,0.2 0,0.2 -0.1,0 -1,0.7 -2.1,1 l -1.5,0.4 -1.3,0.2 c -0.6,1.1 -1.2,2.3 -1.9,3.4 h 1.7 c 0.5,0 1,0.1 1.1,0.3 0.1,0.2 0,0.2 -0.1,0.2 -0.1,0 -0.8,0.4 -1.5,0.5 H 90.9 A 25,25 0 0 1 89.3,97 h 1 l 0.8,-1.2 0.6,-0.6 0.6,-0.4 a 2.2,2.2 0 0 1 2.2,0.9 7.2,7.2 0 0 1 1.1,-1.7 l 0.6,-0.6 A 3.5,3.5 0 0 0 95.9,92 c -0.1,-0.1 -0.1,-0.1 0,-0.2 z" />
    <path
       id="abd9c6c1-3bb9-4cda-b416-e7707ac1a90f"
       data-name="path88"
       class="ffe9cec8-0cd9-4946-bf24-5f5a7b948720"
       d="M 54.5,52.4 H 53.3 V 47.5 H 52 v 4.9 H 50.8 V 51.2 L 49.6,49.9 V 68.4 H 47.1 V 66 H 45.9 V 63.5 H 44.6 V 66 h -1.2 v 2.4 H 31.1 V 66 h -2.5 v -6.2 h -2.5 v -2.5 h -3.7 v 2.5 H 20 v 6.1 h -1.2 v 11.2 l 0.9,1.9 a 5,5 0 0 1 0.4,1.3 h 0.3 a 1.4,1.4 0 0 0 0.2,-0.6 v 0 L 21.1,79 v -5.7 h 1.2 v 5.2 h 1.3 v -5.2 h 1.2 V 79 l 0.3,0.2 0.5,0.5 0.4,0.6 v 0 -7 h 1.3 v 8.8 h 1 A 2.9,2.9 0 0 1 31,83 h 0.1 v -8.4 h 1.2 v 12.9 l 0.6,-0.2 0.6,-0.2 V 74.6 h 1.3 V 87.3 L 35.2,87.5 36,88 V 74.6 h 1.2 v 14.9 l 0.2,0.3 1.1,-0.4 V 74.6 h 1.2 v 14.6 h 1.2 V 74.6 h 1.3 v 16.2 c 0,0.2 0.1,0.3 0.1,0.4 a 2.8,2.8 0 0 1 0.1,0.9 c 0,0.1 0.1,0.3 0.1,0.4 v 0.4 a 4.9,4.9 0 0 1 -0.1,1.2 h 1.5 l 0.5,0.2 h 6.4 l 2.4,-2.4 V 79.5 h 5 L 57.4,79.2 C 56.7,79 56.2,77 56.2,77 l 1.8,0.7 -0.2,-0.9 1.3,0.9 c 0,0 0.5,-1.3 0.9,-1.3 0.4,0 0.9,1.3 0.9,1.3 L 62.2,76.8 62,77.7 63.8,77 c 0,0 -0.4,2 -1.2,2.2 l -0.8,0.3 h 5 v 12.4 l 2.5,2.4 h 6.3 l 0.5,-0.2 h 1.5 c 0,-0.4 -0.1,-0.8 -0.1,-1.2 v -0.4 c 0,-0.1 0.1,-0.3 0.1,-0.4 a 2.8,2.8 0 0 1 0.1,-0.9 l 0.2,-0.4 V 74.6 h 1.2 v 14.8 h 1.3 V 74.6 h 1.2 v 14.8 l 1,0.4 0.2,-0.3 V 74.6 H 84 v 13.5 l 0.8,-0.6 0.5,-0.2 V 74.6 h 1.2 v 12.5 l 0.7,0.2 0.5,0.2 V 74.6 H 89 v 8.5 h 0.1 a 2.7,2.7 0 0 1 2.5,-1 h 1.1 v -8.8 h 1.2 v 7.1 H 94 l 0.4,-0.6 0.4,-0.5 0.3,-0.2 v -5.8 h 1.3 v 5.2 h 1.2 v -5.2 h 1.2 v 5.9 l 0.5,0.6 v 0 a 1.4,1.4 0 0 1 0.2,0.6 h 0.4 a 2.8,2.8 0 0 1 0.4,-1.3 l 0.9,-1.9 c 0,-0.1 0,-0.2 0.1,-0.2 V 66 h -1.2 v -6.2 h -2.5 v -2.5 h -1.2 l 1.2,-2.4 h -3.7 l 1.3,2.4 h -1.3 v 2.5 H 91.5 V 66 H 89 v 2.4 H 76.6 V 66 H 75.4 V 63.5 H 74.2 V 66 H 73 v 2.4 H 70.5 V 49.9 l -1.2,1.3 v 1.2 H 68 v -4.9 h -1.2 v 4.9 H 65.6 V 35.1 l -2.5,1.3 v -7.5 c 0,-1.4 -2.5,-2.4 -2.5,-2.4 l 0.7,-1.8 -0.7,-1.9 v -1.2 l 0.7,-1.2 H 60.6 L 60.2,9.6 h 0.1 l 1.1,0.5 C 61.8,10.3 62,9.8 61.7,9.7 L 60.9,9.1 C 64.3,7.8 62.1,4.5 61.9,4.8 61.7,5.1 62.4,6 62.1,7.1 61.8,8.2 60,8.7 60,8.7 60,8.7 58.3,8.4 58,7.1 57.7,5.8 58.3,5 58.2,4.8 c -0.1,-0.2 -2.5,3 1,4.3 l -0.9,0.6 c -0.3,0.1 -0.1,0.6 0.3,0.4 a 5.2,5.2 0 0 0 1.2,-0.5 h 0.1 l -0.5,10.8 h -0.6 l 0.6,1.2 v 1.2 l -0.6,1.9 0.6,1.8 c 0,0 -2.5,1 -2.5,2.4 v 7.5 L 54.5,35.1 Z M 26.1,61 h 1.3 v 7.4 h -1.3 z m -2.9,0.4 a 1.9,1.9 0 0 1 2,1.9 2,2 0 0 1 -4,0 1.9,1.9 0 0 1 2,-1.9 z M 44.6,91.8 H 43.4 V 74.6 h 1.2 z m 0,-19.7 H 31.1 l -2.5,-1.2 h -7.4 v -1.3 h 7.4 l 2.5,1.3 h 13.5 z m 3.7,19.7 H 47.1 V 70.9 h 1.2 z M 96.9,61.4 a 1.8,1.8 0 0 1 1.9,1.9 1.9,1.9 0 0 1 -1.9,2 2,2 0 0 1 -2,-2 1.9,1.9 0 0 1 2,-1.9 z M 92.7,61 h 1.2 v 7.4 H 92.7 Z M 75.4,70.9 H 89 l 2.4,-1.3 h 7.4 v 1.3 H 91.5 L 89,72.1 H 75.4 Z m 0,3.7 h 1.3 V 91.8 H 75.4 Z M 71.7,70.9 H 73 V 91.8 H 71.7 Z M 52,90.6 50.8,91.8 V 56.1 H 52 Z M 50.5,54.9 v -1.3 h 2.8 l 2.4,0.7 v 1.2 l -2.4,-0.6 z m 6.4,18.5 H 55.7 V 57.3 h 1.2 z m 0,-21 h -1.2 v -8.6 h 1.2 z m 2.5,21 H 58.2 V 57.3 h 1.2 z m 0,-21 h -1.2 v -8.6 h 1.2 z m 2.5,21 H 60.6 V 57.3 h 1.3 z m 0,-21 h -1.3 v -8.6 h 1.3 z m 2.4,21 H 63.1 V 57.3 h 1.2 z m -1.2,-21 v -8.6 h 1.2 v 8.6 z M 69.3,91.9 68,90.6 V 56.1 h 1.3 z M 66.8,53.7 h 2.8 v 1.2 h -2.8 l -2.5,0.6 V 54.2 Z M 59.4,29 h 1.2 v 6.2 h -1.2 z m -0.8,11.7 a 0.3,0.3 0 0 0 0.3,-0.3 V 40.1 A 2,2 0 0 1 58.3,38.6 1.5,1.5 0 0 1 59.7,37 c 0.4,-0.1 -0.3,0.5 -0.6,0.7 -0.3,0.2 0.1,0.4 0.1,0.4 L 60,37.6 a 1.1,1.1 0 0 1 0.8,0.5 c 0,0 0.4,-0.2 0.1,-0.4 C 60.6,37.5 60,36.9 60.4,37 a 1.5,1.5 0 0 1 1.4,1.6 2.8,2.8 0 0 1 -0.6,1.5 c -0.1,0.2 -0.1,0.4 0.1,0.5 h 3 v 1.2 h -8.6 v -1.1 z" />
    <path
       id="a46b1338-deb1-4cfd-801d-5aeec4fedc34"
       data-name="path90"
       class="ffe9cec8-0cd9-4946-bf24-5f5a7b948720"
       d="m 78.7,1.7 c 0,0.1 0.1,0.2 0.1,0.3 v 0 c 0,0.2 0.1,0.3 0.1,0.4 0,0.1 0.1,0.2 0.1,0.3 v 0 c 0,0.1 0.1,0.2 0.1,0.3 v 0 l 0.2,0.3 v 0 L 79.7,4 h 0.1 v 0.2 0 l 0.4,0.5 h 0.1 v 0.2 h 0.1 l 0.2,0.3 0.2,0.2 h 0.1 l 0.2,0.2 v 0 l 0.2,0.2 h 1.8 l -1,-0.2 A 0.4,0.4 0 0 1 82,5.3 h 0.5 L 81.9,4.7 C 81.5,4.7 80.5,4.6 80.4,4.4 A 0.4,0.4 0 0 1 80.3,4.1 C 80.4,4 80.4,3.9 81.3,4 L 80.5,3.2 79.7,3 A 0.4,0.4 0 0 1 79.6,2.7 c 0,-0.1 0.1,-0.1 0.4,-0.1 0.3,0 -0.8,-1.1 -0.7,-1.2 0.1,-0.1 0.1,-0.1 1.1,0.9 1,1 0,-0.3 0.1,-0.4 0.1,-0.1 0.2,0 0.2,0.1 0,0.1 0.2,0.6 0.2,0.8 l 0.8,0.8 c -0.1,-0.9 0,-0.9 0.1,-0.9 h 0.3 c 0.2,0.2 0.2,1.1 0.3,1.6 h 0.1 c 0.2,0.1 0.3,0.3 0.4,0.4 C 83,4.8 83,4.3 83.1,4.3 h 0.2 c 0.2,0.1 0.3,0.7 0.3,1 l 1,0.9 A 0.6,0.6 0 0 0 84.7,5.8 3.6,3.6 0 0 0 84.5,5 6.5,6.5 0 0 0 83,3.2 10.9,10.9 0 0 0 80.3,1.1 6.4,6.4 0 0 0 78.5,0.5 5,5 0 0 0 78.7,1.7 Z" />
    <path
       id="a1dc1f0d-b988-4f93-a5ed-292d528e1433"
       data-name="path92"
       class="ffe9cec8-0cd9-4946-bf24-5f5a7b948720"
       d="m 71,1.5 c 0,0.1 0.1,0.1 0.2,0.2 a 4.8,4.8 0 0 0 1.1,0.9 L 73,3 v 0 l 0.4,0.2 h 0.4 L 75.9,3 H 76 L 75.2,2.8 C 74.8,3 74,3.3 73.7,3.1 73.4,2.9 73.6,3 73.6,2.9 c 0,-0.1 0,-0.1 0.8,-0.4 L 73.3,2.1 C 73.1,2.2 72.6,2.3 72.5,2.2 L 72.3,2 c 0,-0.1 0,-0.1 0.3,-0.2 C 71.3,1 71.3,0.9 71.4,0.8 71.5,0.7 71.5,0.6 72.8,1.1 74.1,1.6 72.7,0.8 72.7,0.7 H 73 c 0.2,0 0.4,0.4 0.5,0.6 l 1.1,0.4 C 74.1,1 74.2,0.9 74.2,0.8 c 0,-0.1 0.2,-0.1 0.3,0 0.1,0.1 0.7,0.8 0.9,1.2 h 0.2 l 0.6,0.2 A 1,1 0 0 1 76.1,1.8 h 0.3 c 0.2,0 0.5,0.5 0.6,0.8 l 1.4,0.3 H 78.3 A 0.4,0.4 0 0 0 78.2,2.6 2,2 0 0 0 77.4,1.8 10,10 0 0 0 75.3,0.8 9.7,9.7 0 0 0 71.9,0 L 70,0.2 70.3,0.7 Z" />
    <path
       id="a1b1e2ef-27fa-4633-8b5a-8803f4201287"
       data-name="path94"
       class="ffe9cec8-0cd9-4946-bf24-5f5a7b948720"
       d="m 78.2,4.5 c 0.2,0 0.6,0.4 0.8,0.7 l 1,0.2 -0.9,-1.2 h -0.2 l -1,-0.3 -1.1,-0.2 a 8.8,8.8 0 0 0 -2.3,0 l -0.9,0.2 v 0 c -0.1,0 -0.2,0 -0.2,0.1 h -0.5 a 4.5,4.5 0 0 0 -1.7,1.1 8.1,8.1 0 0 0 1.8,0.8 18.7,18.7 0 0 0 3.4,0.8 h 1.1 A 8.1,8.1 0 0 1 79.7,6 h 0.1 L 78.9,5.8 C 78.6,6 78.1,6.3 77.9,6.2 A 0.2,0.2 0 0 1 77.7,6 Q 77.7,5.9 78,5.7 L 77.2,5.5 C 76.8,5.8 76,6.3 75.7,6.2 h -0.2 c 0,-0.1 0,-0.2 0.7,-0.7 H 75.1 C 74.8,5.6 74.5,5.9 74.2,5.9 L 74,5.5 74.2,5.2 H 72.8 C 72.8,5.1 72.8,5 73,5 h 1.2 C 74,4.8 74,4.7 74.1,4.7 A 0.2,0.2 0 0 1 74.3,4.5 1.8,1.8 0 0 1 75.1,5 h 1.2 C 75.6,4.4 75.6,4.3 75.7,4.2 h 0.2 c 0.4,0 1,0.7 1.4,1 h 0.8 A 0.8,0.8 0 0 1 77.9,4.8 Z" />
    <path
       id="a297467d-76ca-4c2f-9841-e449e7a5dd96"
       data-name="path96"
       class="ffe9cec8-0cd9-4946-bf24-5f5a7b948720"
       d="m 68.6,3.9 c 2,0.3 2.9,0 3.3,-0.3 L 72.2,3.3 70.9,3.1 C 70.6,3.2 70.2,3.5 70,3.4 H 69.8 L 70.1,3 h -0.8 c -0.3,0.3 -1,0.7 -1.3,0.6 -0.3,-0.1 -0.2,0 -0.2,-0.1 0,-0.1 0,-0.2 0.6,-0.6 h -1 L 66.6,3.2 C 66.5,3.2 66.5,3.1 66.4,3 66.3,2.9 66.4,2.9 66.6,2.8 66.8,2.7 65.3,2.5 65.3,2.4 65.3,2.3 65.3,2.2 66.7,2.3 66.5,2.1 66.5,2 66.5,2 h 0.2 a 1.6,1.6 0 0 1 0.7,0.4 l 1.1,0.2 C 67.9,2 67.9,1.9 68,1.8 h 0.2 c 0.3,0 0.9,0.6 1.2,0.9 h 0.7 C 70,2.6 69.9,2.4 70,2.3 h 0.2 L 70.5,2.5 70.1,2.1 69.8,1.7 69,1 A 9.6,9.6 0 0 0 65.6,1.2 L 63.9,2 a 7.8,7.8 0 0 0 1.5,1 11.7,11.7 0 0 0 3.2,0.9 z" />
    <path
       id="b7073038-e041-458b-bc7e-0505b669bdf9"
       data-name="path98"
       class="ffe9cec8-0cd9-4946-bf24-5f5a7b948720"
       d="M 82.7,6.7 H 77.6 A 1.8,1.8 0 0 0 76.9,7.2 L 78.7,8 a 14,14 0 0 0 3.5,1 11.5,11.5 0 0 0 2.6,0.3 2.7,2.7 0 0 0 1.2,0.4 L 86.3,9.4 84.9,9 C 84.5,9.2 84,9.4 83.8,9.3 H 83.6 A 0.5,0.5 0 0 1 83.9,8.9 L 83.1,8.7 C 82.6,9 81.8,9.4 81.5,9.3 h -0.2 c 0,-0.2 0,-0.2 0.8,-0.7 H 80.9 L 80,8.9 79.8,8.7 80,8.4 H 78.7 C 78.5,8.3 78.5,8.3 78.5,8.2 L 78.7,8 H 80 C 79.8,7.8 79.9,7.8 79.9,7.7 h 0.2 A 1.6,1.6 0 0 1 81,8.2 l 1.2,0.2 C 81.5,7.7 81.6,7.6 81.6,7.5 h 0.3 c 0.3,0 1,0.7 1.3,1.1 h 0.9 A 0.6,0.6 0 0 1 83.9,8.1 c 0.1,0 0.2,-0.1 0.3,0 0.1,0.1 0.6,0.4 0.8,0.7 l 1.5,0.4 C 86.5,9 86.4,8.9 86.4,8.7 L 85.8,8.2 H 85 L 84.3,8 82.7,7.6 Z" />
    <path
       id="e2bbc377-bdca-45a0-a8a3-dd76c63225e9"
       data-name="path100"
       class="ffe9cec8-0cd9-4946-bf24-5f5a7b948720"
       d="m 58.2,5.9 1,0.8 -0.3,1.2 c -0.1,0 0,0.1 0,0.1 H 59 L 60,7.2 61.1,8 h 0.1 L 60.8,6.8 61.8,6 A 0.1,0.1 0 0 0 61.9,5.9 H 60.5 L 60.1,4.7 h -0.2 l -0.4,1.2 z" />
    <path
       id="a71f3e30-38f7-4ff5-87ef-a821ddd896fb"
       data-name="path102"
       class="ffe9cec8-0cd9-4946-bf24-5f5a7b948720"
       d="m 85.7,5.3 a 2.4,2.4 0 0 0 0.2,0.8 l 0.4,0.9 0.4,0.6 v 0 l 0.8,0.9 c 0.1,0.1 0.1,0.2 0.2,0.2 a 6.2,6.2 0 0 0 2.1,1.5 2.7,2.7 0 0 0 1.2,0.3 h 0.5 l -1.1,-1 C 90,9.5 89.5,9.5 89.3,9.3 89.1,9.1 89.2,9.2 89.2,9.1 L 89.7,8.9 89.1,8.3 h -1 L 87.4,8.1 c 0,-0.1 -0.1,-0.2 0,-0.3 h 1 L 87.9,7.4 87.6,6.9 c -0.3,0 -0.8,-0.1 -0.9,-0.3 a 0.2,0.2 0 0 1 0,-0.3 H 87 L 86.7,6 A 0.4,0.4 0 0 0 86.6,5.7 L 86.4,5.3 c -0.1,-0.2 0,-0.2 0,-0.3 0,-0.1 0.1,-0.1 0.3,0.1 l 0.2,0.3 0.3,0.2 0.3,0.4 c 0,-0.3 0.1,-0.3 0.1,-0.4 h 0.3 A 2.5,2.5 0 0 1 88,6.5 c 0.1,0.2 0.3,0.3 0.4,0.4 0.1,0.1 0.3,0.3 0.4,0.4 V 6.2 a 0.1,0.1 0 0 1 0.1,-0.1 h 0.3 a 1.9,1.9 0 0 1 0.2,0.7 3.1,3.1 0 0 1 0.1,0.9 l 0.2,0.2 C 89.8,8 90,8.1 90.1,8.3 a 0.6,0.6 0 0 1 0.2,-0.5 h 0.2 a 1.8,1.8 0 0 1 0.3,1.1 L 92,9.8 V 9.3 A 2.1,2.1 0 0 0 91.6,8.2 9.3,9.3 0 0 0 90,6.4 14.4,14.4 0 0 0 87.3,4.2 L 86.8,3.9 86.3,3.6 85.6,3.3 a 1.7,1.7 0 0 0 -0.1,0.7 1.3,1.3 0 0 0 0.1,0.6 1.7,1.7 0 0 0 0.1,0.7 z" />
    <path
       id="b1933437-aeb6-4f57-ba77-97689f49c629"
       data-name="path104"
       class="ffe9cec8-0cd9-4946-bf24-5f5a7b948720"
       d="M 98.1,16.9 H 97.9 L 97.6,16.7 H 96.2 L 95.3,16.5 H 93 l -0.7,0.2 h -0.4 l -0.4,0.2 0.3,0.2 0.3,0.3 0.5,0.5 0.5,0.4 a 21.1,21.1 0 0 0 3.1,1.7 10.9,10.9 0 0 0 2.5,1 h 1.1 l -0.3,-0.9 -0.4,-0.2 c -0.3,0.1 -0.9,0.2 -1.1,0 l -0.2,-0.2 c 0,-0.2 0.2,-0.3 0.5,-0.3 l -0.8,-0.5 -1,0.3 h -0.8 a 0.4,0.4 0 0 1 -0.1,-0.3 c 0,-0.1 0,-0.2 0.9,-0.5 L 95.4,18 a 1.8,1.8 0 0 1 -1,0.1 0.3,0.3 0 0 1 -0.1,-0.2 c 0,-0.1 0,-0.2 0.3,-0.3 l -1.3,-0.5 a 0.4,0.4 0 0 1 -0.1,-0.3 c 0,-0.1 0.1,-0.1 0.3,-0.1 l 1.3,0.3 c -0.1,-0.3 -0.1,-0.3 0,-0.4 0.1,-0.1 0.2,-0.1 0.3,-0.1 a 2,2 0 0 1 0.6,0.9 l 1.2,0.5 c -0.4,-0.9 -0.4,-1 -0.3,-1.1 a 0.2,0.2 0 0 1 0.3,0 1,1 0 0 1 0.5,0.6 3,3 0 0 1 0.4,1 H 98 l 0.6,0.3 c 0,-0.3 0,-0.5 0.1,-0.5 H 99 a 2.8,2.8 0 0 1 -0.1,-0.9 h -0.8 z" />
    <path
       id="beaeea89-516c-40e6-bcf9-2b639cf853bb"
       data-name="path106"
       class="ffe9cec8-0cd9-4946-bf24-5f5a7b948720"
       d="m 99.5,16.8 v 1 c 0.1,0.6 0.3,1.2 0.4,1.7 a 0.4,0.4 0 0 1 0.1,0.3 v 0 a 0.4,0.4 0 0 1 0.1,0.3 v 0 c 0.1,0 0.1,0.1 0.1,0.2 v 0 l 0.2,0.3 v 0 0.3 l 0.2,0.3 v 0.4 a 2.1,2.1 0 0 0 0.4,0.6 h 2.4 a 8.3,8.3 0 0 1 -0.7,-1.3 l -1.4,-0.5 a 2.1,2.1 0 0 1 -1,-0.6 c 0,-0.1 0,-0.2 0.1,-0.2 h 0.8 l 1,0.4 -0.8,-1.7 c -0.5,-0.1 -1.4,-0.5 -1.5,-0.8 a 0.1,0.1 0 0 1 0,-0.2 2.2,2.2 0 0 1 1.1,0.1 7,7 0 0 1 -0.8,-2 c -0.1,-0.3 -0.1,-0.3 0,-0.3 0.1,0 0.2,-0.1 0.3,0.2 a 20.8,20.8 0 0 1 1,1.9 1.5,1.5 0 0 1 0.5,-0.9 c 0,0 0.1,0 0.2,0.2 0.1,0.2 -0.1,1.1 -0.3,1.6 a 14.6,14.6 0 0 0 0.9,1.6 4.4,4.4 0 0 0 0.2,-1 0.8,0.8 0 0 0 0.2,-0.5 c 0.1,-0.2 0.2,-0.2 0.3,-0.2 0.1,0 0.1,-0.1 0.2,0.1 a 2.3,2.3 0 0 1 -0.1,1.1 12.7,12.7 0 0 1 -0.4,1.4 l 0.8,1.3 c 0.1,-0.4 0.4,-0.8 0.6,-0.8 0.2,0 0.1,-0.1 0.2,0.1 0.1,0.2 0.1,0.3 -0.3,1.3 V 23 l 0.2,0.4 1,0.6 a 0.4,0.4 0 0 0 0.1,-0.3 2.9,2.9 0 0 0 0.1,-1.6 13.4,13.4 0 0 0 -1.2,-3 11.6,11.6 0 0 0 -2.9,-3.7 l -0.6,-0.6 -0.6,-0.4 -0.9,-0.6 -0.3,1 c -0.1,0.2 -0.1,0.5 -0.2,0.7 v 1.3 z" />
    <path
       id="b303bb43-04d1-45f1-822d-41e41a3d5e3d"
       data-name="path108"
       class="ffe9cec8-0cd9-4946-bf24-5f5a7b948720"
       d="m 106,25 v 0 l -0.3,-0.2 -0.3,-0.2 h -0.6 l -0.2,-0.2 a 9.2,9.2 0 0 0 -2.7,-0.8 h -1.4 l -0.5,0.2 h -0.4 l 1.2,1.7 a 15.4,15.4 0 0 0 2.5,2.6 7.4,7.4 0 0 0 2.1,1.3 2.7,2.7 0 0 0 1.2,0.3 h 0.1 V 29 l -0.6,-0.5 c -0.4,0 -1,0 -1.1,-0.2 -0.1,-0.2 -0.1,-0.1 -0.1,-0.2 0,-0.1 0.3,-0.2 0.5,-0.3 l -0.6,-0.5 H 103 c 0,-0.1 -0.1,-0.2 -0.1,-0.3 0,-0.1 0.1,-0.2 0.2,-0.2 l 0.9,-0.2 -0.9,-0.7 c -0.4,0.1 -0.9,0.2 -1,0 -0.1,-0.2 -0.1,-0.1 -0.1,-0.2 0,-0.1 0,-0.2 0.3,-0.3 l -0.7,-0.5 -0.3,-0.2 c -0.2,-0.1 -0.1,-0.2 -0.1,-0.3 0,-0.1 0.1,-0.2 0.3,-0.1 h 0.4 l 0.8,0.4 c -0.1,-0.3 0,-0.4 0,-0.4 h 0.3 c 0.3,0.1 0.4,0.6 0.5,0.9 l 1,0.7 A 2.8,2.8 0 0 1 104.4,25 c 0,-0.2 0,-0.2 0.1,-0.2 h 0.3 a 0.9,0.9 0 0 1 0.3,0.7 4.3,4.3 0 0 1 0.2,1.1 h 0.2 L 106,27 c 0,-0.2 0,-0.5 0.1,-0.5 a 0.2,0.2 0 0 1 0.3,0 c 0.2,0.1 0.3,0.6 0.3,0.9 a 3.6,3.6 0 0 1 0.2,-1.1 v -0.4 l -0.7,-0.7 z" />
    <path
       id="a925f9f4-4376-462e-b7d0-731549ff1abd"
       data-name="path110"
       class="ffe9cec8-0cd9-4946-bf24-5f5a7b948720"
       d="m 91.9,12.9 c 0.2,0.1 0.4,0.6 0.6,0.9 l 1.3,0.8 V 14.1 A 4.1,4.1 0 0 0 93.1,13 11.4,11.4 0 0 0 90.8,11.5 8.3,8.3 0 0 0 88.6,10.7 h -1.9 a 4.6,4.6 0 0 0 -2,0.5 l 1.5,1.4 a 17.3,17.3 0 0 0 3.2,2 9.2,9.2 0 0 0 2.3,0.9 h 0.1 l 0.7,-0.2 h 0.7 l -1,-0.7 A 2.6,2.6 0 0 1 91,14.7 v -0.2 c 0,-0.2 0.2,-0.3 0.4,-0.3 L 90.6,13.8 A 5.3,5.3 0 0 1 89,14 l -0.2,-0.3 0.9,-0.4 -1.1,-0.5 a 1.5,1.5 0 0 1 -0.9,0.1 l -0.2,-0.2 0.3,-0.3 -1.2,-0.5 v -0.2 h 0.2 A 5,5 0 0 1 88.1,12 C 88,11.7 88,11.7 88.1,11.6 h 0.2 c 0.3,0 0.5,0.5 0.7,0.8 l 1.1,0.4 c -0.4,-0.8 -0.4,-0.9 -0.3,-1 h 0.3 a 2.7,2.7 0 0 1 0.9,1.5 v 0 l 0.6,0.3 c 0,-0.3 -0.1,-0.5 0,-0.5 z" />
    <path
       id="b3b2d96a-360a-45c5-a4a9-2bedeadf9664"
       data-name="path112"
       class="ffe9cec8-0cd9-4946-bf24-5f5a7b948720"
       d="m 93.9,12.9 v 0 l 0.2,0.3 a 0.1,0.1 0 0 0 0.1,0.1 l 0.2,0.3 v 0.2 h 0.2 V 14 l 0.8,0.9 1.8,0.5 -0.6,-0.8 a 1.5,1.5 0 0 1 -1,-0.4 v -0.3 h 0.5 l -0.5,-0.7 a 5.3,5.3 0 0 1 -1.5,-0.7 v -0.3 c 0.1,-0.1 0.1,-0.2 1,0.1 l -0.6,-1 a 1.6,1.6 0 0 1 -0.8,-0.5 0.1,0.1 0 0 1 0,-0.2 h 0.4 A 3.7,3.7 0 0 1 93.6,9.5 c -0.1,-0.2 0,-0.2 0,-0.3 h 0.3 l 0.7,1.1 C 94.7,10 94.7,10 94.8,10 H 95 c 0.2,0.1 0.1,0.6 0,0.9 l 0.6,1 C 95.8,11 95.8,11 96,11 c 0.2,0 0.2,0 0.2,0.1 0,0.1 0.1,1.1 0,1.6 v 0.2 l 0.3,0.5 C 96.6,13.2 96.7,13 96.8,13 H 97 c 0.2,0.1 0.1,0.7 0.1,1 A 6.2,6.2 0 0 0 98,15.2 4.3,4.3 0 0 0 98.1,14.7 2.5,2.5 0 0 0 98,13.5 13.9,13.9 0 0 0 96.9,11.4 13.1,13.1 0 0 0 94.5,8.6 9.1,9.1 0 0 0 93.2,8 a 4.6,4.6 0 0 0 -0.1,2 9.6,9.6 0 0 0 0.8,2.9 z" />
    <path
       id="a9f5d912-f316-4588-b61b-82e2c03c36c2"
       data-name="path114"
       class="ffe9cec8-0cd9-4946-bf24-5f5a7b948720"
       d="m 111.7,66.9 a 10,10 0 0 1 1,-2.1 10.6,10.6 0 0 1 1.2,-2 V 61 c 0,-0.2 -0.1,-0.4 -0.1,-0.6 v -0.3 0 a 0.6,0.6 0 0 1 -0.1,-0.4 c -0.1,-0.2 -0.1,-0.4 -0.2,-0.6 v -0.3 0 a 0.4,0.4 0 0 0 -0.1,-0.3 10.4,10.4 0 0 0 -0.4,-1 l -0.2,-0.3 v 0 L 112.6,57 v 0 l -0.3,-0.4 -1.3,-1.3 -0.5,0.7 h -0.1 c 0,0.1 -0.1,0.2 -0.1,0.3 h -0.1 c 0,0.1 -0.1,0.2 -0.1,0.3 l -0.6,0.9 a 11.6,11.6 0 0 0 -1.2,4.5 4.1,4.1 0 0 0 -0.1,1.1 0.1,0.1 0 0 1 0.1,-0.1 l 0.2,-0.2 0.3,0.2 0.7,0.5 0.6,0.7 0.2,0.3 h 0.1 a 7.7,7.7 0 0 0 0.2,-1.5 l -1,-1.1 c -0.4,-0.4 -0.7,-0.8 -0.6,-1 0.1,-0.2 0,-0.2 0.1,-0.2 h 0.4 l 1.2,1.2 c 0,-0.4 0.1,-0.7 0.1,-1 v -0.8 a 4.6,4.6 0 0 0 -0.7,-0.7 c -0.2,-0.3 -0.4,-0.5 -0.4,-0.7 0,-0.2 0,-0.1 0.2,-0.2 l 1,0.5 c 0,-2.4 0,-2.4 0.2,-2.4 0.2,0 0.3,0 0.4,2.4 0.4,-0.2 0.8,-0.6 1,-0.5 a 0.2,0.2 0 0 1 0.2,0.2 4.3,4.3 0 0 1 -0.4,0.7 0.8,0.8 0 0 0 -0.4,0.4 l -0.4,0.3 v 0.8 a 3.4,3.4 0 0 1 -0.1,1 l 1.4,-1 c 0.2,-0.2 0.3,-0.2 0.4,-0.1 0.1,0.1 0.1,0 0.1,0.2 a 2.2,2.2 0 0 1 -0.7,1 l -1.2,0.9 c -0.1,0.5 -0.1,1 -0.2,1.5 -0.1,0.5 0.9,-0.4 1.1,-0.3 0.2,0.1 0.2,0 0.2,0.3 0,0.3 -0.1,0.3 -1.2,0.9 h -0.2 a 3.6,3.6 0 0 1 0.4,0.9 l 0.2,0.3 z" />
    <path
       id="bfa7325d-0414-4352-8b5a-3f6b71f9a41f"
       data-name="path116"
       class="ffe9cec8-0cd9-4946-bf24-5f5a7b948720"
       d="M 6.5,73.3 7,73.5 7.7,73.7 A 1.5,1.5 0 0 0 7.4,73.1 1.5,1.5 0 0 1 6.5,73.3 Z" />
    <path
       id="b0835b60-b3a8-470b-8cc3-6dc7fe568008"
       data-name="path118"
       class="ffe9cec8-0cd9-4946-bf24-5f5a7b948720"
       d="m 4,71.1 a 4.2,4.2 0 0 0 1.8,1.1 H 6.9 A 16,16 0 0 1 5.8,70.3 H 5.6 C 4.3,70 4.1,69.9 4,69.7 3.9,69.5 4.1,69.4 4.1,69.4 c 0,0 0.7,-0.1 1.2,-0.1 L 4.4,67.7 A 8,8 0 0 1 1.6,66.3 C 1.5,66 1.8,65.9 2,66 a 6.4,6.4 0 0 1 1.8,0.6 l -1,-2.1 C 2.3,64.4 1.1,63.9 1,63.6 0.9,63.3 1.1,63.3 1.1,63.3 c 0,0 0.7,0 1.2,0.1 A 25.6,25.6 0 0 1 1.2,61 c -0.1,-0.4 0,-0.4 0.1,-0.4 0.1,0 0.1,-0.1 0.3,0.2 A 18.8,18.8 0 0 1 2.8,63 C 3,62.6 3.3,62 3.5,62 a 0.2,0.2 0 0 1 0.2,0.2 c 0.2,0.2 -0.1,1.4 -0.3,1.9 a 13.6,13.6 0 0 0 1.1,2 12.1,12.1 0 0 1 0.5,-1.8 c 0.1,-0.2 0,-0.2 0.3,-0.2 0.3,0 0.2,0.1 0.2,0.1 0,0 -0.2,2.3 -0.4,3 -0.2,0.7 0.6,1.1 0.8,1.6 0.2,0.5 0.5,-0.9 0.7,-0.9 0.2,0 0.3,0 0.3,0.1 0,0.1 0.1,0.4 -0.3,1.6 v 0.2 l 1.1,1.9 H 7.8 A 9.8,9.8 0 0 1 8,68.2 v 0 C 8,68.1 7.9,68 7.9,67.9 v 0 A 0.8,0.8 0 0 1 7.8,67.5 v 0 L 7.4,66.6 C 7.2,66.2 7,65.7 6.7,65.2 L 6.5,64.9 v 0 A 14,14 0 0 0 5.5,63.3 16,16 0 0 0 3,60.5 2.7,2.7 0 0 0 2.2,59.8 l -0.7,-0.5 -1,-0.6 a 2.4,2.4 0 0 0 -0.3,1.2 6.5,6.5 0 0 0 -0.2,2 13.4,13.4 0 0 0 1.7,5.9 15,15 0 0 0 2.3,3.3 z" />
    <path
       id="a8f2e4ea-8840-4d6b-b92b-20d56911db6e"
       data-name="path120"
       class="ffe9cec8-0cd9-4946-bf24-5f5a7b948720"
       d="M 11.2,82.8 9.7,81.3 v 0 L 7.9,81.5 H 6.4 C 6.2,81.5 6.2,81.4 6.1,81.3 V 81 C 6.2,80.9 6.2,80.8 6.6,80.8 H 7.4 L 8.9,80.6 7.2,78.7 H 6 C 5.6,78.6 5.2,78.6 5.1,78.4 v -0.3 h 1.5 a 14.3,14.3 0 0 1 -1.4,-2 C 5,75.7 5.1,75.7 5.2,75.6 5.3,75.5 5.4,75.5 5.6,75.8 a 11.5,11.5 0 0 1 1.6,1.8 5.6,5.6 0 0 1 0.4,-1.2 c 0.1,-0.2 0,-0.1 0.2,-0.2 H 8 a 2,2 0 0 1 0.1,0.9 C 8,77.5 8,78 7.9,78.3 7.8,78.6 8.9,79.4 9.6,80 A 10.4,10.4 0 0 0 9.8,78.5 C 9.9,78.3 9.9,78 10,77.8 c 0.1,-0.2 0.2,-0.4 0.2,-0.5 h 0.3 c 0,0.1 0.1,0.1 0.1,0.3 V 79 c -0.1,0.6 -0.1,1.2 -0.2,1.7 v 0 l 1.4,1.3 0.3,-0.5 a 2.1,2.1 0 0 1 0.3,-1.1 0.2,0.2 0 0 1 0.3,0 v 0 l 0.4,-0.7 0.3,-0.5 H 13.3 L 13.1,79 v 0 C 13.1,78.9 13,78.9 13,78.8 H 12.9 V 78.6 H 12.8 V 78.4 H 12.7 V 78.2 H 12.6 L 12.4,78 H 12 A 13.7,13.7 0 0 0 9.7,76.3 H 9.6 L 9.3,76.1 H 9 L 8.7,75.9 H 8.4 L 7.3,75.4 5.3,74.8 4.6,74.6 H 4.1 l -0.2,0.5 c 0,0.3 -0.1,0.6 -0.1,0.8 a 5.5,5.5 0 0 0 -0.1,2.2 9.8,9.8 0 0 0 0.9,2.9 10.2,10.2 0 0 0 2.1,3 8.7,8.7 0 0 0 3.5,2.3 l 0.4,0.2 A 4.8,4.8 0 0 1 11,84.7 c -0.7,0 -1.3,0.1 -1.5,-0.1 v -0.3 c 0.1,-0.2 1,-0.4 1.7,-0.6 z" />
    <path
       id="a5b08db0-07a2-40a9-aa75-167f0a4bbd1b"
       data-name="path122"
       class="ffe9cec8-0cd9-4946-bf24-5f5a7b948720"
       d="m 13.5,85.9 0.2,-0.3 v 0 -0.2 h 0.1 c 0,-0.1 0.1,-0.2 0.1,-0.3 H 14 v -0.3 h 0.1 v -0.3 0 l 0.2,-0.3 v 0 l 0.2,-0.3 v 0 l 0.2,-0.3 c 1.5,-2.7 3.1,-5.5 2.1,-7.7 l -0.6,-2 c 0,0.2 0,0.3 -0.1,0.4 v 0 A 0.4,0.4 0 0 1 16,74.6 v 0 a 0.4,0.4 0 0 1 -0.1,0.3 v 0 0.1 0 a 0.4,0.4 0 0 0 -0.1,0.3 h -0.1 v 0.3 h -0.1 v 0.9 h -0.1 v 0.2 h -0.1 a 21.5,21.5 0 0 1 -1.4,2.6 10.9,10.9 0 0 0 -0.8,1.5 4.1,4.1 0 0 0 -0.5,0.9 v 0 l -0.2,0.2 v 0 l -0.4,1.2 a 4.6,4.6 0 0 0 -0.5,2 v 0 0.2 0 a 4.3,4.3 0 0 0 0.1,0.5 v 0 0.2 h 0.1 l 1.1,1.6 v 0 -0.3 0 -0.2 0 C 12.9,87 13,86.9 13,86.8 v 0 -0.2 0 c 0,0 0,-0.2 0.1,-0.2 v 0 -0.3 0 a 0.3,0.3 0 0 0 0.1,-0.2 v 0 l 0.2,-0.3 z" />
    <path
       id="b88b8996-0741-4145-959b-78cfbd6dfb4e"
       data-name="path124"
       class="ffe9cec8-0cd9-4946-bf24-5f5a7b948720"
       d="m 13.7,77.3 a 2.4,2.4 0 0 0 0.9,-0.6 v 0 a 10.2,10.2 0 0 0 1.1,-2.9 12.4,12.4 0 0 0 -2.1,-7.5 l -1.3,-1.5 -0.5,-0.5 v 0 L 11.5,64 11.1,64.3 10.6,64.9 10.1,65.6 9.8,66 v 0.3 0 l -0.2,0.3 c 0,0.1 -0.1,0.2 -0.1,0.3 H 9.3 v 0.3 c 0,0.1 0,0.1 -0.1,0.2 A 2.5,2.5 0 0 1 9,68.1 v 0 0.2 c -0.1,0.1 0,0.1 0,0.1 a 2.4,2.4 0 0 0 -0.2,0.8 v 0 0.3 0 a 4.9,4.9 0 0 0 -0.1,1.2 v 0 0.4 0 a 3.8,3.8 0 0 0 0.1,1 v 0 a 14.2,14.2 0 0 0 0.4,2 l 0.6,0.3 a 12,12 0 0 1 2.6,1.8 2.5,2.5 0 0 0 -0.1,-0.8 c -0.7,-0.3 -1.8,-1 -1.8,-1.3 0,-0.3 0,-0.2 0.1,-0.2 a 3.4,3.4 0 0 1 1.6,0.5 l -0.3,-1.9 v 0 l -1.4,-0.9 c -1.2,-0.8 -1.1,-1 -1.1,-1.1 0,-0.1 0,-0.1 0.1,-0.2 H 10 l 1.8,1.1 C 11.7,71 11.7,70.5 11.6,70.2 a 3.7,3.7 0 0 0 -0.1,-1.1 l -0.9,-0.7 a 1.2,1.2 0 0 1 -0.5,-0.6 l 0.2,-0.2 c 0,0 0.2,-0.1 1.2,0.6 1,0.7 -0.1,-1.1 -0.1,-1.5 a 2.5,2.5 0 0 1 0.1,-0.8 c 0,-0.3 0.1,-0.3 0.2,-0.3 0.1,0 0.2,0 0.3,0.3 a 2.5,2.5 0 0 0 0.1,0.8 11.5,11.5 0 0 0 0.2,1.4 c 0.8,-0.8 0.9,-0.8 1.1,-0.7 h 0.1 c 0.1,0.1 -0.1,0.4 -0.4,0.7 l -0.7,0.8 c 0,0.3 0.1,0.7 0.1,1.1 0,0.4 0.1,0.8 0.2,1.2 l 1.5,-1.5 0.4,-0.2 0.2,0.2 c 0,0.1 0.1,0.2 -0.8,1.3 l -1.1,1.2 v 0 l 0.3,1.9 a 4,4 0 0 1 1.3,-1 h 0.2 c 0.1,0.3 -0.8,1.3 -1.3,1.9 a 8,8 0 0 0 0.4,1.8 z" />
    <path
       id="e6d03d94-6b62-45e1-8136-2e0c1ded9f1e"
       data-name="path126"
       class="ffe9cec8-0cd9-4946-bf24-5f5a7b948720"
       d="m 7.1,35.7 0.3,0.4 c 0.2,-0.5 0.5,-1 0.8,-1.6 H 8.1 C 7.7,33.5 7.7,33.3 7.8,33.1 H 8 c 0.2,0 0.4,0.4 0.6,0.8 L 9.2,32.5 A 12.7,12.7 0 0 1 8.8,31.1 2.2,2.2 0 0 1 8.7,30 h 0.2 l 0.2,0.2 0.6,1.4 c 0.2,-0.7 0.5,-1.2 0.6,-1.7 0.1,-0.5 -0.5,-1.3 -0.4,-1.6 0.1,-0.3 0.6,0.2 0.8,0.6 l 0.7,-2 c 0.1,-0.3 0.2,-0.3 0.3,-0.3 0.1,0 0.1,0 0,0.4 a 16,16 0 0 1 -0.5,2.1 c 0.3,-0.2 0.8,-0.4 0.9,-0.3 a 0.4,0.4 0 0 1 0.1,0.3 c -0.1,0.3 -1,0.8 -1.3,1 -0.3,0.2 -0.5,1.1 -0.7,1.7 l 1.4,-0.6 h 0.3 v 0.2 c 0,0.2 -0.4,0.5 -0.9,0.8 l -1.2,0.6 a 6.1,6.1 0 0 1 -0.7,1.4 c 0.4,-0.1 0.9,-0.2 1,0 0.1,0.2 0.1,0.1 0.1,0.2 0,0.1 -0.3,0.3 -1.3,0.6 H 8.7 C 8.5,35.6 8.2,36.1 8,36.6 h 0.2 l 0.9,-1.2 a 4.6,4.6 0 0 0 0.7,-0.7 l 0.3,-0.3 0.4,-0.3 1.1,-0.7 0.4,-0.8 a 16.6,16.6 0 0 0 0.6,-2.1 v -0.4 0 -0.2 0 -0.2 0 -2.5 C 12.5,27 12.5,26.7 12.4,26.5 v -0.2 0 -0.3 0 -0.2 h -0.1 a 1,1 0 0 0 -0.1,-0.3 c 0,-0.1 -0.1,-0.2 -0.1,-0.3 l -0.2,-0.3 -0.7,0.7 -1.1,1.1 a 24.4,24.4 0 0 0 -2.4,4.1 12.1,12.1 0 0 0 -0.9,3.1 3.8,3.8 0 0 0 0,1.5 c 0,0.2 0.1,0.3 0.2,0.5 z" />
    <path
       id="ad7718c4-f720-478c-a660-c9aa9d03a3f1"
       data-name="path128"
       class="ffe9cec8-0cd9-4946-bf24-5f5a7b948720"
       d="M 7.9,47.5 H 7.8 v 0.2 H 7.5 L 7.3,48 7.1,48.2 v 0.2 H 6.9 v 0.2 H 6.7 a 0.3,0.3 0 0 0 -0.1,0.2 l -0.3,0.7 -0.2,0.4 v 0 C 6,50 6,50.2 5.9,50.3 5.8,50.4 5.8,50.6 5.8,50.7 A 8.7,8.7 0 0 0 5.4,55 v 0 c 0,0.1 0.1,0.2 0.1,0.3 v 0 c 0,0.1 0,0.1 0.1,0.2 v 0 c 0,0.2 0,0.3 0.1,0.4 a 2.2,2.2 0 0 0 0.5,0.8 L 6.6,57 7,56.4 h 0.1 c 0,-0.3 0.1,-0.7 0.1,-1 H 7.1 L 6.3,54.5 c -0.1,-0.2 -0.1,-0.3 0,-0.4 0.1,-0.1 0.2,-0.2 0.2,-0.2 0,0 0.2,0 0.4,0.2 v 0 l 0.5,0.4 V 54.1 L 7.7,52.9 A 6.1,6.1 0 0 1 7,51.3 C 6.8,50.8 6.6,50.2 6.8,50 7,49.8 7,49.9 7,49.9 c 0,0 0.2,0 0.3,0.2 0.1,0.2 0.1,0.3 0.2,0.5 a 9.3,9.3 0 0 1 0.5,1 l 0.7,-1.8 -0.3,-1 a 1.1,1.1 0 0 1 0,-0.8 0.4,0.4 0 0 1 0.3,-0.2 c 0.2,0.1 0.3,0.6 0.5,1 l 0.8,-1.3 0.3,-0.3 c 0.1,-0.1 0.2,-0.2 0.2,-0.3 0,-0.1 0.3,-0.2 0.4,-0.1 0.1,0.1 0.1,0.1 0,0.4 l -0.2,0.2 -0.2,0.4 a 5,5 0 0 0 -0.7,1.3 c 0.4,-0.1 0.9,-0.2 1,0 0.1,0.2 0.1,0.2 0.1,0.2 0,0 -0.3,0.3 -0.7,0.4 l -0.9,0.4 -0.6,1.8 0.9,-0.5 0.6,-0.2 h 0.3 c 0.1,0 0.1,0.1 0.1,0.2 0,0.1 -0.4,0.4 -0.9,0.7 L 8.4,52.8 8.1,54.4 C 8.5,54.2 9,54 9.2,54.1 c 0.2,0.1 0.1,0.2 0.1,0.4 v 0 A 1.2,1.2 0 0 1 9.8,55 h 0.1 a 11.4,11.4 0 0 0 0.9,-2.6 12.9,12.9 0 0 0 0.6,-2.5 l 0.3,-2 A 21.2,21.2 0 0 0 12,45.2 l -1.1,0.2 h -0.8 l -0.4,0.3 -0.5,0.2 -1.1,0.9 z" />
    <path
       id="f252f897-cc8e-4d54-a8aa-ded53ed4f5af"
       data-name="path130"
       class="ffe9cec8-0cd9-4946-bf24-5f5a7b948720"
       d="m 3.7,46.3 v 0 L 5.2,48 c 0,-0.5 0.1,-1.1 0.1,-1.7 H 5.2 c -0.8,-0.9 -0.9,-1 -0.9,-1.2 0,-0.2 0.1,-0.3 0.1,-0.3 a 2.2,2.2 0 0 1 1,0.6 V 43.5 L 5,43 A 1.8,1.8 0 0 1 4.5,42.3 1.8,1.8 0 0 1 3.9,41.3 0.4,0.4 0 0 1 4,41 h 0.4 l 1.1,1.3 v -2 C 5.1,39.9 4.4,39.1 4.4,38.8 c 0,-0.3 0.1,-0.2 0.1,-0.2 0,0 0.6,0.2 0.9,0.5 v -2.4 c 0,-0.4 0,-0.4 0.1,-0.4 0.1,0 0.2,0 0.2,0.4 0,0.4 0.1,0.4 0.2,0.8 A 10.4,10.4 0 0 0 6,39.1 C 6.3,38.8 6.6,38.4 6.8,38.5 A 0.2,0.2 0 0 1 7,38.7 5.9,5.9 0 0 1 6,40.3 c 0,0.6 0.1,1.3 0.1,2.1 L 7.2,41.1 C 7.4,41 7.4,40.9 7.5,41 a 0.4,0.4 0 0 1 0.1,0.3 c 0.1,0.2 -0.2,0.6 -0.5,1.1 L 6.5,43.1 6.1,43.6 A 2.8,2.8 0 0 1 6,44.5 v 0.8 a 3.1,3.1 0 0 1 1,-0.5 c 0,0 0.1,0 0.1,0.3 0,0.3 -0.1,0.4 -1,1.1 v 0.2 A 14.1,14.1 0 0 0 6,48.4 L 6.5,48.2 C 6.6,48.1 6.7,48 6.7,47.9 a 0.8,0.8 0 0 1 0.4,-0.4 c 0,-0.1 0.1,-0.1 0.1,-0.2 L 7.4,47.1 H 7.5 A 1.4,1.4 0 0 0 7.7,46.5 10.3,10.3 0 0 0 8,45 C 8.1,44.3 8.1,43.7 8.2,43.1 V 42.6 A 15,15 0 0 0 7.7,38.9 l -0.3,-1 A 0.3,0.3 0 0 0 7.3,37.7 0.8,0.8 0 0 0 7.1,37.3 v 0 C 7.1,37.1 7,37 7,36.9 A 4.1,4.1 0 0 1 6.5,36 V 35.8 H 6 L 5.3,35 A 4.6,4.6 0 0 0 4.8,36 C 4.6,36.2 4.6,36.5 4.4,36.8 A 4.6,4.6 0 0 0 4.1,37.7 18.9,18.9 0 0 0 3.3,43 11.6,11.6 0 0 0 3.6,46.7 Z" />
    <path
       id="a9dcf7d6-9470-4bcf-899a-7947b5f2e421"
       data-name="path132"
       class="ffe9cec8-0cd9-4946-bf24-5f5a7b948720"
       d="m 10.7,41.3 -1,0.3 H 9.5 a 16.2,16.2 0 0 1 -0.6,1.7 h 0.9 a 4.5,4.5 0 0 0 1.3,-1.1 10,10 0 0 0 1.6,-2.4 16.3,16.3 0 0 0 1.1,-2.3 c 0.2,-0.7 0.5,-1.3 0.6,-1.9 a 11.1,11.1 0 0 0 0.5,-2.5 h -1 l -0.8,0.2 c -0.3,0 -0.5,0.2 -0.8,0.3 L 12,33.8 H 11.7 L 11.5,34 h -0.3 l -0.3,0.2 -0.6,0.5 -1.1,1.5 -0.2,0.2 v 0 c -0.1,0.1 -0.1,0.1 -0.1,0.2 l -0.2,0.2 v 0 l -0.2,0.3 v 0 c -0.2,0.2 -0.2,0.4 -0.3,0.6 -0.1,0.2 0.1,0.3 0.1,0.5 a 2.9,2.9 0 0 1 0.2,0.9 v 0.4 a 1.6,1.6 0 0 1 0.6,0.8 C 9.3,39.8 9.6,39.4 9.8,38.9 A 5.7,5.7 0 0 1 9.4,37.5 c 0,-0.5 -0.1,-1 0.1,-1.2 h 0.2 c 0.1,0 0.2,0 0.2,0.3 0,0.3 0.1,0.3 0.2,0.5 a 5.8,5.8 0 0 0 0.2,1 l 1,-1.6 a 2.8,2.8 0 0 1 -0.1,-0.9 1.7,1.7 0 0 1 0.1,-0.8 h 0.3 a 4.1,4.1 0 0 1 0.3,1 11.4,11.4 0 0 1 1.5,-1.6 c 0.2,-0.2 0.3,-0.2 0.3,-0.1 0,0.1 0.1,0.1 -0.1,0.3 a 14.9,14.9 0 0 1 -1.2,1.7 h 1 c 0.1,0.2 0,0.3 0,0.3 l -0.7,0.3 -0.9,0.2 -1,1.5 1,-0.2 h 0.5 c 0.3,0 0.3,-0.1 0.4,0.1 v 0.2 c -0.1,0.2 -0.5,0.3 -1,0.5 l -1.3,0.4 a 8.4,8.4 0 0 0 -0.6,1.4 c 0.3,-0.1 0.8,-0.2 1,0 a 0.1,0.1 0 0 1 0,0.2 c 0,0.1 0,0.2 -0.2,0.3 z" />
    <path
       id="abfc1231-b45e-454b-978a-eddb8a3e6cf6"
       data-name="path134"
       class="ffe9cec8-0cd9-4946-bf24-5f5a7b948720"
       d="m 15.1,89.8 c 0.1,0 0.1,-0.1 0.1,-0.2 h 0.1 v -0.2 h 0.1 V 89 89 l 0.2,-0.3 v 0 a 0.3,0.3 0 0 0 0.1,-0.2 h 0.1 c 0,-0.1 0.1,-0.1 0.1,-0.2 v 0 l 0.2,-0.2 v 0 l 0.2,-0.3 v 0 l 0.2,-0.3 v 0 l 0.2,-0.3 v 0 l 0.2,-0.3 c 1.5,-2.5 3,-5 2,-6.9 L 18,78 v 0 0.2 0 0.3 c 0,0.1 0,0.1 -0.1,0.1 v 0.3 0 a 0.4,0.4 0 0 0 -0.1,0.3 v 0 a 0.6,0.6 0 0 0 -0.1,0.4 h -0.1 v 0.3 0 0.1 h -0.1 v 0.3 0 l -0.2,0.3 v 0 c 0,0.1 -0.1,0.2 -0.1,0.3 h -0.1 v 0.3 0 l -0.2,0.4 h -0.1 v 0.3 h -0.1 v 0.3 H 16 c 0,0.1 -0.1,0.2 -0.1,0.3 h -0.1 l -0.2,0.3 -0.2,0.4 v 0 0.2 h -0.1 v 0.2 0 0.2 0 0.2 0 c -1.1,2 -1.8,3.8 -1.1,5.1 h 0.1 l 0.9,1.2 v 0 A 0.4,0.4 0 0 1 15.3,90 v 0 -0.2 0 -0.2 0 c 0.1,-0.1 0.1,-0.1 0.1,-0.2 v 0 -0.4 z" />
    <path
       id="b9048d61-576d-40bf-9063-6026f5a98e0b"
       data-name="path136"
       class="ffe9cec8-0cd9-4946-bf24-5f5a7b948720"
       d="m 6.2,62.8 1.2,2 a 20,20 0 0 1 1,2.1 A 0.4,0.4 0 0 0 8.5,66.6 5.6,5.6 0 0 1 9,65.8 H 8.8 C 7.7,65.2 7.6,65.1 7.6,64.9 7.6,64.7 7.7,64.7 7.7,64.7 A 1.7,1.7 0 0 1 8.8,65 c 0,-0.5 -0.1,-1 -0.1,-1.5 l -1.2,-1 c -0.4,-0.4 -0.8,-0.8 -0.8,-1 0,-0.2 0.2,-0.2 0.2,-0.2 0,0 0.2,-0.1 0.4,0.1 l 1.3,1 v -2 L 8.2,60.1 7.8,59.7 A 2.1,2.1 0 0 1 7.4,59.1 c -0.1,-0.2 0.2,-0.2 0.2,-0.2 0,0 0.6,0.2 0.9,0.5 0.1,-2.5 0.2,-2.5 0.4,-2.5 0.2,0 0.2,0.1 0.3,2.5 0.3,-0.3 0.8,-0.6 1,-0.5 0.2,0.1 0.1,0.2 0.1,0.2 0,0 -0.1,0.3 -0.4,0.6 l -0.7,0.7 c 0,0.3 0.1,0.5 0.1,0.8 v 1 a 6.9,6.9 0 0 1 1.3,-1.1 c 0.2,-0.2 0.1,-0.2 0.3,-0.1 0.2,0.1 0.2,0.1 0.2,0.1 a 2.8,2.8 0 0 1 -0.6,1 l -1.1,1.1 c 0.1,0.5 0.1,1 0.2,1.5 h 0.1 l 0.2,-0.2 a 4.6,4.6 0 0 1 0.7,-0.7 l 0.7,-0.6 h 0.5 v -1 A 12.2,12.2 0 0 0 10.5,57.6 4.1,4.1 0 0 1 10,56.7 L 9.8,56.4 v 0 L 9.6,56.2 V 56 L 9,55.4 A 5.7,5.7 0 0 0 7.9,56.5 L 7.5,57 v 0 0.2 H 7.3 v 0.2 a 9.3,9.3 0 0 1 -0.5,1 c 0,0.1 -0.1,0.2 -0.1,0.3 v 0 0.3 A 4.3,4.3 0 0 0 6.6,59.5 0.9,0.9 0 0 0 6.5,60 v 0 0.9 a 3.8,3.8 0 0 0 0,1.5 v 0.2 z" />
    <path
       id="b830eb65-ad85-40fa-bac5-9a851854ec87"
       data-name="path138"
       class="ffe9cec8-0cd9-4946-bf24-5f5a7b948720"
       d="m 2.8,57.1 a 4.1,4.1 0 0 0 1.4,1.2 1.4,1.4 0 0 0 0.9,0.3 C 4.9,58 4.8,57.4 4.6,56.7 H 4.4 C 3.3,56.2 3.2,56.1 3.2,55.8 c 0,-0.3 0.1,-0.2 0.1,-0.2 0,0 0.7,0 1,0.2 A 9.4,9.4 0 0 0 3.9,54.2 L 2.6,53.4 C 2.1,53.1 1.7,52.8 1.7,52.5 1.7,52.2 1.8,52.3 1.8,52.3 1.8,52.3 2,52 3.6,53 3.4,52.2 3.2,51.6 3.1,51 A 4.8,4.8 0 0 1 1.6,50 c -0.1,-0.3 0.1,-0.3 0.1,-0.3 0,0 0.6,0.1 1,0.3 A 12.4,12.4 0 0 1 2.1,47.7 c -0.1,-0.3 0,-0.3 0.1,-0.4 0.1,-0.1 0.1,0 0.3,0.3 a 14.3,14.3 0 0 1 0.8,2.2 C 3.5,49.4 3.8,49 4,49 c 0.2,0 0.2,0 0.2,0.1 0,0.1 -0.3,1.3 -0.5,1.8 A 10.1,10.1 0 0 0 4.3,52.8 8.3,8.3 0 0 1 5,51.4 0.8,0.8 0 0 0 5.1,51 C 5.2,50.6 5.4,50.2 5.5,49.9 A 2.2,2.2 0 0 0 5,49.1 v 0 A 0.8,0.8 0 0 0 4.8,48.7 v 0 L 4.3,48.1 v 0 L 4.1,47.9 H 4 C 4,47.8 3.9,47.8 3.8,47.7 L 3.6,47.5 H 3.4 v -0.2 0 L 3.2,47.1 2.6,46.6 1.7,46.1 a 4.2,4.2 0 0 0 -0.4,1 l -0.4,1.4 a 15.7,15.7 0 0 0 0.6,5.3 15.1,15.1 0 0 0 1.3,3.3 z" />
    <path
       id="ae0b9b3d-da5c-49f1-82a8-298c7edcd09d"
       data-name="path140"
       class="ffe9cec8-0cd9-4946-bf24-5f5a7b948720"
       d="m 107.8,82.5 v 0 a 0.4,0.4 0 0 0 -0.1,-0.3 v 0 a 4.1,4.1 0 0 0 -0.5,-0.9 10.9,10.9 0 0 0 -0.8,-1.5 21.5,21.5 0 0 1 -1.4,-2.6 h -0.1 c 0,-0.1 -0.1,-0.2 -0.1,-0.3 h -0.1 v -0.2 c 0,-0.1 -0.1,-0.2 -0.1,-0.3 0,-0.1 -0.1,-0.1 -0.1,-0.2 V 76 76 a 0.4,0.4 0 0 1 -0.1,-0.3 h -0.1 c 0,-0.1 -0.1,-0.2 -0.1,-0.3 v 0 -0.3 0 a 0.4,0.4 0 0 1 -0.1,-0.3 H 104 v -0.3 0 a 0.4,0.4 0 0 1 -0.1,-0.3 l -0.6,1.9 c -1,2.2 0.6,5 2.1,7.7 v 0.4 h 0.1 v 0.2 a 0.1,0.1 0 0 1 0.1,0.1 l 0.2,0.3 v 0 0.2 h 0.1 v 0.3 h 0.1 v 0.3 0 l 0.2,0.3 v 0 0.1 0 l 0.2,0.3 v 0 0.2 0 a 0.4,0.4 0 0 1 0.1,0.3 v 0 a 0.4,0.4 0 0 1 0.1,0.3 v 0 0.3 0 a 0.4,0.4 0 0 0 0.1,0.3 v 0 0.2 0 0.2 0 l 1.1,-1.6 h 0.1 a 1.4,1.4 0 0 0 0.2,-0.6 h 0.1 a 5.4,5.4 0 0 0 -0.5,-2.1 3.6,3.6 0 0 0 -0.4,-1.1 z" />
    <path
       id="e35ed2ab-4261-4fbd-bd6d-940bfcb9cb58"
       data-name="path142"
       class="ffe9cec8-0cd9-4946-bf24-5f5a7b948720"
       d="m 116.1,74.2 a 0.8,0.8 0 0 0 -0.2,-0.5 h -1.2 l -1.9,0.7 -1.1,0.4 -0.3,0.2 h -0.3 l -0.3,0.2 h -0.1 l -0.3,0.2 h -0.1 a 9.6,9.6 0 0 0 -2.2,1.8 H 108 l -0.3,0.2 h -0.6 l -0.2,0.2 v 0 0.2 h -0.1 l 0.3,0.4 c 0.1,0.3 0.3,0.5 0.4,0.8 v 0 a 0.2,0.2 0 0 1 0.3,0 3,3 0 0 1 0.3,1.1 l 0.3,0.4 1.4,-1.2 v 0 a 8.8,8.8 0 0 1 -0.2,-1.7 6.6,6.6 0 0 1 -0.1,-1.4 c 0.1,-0.2 0.1,-0.3 0.2,-0.3 h 0.2 a 0.7,0.7 0 0 1 0.3,0.4 c 0,0.3 0.1,0.5 0.1,0.8 a 5.4,5.4 0 0 1 0.2,1.5 l 1.8,-1.8 a 4.3,4.3 0 0 1 -0.2,-1.2 c -0.1,-0.4 -0.1,-0.7 0,-0.8 h 0.3 c 0.1,0.1 0.1,0 0.2,0.2 l 0.3,1.1 1.6,-1.8 c 0.3,-0.2 0.3,-0.2 0.4,-0.1 0.1,0.1 0.2,0.1 0.1,0.4 a 15.3,15.3 0 0 1 -1.4,2.1 h 1.4 a 0.2,0.2 0 0 1 0,0.3 l -0.8,0.2 a 2.9,2.9 0 0 1 -1.3,0 23.1,23.1 0 0 1 -1.6,1.9 h 2.3 l 0.4,0.2 a 0.2,0.2 0 0 1 0,0.3 l -0.3,0.2 h -1.4 l -1.8,-0.2 v 0 l -1.5,1.5 c 0.7,0.1 1.6,0.3 1.7,0.6 0.1,0.3 0,0.2 -0.1,0.2 -0.1,0 -0.7,0.2 -1.4,0.1 a 5.7,5.7 0 0 1 0.3,1.8 h 0.4 a 10.1,10.1 0 0 0 3.6,-2.4 12.5,12.5 0 0 0 2.1,-3 9,9 0 0 0 0.8,-2.8 8.9,8.9 0 0 0 0,-2.3 1.9,1.9 0 0 0 -0.2,-0.7 z" />
    <path
       id="b2757fd4-da95-467b-88c0-4feb939c81a1"
       data-name="path144"
       class="ffe9cec8-0cd9-4946-bf24-5f5a7b948720"
       d="m 119.9,59.9 -0.3,-1.3 -1.1,0.7 -0.7,0.5 -0.8,0.7 a 19.5,19.5 0 0 0 -2.4,2.6 l -1.1,1.7 v 0 l -0.2,0.3 -0.7,1.4 -0.3,0.9 v 0 l -0.2,0.4 v 0 a 0.4,0.4 0 0 1 -0.1,0.3 h 0.1 a 19.5,19.5 0 0 1 0.3,3.4 0.1,0.1 0 0 0 0.1,0.1 l 1,-1.9 V 69.5 C 113,68.3 113,68.1 113.1,67.9 l 0.3,-0.2 a 2.9,2.9 0 0 1 0.7,1 l 0.9,-1.6 c -0.2,-0.7 -0.8,-2.6 -0.5,-3 0.3,-0.4 0,-0.2 0.3,-0.1 0.3,0.1 0.1,0 0.2,0.2 a 12.7,12.7 0 0 1 0.6,1.8 c 0.4,-0.7 0.7,-1.4 1,-2 0.3,-0.6 -0.5,-1.7 -0.3,-2 h 0.3 c 0.2,0 0.4,0.6 0.6,1 l 1.2,-2.3 c 0.2,-0.3 0.3,-0.3 0.3,-0.3 0,0 0.2,0.1 0.1,0.5 a 24.4,24.4 0 0 1 -1,2.4 c 0.4,-0.1 1,-0.3 1.2,-0.1 0.2,0.2 0.1,0 0,0.3 a 5.9,5.9 0 0 1 -1.8,0.9 l -1,2 1.8,-0.6 c 0.3,0 0.6,0.1 0.4,0.4 a 10.3,10.3 0 0 1 -2.8,1.4 l -0.8,1.6 a 1.6,1.6 0 0 1 1.2,0.1 c 0,0 0.1,0 0,0.3 -0.1,0.3 -0.3,0.3 -1.6,0.6 h -0.2 l -1,1.9 h 1 a 4.2,4.2 0 0 0 1.8,-1.1 10.4,10.4 0 0 0 2.3,-3.3 13.8,13.8 0 0 0 1.7,-5.9 12.7,12.7 0 0 0 -0.1,-2 z" />
    <path
       id="fcbf9b78-e7df-41b3-ae80-ed3481668f3d"
       data-name="path146"
       class="ffe9cec8-0cd9-4946-bf24-5f5a7b948720"
       d="m 105.2,84.9 c 0,-0.1 0,-0.2 -0.1,-0.2 v 0 -0.2 0 -0.2 H 105 v -0.2 0 a 0.8,0.8 0 0 1 -0.2,-0.4 l -0.2,-0.4 h -0.1 V 83.1 H 104 v -0.4 h -0.1 V 82 h -0.1 l -0.2,-0.4 v 0 -0.3 a 0.1,0.1 0 0 0 -0.1,-0.1 c 0,-0.1 -0.1,-0.2 -0.1,-0.3 v 0 c -0.1,-0.1 -0.1,-0.3 -0.2,-0.4 v 0 c -0.1,0 -0.1,-0.1 -0.1,-0.2 H 103 c 0,-0.1 -0.1,-0.2 -0.1,-0.4 v 0 a 0.4,0.4 0 0 1 -0.1,-0.3 h -0.1 a 0.4,0.4 0 0 0 -0.1,-0.3 v 0 a 0.8,0.8 0 0 0 -0.1,-0.4 v 0 -0.2 0 -0.3 0 a 0.4,0.4 0 0 0 -0.1,-0.3 v 0 l -0.9,2 c -1,1.8 0.6,4.4 2,6.8 l 0.2,0.3 v 0 l 0.2,0.2 v 0 l 0.2,0.3 v 0 l 0.2,0.2 v 0 l 0.2,0.3 v 0 l 0.2,0.3 v 0 c 0,0.1 0.1,0.1 0.1,0.2 v 0 L 105,89 v 0 0.3 h 0.1 v 0.3 0 0.3 0 0.2 0 c 0,0.1 0.1,0.1 0.1,0.2 v 0 0.2 0 0.5 0 0.3 l 0.9,-1.2 h 0.1 c 0.7,-1.3 0,-3.1 -1,-5.1 z" />
    <path
       id="a9056fcb-df12-4f21-8a3c-9a2f176c8858"
       data-name="path148"
       class="ffe9cec8-0cd9-4946-bf24-5f5a7b948720"
       d="m 113.6,73.3 a 1.3,1.3 0 0 1 -0.9,-0.2 l -0.4,0.6 0.8,-0.2 z" />
    <path
       id="a14b9ffe-cad5-4f8a-8f93-f38b6f1cdc54"
       data-name="path150"
       class="ffe9cec8-0cd9-4946-bf24-5f5a7b948720"
       d="m 103.6,95.8 h -2.1 l -0.6,0.2 h -0.6 c -0.1,0 -0.1,0 -0.1,-0.1 a 7.8,7.8 0 0 0 -1,-1.5 2.2,2.2 0 0 0 -1.5,-1 h -0.5 a 1.8,1.8 0 0 0 -0.7,0.5 v 0 0.2 h -0.1 l -0.6,0.7 a 12.2,12.2 0 0 0 -0.7,1.7 c -0.1,0.1 -0.2,0.2 -0.3,0.1 h -0.1 c 0,-0.1 -0.1,-0.1 -0.2,-0.2 L 94,95.9 93.3,95.5 A 0.6,0.6 0 0 0 92.6,95.4 L 92,95.8 a 3.5,3.5 0 0 0 -0.5,0.8 2.5,2.5 0 0 0 -0.4,0.7 l -0.2,0.5 h -0.3 l -0.7,-0.3 h -1 a 5.2,5.2 0 0 1 -2.4,2 h 0.3 a 4.9,4.9 0 0 1 2,-0.5 h 0.1 l 0.5,-0.4 h 0.1 a 0.4,0.4 0 0 1 0,0.5 2.5,2.5 0 0 1 1.6,0.8 h 0.4 l 0.8,-1.4 A 4.4,4.4 0 0 1 93,97.3 h 0.2 c 0.1,0.1 0,0.6 -0.1,1.1 a 5.9,5.9 0 0 1 -0.6,1.4 17.7,17.7 0 0 0 3.2,-0.5 l 0.4,-1 0.5,-1.4 a 11.7,11.7 0 0 1 0.5,-1.1 l 0.3,-0.6 h 0.2 c 0.1,0.1 0.2,0.1 0.1,0.6 A 4.1,4.1 0 0 1 97.4,97 c -0.1,0.5 -0.4,1.2 -0.7,2.1 l 2.4,-0.7 c 0.1,-0.3 0.4,-1.3 0.6,-1.4 h 0.2 c 0.2,0.1 0.2,0.8 0.1,1.2 l 2.8,-1 c 0.4,-0.1 0.4,0 0.5,0.1 0.1,0.1 0,0.1 -0.3,0.3 a 13.9,13.9 0 0 1 -2.8,1.2 c 0.3,0.3 0.8,0.7 0.7,1 h -0.2 c -0.2,0.1 -1.1,-0.6 -1.3,-0.8 l -2.5,0.8 1.8,1.4 0.9,0.8 c 0.4,0.3 0.4,0.4 0.3,0.5 h -0.1 l -0.7,-0.2 -1.2,-0.7 -1.2,-0.9 -0.8,-0.8 -3.3,0.7 a 6.3,6.3 0 0 1 1,1.2 l 0.4,0.6 v 0 l 0.5,0.2 0.6,0.2 0.5,0.3 0.2,0.2 v 0 l 0.3,-0.5 c 0.1,-0.2 0.2,-0.2 0.3,-0.2 h 0.1 a 9.5,9.5 0 0 0 1.7,1 3.4,3.4 0 0 0 3.1,0.1 2.1,2.1 0 0 0 0.9,-1.7 11.1,11.1 0 0 0 -0.2,-1.9 c 0,-0.1 0,-0.2 0.2,-0.2 h 0.3 l 0.8,-0.3 a 3.5,3.5 0 0 0 1.6,-1.6 1.5,1.5 0 0 0 0,-1.6 1.7,1.7 0 0 0 -1.2,-1 z" />
    <polygon
       id="ad7b825a-3ad3-47f9-9bea-81268992d139"
       data-name="polygon152"
       class="ffe9cec8-0cd9-4946-bf24-5f5a7b948720"
       points="65.6,83.2 64.3,83.2 64.3,91.8 65.6,91.8 " />
    <path
       id="a54411cc-9db2-45fa-b27d-08c1d7ee21f0"
       data-name="path154"
       class="ffe9cec8-0cd9-4946-bf24-5f5a7b948720"
       d="m 24.3,103.9 0.3,-0.3 0.5,-0.3 0.5,-0.2 0.6,-0.2 v 0 a 2.1,2.1 0 0 1 0.4,-0.6 l 0.9,-1.2 -3.2,-0.6 -0.9,0.7 -1.2,0.9 a 4.1,4.1 0 0 1 -1.1,0.7 l -0.7,0.2 h -0.2 c 0,-0.1 -0.1,-0.2 0.3,-0.5 l 1,-0.8 1.8,-1.4 -2.5,-0.8 c -0.3,0.3 -1.1,0.9 -1.4,0.8 h -0.1 c -0.1,-0.2 0.3,-0.7 0.6,-1 L 17.2,98 C 16.8,97.7 16.8,97.7 16.9,97.6 17,97.5 17,97.4 17.4,97.5 l 2.8,1 C 20.1,98.1 20,97.4 20.3,97.3 h 0.2 c 0.2,0.1 0.4,1.1 0.5,1.5 l 2.5,0.6 c -0.4,-0.9 -0.6,-1.6 -0.8,-2.1 a 5.2,5.2 0 0 1 -0.2,-1.1 c -0.1,-0.5 0,-0.6 0,-0.6 h 0.2 a 1,1 0 0 1 0.4,0.5 l 0.5,1.2 0.5,1.3 c 0.1,0.4 0.3,0.8 0.4,1.1 l 3.1,0.5 a 8.8,8.8 0 0 1 -0.5,-1.5 c -0.2,-0.5 -0.3,-0.9 -0.2,-1 h 0.2 a 3.4,3.4 0 0 1 0.8,1.2 l 0.7,1.5 H 29 a 3.4,3.4 0 0 1 1.7,-0.8 1,1 0 0 1 -0.1,-0.4 h 0.2 l 0.5,0.5 v 0 a 4.6,4.6 0 0 1 2,0.5 h 0.4 a 5.2,5.2 0 0 1 -2.4,-2 h -1 l -0.8,0.3 H 29.3 C 29.2,98.4 29.2,98.3 29.1,98 a 4.3,4.3 0 0 1 -0.4,-0.7 l -0.5,-0.7 a 1.2,1.2 0 0 0 -0.7,-0.5 0.9,0.9 0 0 0 -0.7,0.1 l -0.6,0.4 -0.6,0.5 v 0.2 h -0.4 a 11.9,11.9 0 0 0 -0.8,-1.6 2.2,2.2 0 0 0 -0.5,-0.8 h -0.2 a 2.4,2.4 0 0 0 -0.8,-0.6 h -0.4 a 2,2 0 0 0 -1.5,1 6.5,6.5 0 0 0 -1,1.5 h -0.8 l -0.6,-0.2 -0.8,-0.2 h -1.3 a 2,2 0 0 0 -1.3,1.1 2.2,2.2 0 0 0 0,1.6 4.6,4.6 0 0 0 1.6,1.5 l 0.8,0.4 H 18 a 0.2,0.2 0 0 1 0.2,0.2 6.5,6.5 0 0 0 -0.2,1.9 2.1,2.1 0 0 0 0.8,1.8 4,4 0 0 0 3.2,-0.1 l 1.7,-1.1 a 0.1,0.1 0 0 1 0.2,0 H 24 l 0.3,0.6 z" />
    <path
       id="a5834637-82a8-4b79-a0b7-b6c44e58caf5"
       data-name="path156"
       class="ffe9cec8-0cd9-4946-bf24-5f5a7b948720"
       d="m 74.1,105.5 a 34.2,34.2 0 0 1 -1.3,-7.1 46.4,46.4 0 0 1 -25.6,0 42.1,42.1 0 0 1 -1.2,7.1 28.7,28.7 0 0 1 -3.2,6.6 62.8,62.8 0 0 0 34.4,0 28.3,28.3 0 0 1 -3.1,-6.6 z m -20.9,4.9 c 0,0.1 -0.1,0.3 -0.2,0.3 h -2.9 a 0.3,0.3 0 0 1 -0.3,-0.3 v 0 -0.3 a 0.3,0.3 0 0 1 0.3,-0.3 h 0.8 v -4.3 a 4.8,4.8 0 0 1 -1.1,0.9 h -0.1 a 0.1,0.1 0 0 1 -0.1,-0.1 l -0.3,-0.4 c 0,-0.1 0,-0.2 0.1,-0.2 a 8.4,8.4 0 0 0 2.3,-2.3 c 0,-0.1 0,-0.1 0.1,-0.1 h 0.3 a 0.2,0.2 0 0 1 0.2,0.2 v 0 6.3 h 0.6 a 0.3,0.3 0 0 1 0.3,0.3 v 0 z m 5.5,-6.3 c -0.9,2.2 -1.9,4.3 -3,6.4 h -0.5 l -0.6,-0.3 v -0.5 0 a 32.9,32.9 0 0 0 2.9,-5.2 h -2.7 v 0.6 c 0,0.2 -0.1,0.4 -0.3,0.4 h -0.3 a 0.3,0.3 0 0 1 -0.3,-0.3 v 0 -1.7 l 0.2,-0.2 h 4.4 l 0.2,0.4 v 0.2 z m 2.8,6.7 c -1.3,0 -2.2,-0.7 -2.2,-1.7 a 0.8,0.8 0 0 1 0.8,-0.9 v 0 a 0.7,0.7 0 0 1 0.8,0.7 c 0.1,0 0,0.1 0,0.1 a 0.9,0.9 0 0 1 -0.3,0.7 1.6,1.6 0 0 0 0.9,0.3 c 0.7,0 1.4,-0.3 1.4,-1.9 0,-1.6 -0.6,-1.5 -1.1,-1.5 a 1.2,1.2 0 0 0 -1.1,0.4 v 0.2 l -0.2,0.2 H 59.8 L 60,104 v 0 a 0.2,0.2 0 0 1 0.2,-0.2 h 2.4 c 0.7,0 0.7,-0.1 1,-0.6 0.3,-0.5 0.1,-0.1 0.2,-0.1 h 0.3 l 0.2,0.2 a 1.8,1.8 0 0 1 -1.9,1.7 h -1.5 v 1.1 a 2.2,2.2 0 0 1 1.1,-0.2 2.2,2.2 0 0 1 2.4,2.3 2.7,2.7 0 0 1 -2.6,2.8 z m 6.1,0 c -1.3,0 -2.2,-0.7 -2.2,-1.7 a 0.7,0.7 0 0 1 0.7,-0.9 h 0.1 a 0.7,0.7 0 0 1 0.8,0.7 v 0 a 0.9,0.9 0 0 1 -0.3,0.7 1.4,1.4 0 0 0 0.9,0.3 c 0.7,0 1.4,-0.3 1.4,-1.9 0,-1.6 -0.6,-1.5 -1.1,-1.5 -0.5,0 -0.9,0.1 -1.1,0.4 v 0.2 a 0.2,0.2 0 0 1 -0.2,0.2 h -0.7 l 0.2,-3.4 v 0 a 0.2,0.2 0 0 1 0.2,-0.2 h 2.4 c 0.7,0 0.7,-0.1 1,-0.6 0.3,-0.5 0.1,-0.1 0.2,-0.1 h 0.3 c 0.1,0.1 0.2,0.1 0.1,0.2 a 1.7,1.7 0 0 1 -1.8,1.7 H 67 v 1.1 a 2.2,2.2 0 0 1 1.1,-0.2 2.2,2.2 0 0 1 2.4,2.3 2.8,2.8 0 0 1 -2.6,2.8 z" />
    <path
       id="e8cf17f5-9652-4fda-9388-9bd02787f92c"
       data-name="path158"
       class="ffe9cec8-0cd9-4946-bf24-5f5a7b948720"
       d="M 95.6,105.1 H 95.5 A 0.1,0.1 0 0 0 95.4,105 v -0.2 l -0.5,-0.3 -0.6,-0.3 -1.2,-0.4 h -1.5 c -0.2,0 -0.3,-0.1 -0.3,-0.2 a 6.4,6.4 0 0 0 -0.6,-1.8 v -0.3 l -0.4,-0.4 v 0 L 90,100.8 v 0 l -0.4,-0.2 h -0.4 a 2.7,2.7 0 0 0 -1.3,0.2 v 0 l -0.6,0.3 v 0 l -0.6,0.3 -0.4,0.3 v 0.2 l -0.3,0.2 v 0 l -0.2,0.3 v 0 a 4.4,4.4 0 0 0 -0.8,1.1 h -0.5 l -0.2,-0.2 -0.6,-0.5 h -0.1 a 2.4,2.4 0 0 1 -0.8,0.9 2.7,2.7 0 0 1 -1.1,0.5 1.8,1.8 0 0 1 -1,0.2 H 80 l -0.3,0.7 h -1.8 l -0.6,0.5 a 3.5,3.5 0 0 1 -1.3,0.5 l -0.2,0.2 -0.3,0.5 A 6.1,6.1 0 0 0 76,108 l 1,-0.2 a 4,4 0 0 1 0.8,-1.6 c 0.1,0 0.2,0 0.2,0.1 0,0.1 0,0.8 -0.1,1.3 l 2.7,-0.6 0.7,-1.6 c 0.3,-0.6 0.7,-1.2 0.9,-1.2 h 0.2 c 0.1,0.1 0,0.6 -0.2,1.1 a 13.1,13.1 0 0 1 -0.5,1.5 l 3.5,-0.5 a 4.1,4.1 0 0 1 0.6,-1.1 l 0.8,-1.3 c 0.6,-0.8 1.2,-1.5 1.5,-1.5 h 0.2 c 0.1,0.1 0.2,0.2 -0.1,0.6 a 28.5,28.5 0 0 1 -1.9,3.1 l 2.8,-0.2 0.5,-0.7 a 1.2,1.2 0 0 1 0.6,-0.5 h 0.2 c 0.2,0.2 -0.1,0.8 -0.3,1.2 a 18.2,18.2 0 0 1 3.3,0.1 c 0.5,0.1 0.5,0.2 0.4,0.3 -0.1,0.1 0,0.2 -0.4,0.2 h -3.2 c 0.2,0.4 0.5,1 0.3,1.2 h -0.2 l -0.6,-0.4 -0.5,-0.7 -2.8,0.3 a 14.9,14.9 0 0 1 2.3,2.7 c 0.3,0.4 0.3,0.4 0.2,0.5 h -0.2 a 7.2,7.2 0 0 1 -1.5,-1.2 l -1.1,-1.1 -0.8,-0.8 -3.5,0.6 1.1,1.2 c 0.3,0.4 0.6,0.8 0.5,1 H 83.2 A 3.2,3.2 0 0 1 82,108.9 l -1.3,-1.2 -2.6,0.7 c 0.3,0.3 0.8,0.9 0.7,1.1 h -0.2 a 7.6,7.6 0 0 1 -1.4,-1 l -0.8,0.2 1,1.8 a 2,2 0 0 0 1.1,0.2 3.1,3.1 0 0 0 1.2,-0.5 l 0.4,-0.2 h 0.5 a 4.5,4.5 0 0 0 2.7,1.7 2,2 0 0 0 1.3,-0.8 7.5,7.5 0 0 0 0.7,-1.2 h 0.4 a 6.4,6.4 0 0 0 1.5,1.3 3.3,3.3 0 0 0 2.6,0.8 c 0.5,-0.1 0.8,-0.8 1.1,-1.4 a 12.9,12.9 0 0 0 0.4,-1.9 c 0,-0.1 0.1,-0.2 0.2,-0.1 h 1.2 l 1.1,-0.2 h 0.5 l 0.5,-0.3 a 1.9,1.9 0 0 0 1,-1.3 v -0.9 l -0.2,-0.2 z" />
    <path
       id="bee3d7f3-8f22-4779-985e-ca410d3e18c7"
       data-name="path160"
       class="ffe9cec8-0cd9-4946-bf24-5f5a7b948720"
       d="m 42.9,108.4 a 7.6,7.6 0 0 1 -1.4,1 h -0.2 c -0.1,-0.2 0.4,-0.8 0.7,-1.1 l -2.6,-0.6 -1.3,1.1 a 3.2,3.2 0 0 1 -1.2,0.9 h -0.2 c -0.1,-0.2 0.2,-0.6 0.5,-1 l 1.1,-1.2 -3.5,-0.6 -0.8,0.8 -1.1,1.1 a 4.8,4.8 0 0 1 -1.5,1.2 h -0.2 c -0.1,-0.1 -0.1,-0.2 0.1,-0.6 a 15.5,15.5 0 0 1 2.4,-2.7 l -2.8,-0.3 -0.5,0.7 -0.6,0.5 h -0.2 c -0.2,-0.2 0.1,-0.8 0.3,-1.1 a 19.5,19.5 0 0 0 -3.2,-0.1 c -0.4,0 -0.4,-0.1 -0.5,-0.2 -0.1,-0.1 0,-0.2 0.5,-0.3 a 18.2,18.2 0 0 1 3.3,-0.1 c -0.2,-0.4 -0.5,-1 -0.3,-1.2 h 0.2 a 1.2,1.2 0 0 1 0.6,0.5 l 0.5,0.7 2.8,0.2 -1.9,-3 c -0.3,-0.5 -0.2,-0.6 -0.1,-0.6 H 32 a 4.5,4.5 0 0 1 1.5,1.6 l 0.8,1.2 a 4.1,4.1 0 0 1 0.6,1.1 l 3.5,0.5 a 8.6,8.6 0 0 1 -0.5,-1.5 1.7,1.7 0 0 1 -0.2,-1.1 h 0.2 a 3.1,3.1 0 0 1 0.9,1.3 l 0.7,1.5 2.7,0.6 c -0.1,-0.4 -0.3,-1.2 -0.1,-1.3 a 0.1,0.1 0 0 1 0.2,0 c 0.2,0 0.7,1.1 0.8,1.5 l 1,0.2 a 3.3,3.3 0 0 0 0.5,-1.2 l -0.3,-0.4 -0.2,-0.3 a 2.4,2.4 0 0 1 -1.3,-0.5 l -0.6,-0.5 h -1.6 a 1.3,1.3 0 0 0 -0.3,-0.7 h -0.7 l -1,-0.2 -1.1,-0.5 a 3.9,3.9 0 0 1 -0.8,-1 h -0.1 l -0.6,0.5 -0.2,0.2 h -0.1 c -0.1,0.1 -0.3,0 -0.4,-0.1 v 0 a 4.4,4.4 0 0 0 -0.8,-1.1 v 0 L 34.3,102 v 0 L 34,101.8 h -0.1 l -0.4,-0.4 -0.6,-0.3 v 0 l -0.6,-0.3 v 0 A 2.7,2.7 0 0 0 31,100.6 h -0.4 l -0.5,0.2 v 0 l -0.2,0.3 v 0 a 1,1 0 0 0 -0.4,0.5 v 0.2 a 6.4,6.4 0 0 0 -0.6,1.8 c 0,0.2 -0.1,0.2 -0.3,0.2 h -1.5 l -1.2,0.4 c -0.3,0 -0.4,0.2 -0.6,0.3 a 1,1 0 0 0 -0.5,0.4 h -0.3 v 0.2 a 1.7,1.7 0 0 0 0,1 2.1,2.1 0 0 0 1,1.3 l 0.4,0.2 h 0.6 l 1,0.2 h 1.1 c 0.2,0 0.3,0 0.3,0.2 a 5.8,5.8 0 0 0 0.4,1.8 c 0.2,0.7 0.6,1.3 1.1,1.4 a 2.9,2.9 0 0 0 2.6,-0.8 6.1,6.1 0 0 0 1.5,-1.2 h 0.4 a 3.5,3.5 0 0 0 0.7,1.2 2.2,2.2 0 0 0 1.3,0.8 c 0.9,0.1 2,-0.9 2.7,-1.7 H 40 l 0.4,0.2 a 3.1,3.1 0 0 0 1.2,0.5 1.4,1.4 0 0 0 1.1,-0.2 14.5,14.5 0 0 0 1,-1.8 z" />
    <path
       id="bf3a0e41-e546-49e2-b00d-78a13cd45140"
       data-name="path162"
       class="ffe9cec8-0cd9-4946-bf24-5f5a7b948720"
       d="M 43.1,99.3 A 2,2 0 0 0 43,100 l 2.2,1.7 c 0,-0.5 0.2,-1.2 0.4,-1.3 h 0.2 a 0.7,0.7 0 0 1 0.1,0.6 L 46.2,99.3 45,99 c -0.1,0 -0.1,-0.1 -0.1,-0.2 v 0 c 0,-0.5 0.1,-0.9 0.1,-1.4 a 3.8,3.8 0 0 0 -0.5,-1.9 l -0.4,-0.3 h -2.6 a 0.1,0.1 0 0 1 0,-0.2 c 0,-0.6 0.1,-1.3 0.1,-1.9 V 92.4 A 6.4,6.4 0 0 0 41.4,91.7 2.3,2.3 0 0 0 40.8,90.5 H 39 l -1.8,0.7 c -0.1,0 -0.2,0 -0.2,-0.1 H 36.9 C 36.9,91 36.8,91 36.8,90.9 L 36.3,90.2 A 5.4,5.4 0 0 0 34.8,88.7 L 34,88 h -0.9 l -0.7,0.5 v 0 a 0.1,0.1 0 0 0 -0.1,0.1 H 32.2 L 32,88.9 v 0 a 4.8,4.8 0 0 0 0.4,2.6 l 0.5,1 0.2,0.2 v 0 a 0.3,0.3 0 0 1 0,0.4 6.1,6.1 0 0 0 -1.2,1.5 3.8,3.8 0 0 0 -0.3,1 v 0.3 0 0.2 c 0,0.2 0.1,0.3 0.2,0.5 a 3.3,3.3 0 0 0 1.3,1.3 l 0.8,0.4 0.5,0.2 h 2.5 a 0.3,0.3 0 0 1 0.3,0.3 v 0 a 7.5,7.5 0 0 0 0,1.5 v 0 l 0.3,0.8 a 1.8,1.8 0 0 0 0.5,0.7 2.5,2.5 0 0 0 1.7,0.4 h 1.1 l 0.8,-0.2 v 0 l 0.3,0.2 v 0 0.2 l 0.3,0.4 0.3,0.4 a 0.3,0.3 0 0 1 0.1,0.2 l 0.6,0.4 H 45 c 0.2,-0.5 0.3,-1.1 0.5,-1.7 h -0.3 l -0.9,0.2 h -0.8 v -0.2 c -0.1,-0.2 0.6,-0.6 1.1,-0.7 a 17.4,17.4 0 0 1 -2.2,-1.8 l -0.7,0.2 -1,0.2 a 4.1,4.1 0 0 1 -1.6,0 v -0.2 c 0,-0.2 0.4,-0.4 1,-0.5 a 4.8,4.8 0 0 1 1.5,-0.4 L 39,96.3 H 34.7 A 1.3,1.3 0 0 1 33.9,96 v -0.2 c 0,-0.1 0,-0.2 0.6,-0.3 h 3.7 l -1,-1.1 -0.5,-0.6 -0.4,-0.5 h -0.9 a 1.2,1.2 0 0 1 -0.8,-0.2 v -0.2 c 0,-0.3 0.7,-0.4 1.1,-0.4 L 35.3,91.9 35,91.4 34.7,91 34.5,90.6 34.2,90 34,89.6 c -0.2,-0.5 -0.1,-0.5 0,-0.6 0.1,-0.1 0.2,0 0.4,0.4 a 0.5,0.5 0 0 1 0.2,0.4 l 0.4,0.5 0.2,0.4 0.3,0.4 0.3,0.5 0.4,0.5 c 0.2,-0.4 0.5,-0.9 0.8,-0.9 v 0 a 1.1,1.1 0 0 1 0,0.8 3.1,3.1 0 0 0 -0.2,0.8 1,1 0 0 0 0.4,0.5 l 0.5,0.6 1,1.1 a 19.7,19.7 0 0 1 0.7,-3.5 C 39.6,91 39.7,91 39.8,91 H 40 a 0.8,0.8 0 0 1 0,0.7 c 0,0.4 -0.1,0.9 -0.1,1.3 l -0.3,1.5 c 0,0.5 -0.1,0.9 -0.1,1.2 a 29.6,29.6 0 0 0 2.6,2.4 l 0.3,-1.5 c 0.1,-0.6 0.3,-1 0.5,-1 h 0.2 a 3,3 0 0 1 0,1.4 v 1.1 z" />
    <polygon
       id="e610316c-9925-4611-a997-308ddd7df964"
       data-name="polygon164"
       class="ffe9cec8-0cd9-4946-bf24-5f5a7b948720"
       points="55.7,83.2 54.5,83.2 54.5,91.8 55.7,91.8 " />
    <path
       id="aa458909-8fcd-42eb-b533-4044d57e2939"
       data-name="path166"
       class="ffe9cec8-0cd9-4946-bf24-5f5a7b948720"
       d="m 13.4,27.4 c 0,-0.4 0.1,-0.8 0.3,-0.9 a 0.2,0.2 0 0 1 0.3,0 c 0.1,0 0.1,0.2 0.1,0.5 l 0.5,-0.4 0.2,-0.2 a 3.6,3.6 0 0 1 0.2,-1 1.1,1.1 0 0 1 0.3,-0.8 h 0.3 a 0.4,0.4 0 0 1 0.1,0.3 2.8,2.8 0 0 1 -0.1,0.9 l 1,-0.7 c 0.1,-0.3 0.2,-0.9 0.5,-1 h 0.3 c 0,0 0.1,0.1 0,0.4 l 0.8,-0.4 h 0.4 c 0.2,-0.1 0.2,0 0.3,0.1 0.1,0.1 0.1,0.1 -0.1,0.3 l -0.3,0.2 -0.7,0.5 0.3,0.2 A 0.4,0.4 0 0 1 18,25.7 c -0.1,0.1 -0.6,0 -1,0 l -0.9,0.7 0.9,0.2 c 0.1,0 0.1,0.1 0.1,0.2 a 0.1,0.1 0 0 1 0,0.2 h -1.8 l -0.6,0.6 0.5,0.2 a 0.4,0.4 0 0 1 -0.1,0.3 C 15,28.3 14.4,28.3 14,28.2 l -0.6,0.6 v 0.6 0 a 1.9,1.9 0 0 0 1.3,-0.2 7.7,7.7 0 0 0 2.1,-1.4 11.8,11.8 0 0 0 2.5,-2.5 c 0.5,-0.7 0.9,-1.4 1.2,-1.7 l -0.4,-0.2 h -1.9 a 6.5,6.5 0 0 0 -2.7,0.8 l -0.3,0.2 h -0.3 l -0.2,0.2 h -0.1 l -0.2,0.2 -0.3,0.2 v 0 l -0.3,0.2 -0.7,0.7 a 0.4,0.4 0 0 1 0.1,0.3 5,5 0 0 1 0.2,1.2 z" />
    <path
       id="edc007ae-c143-426c-b347-9685e7489020"
       data-name="path168"
       class="ffe9cec8-0cd9-4946-bf24-5f5a7b948720"
       d="m 19.2,85.6 a 3.5,3.5 0 0 1 1.5,-1.2 15.5,15.5 0 0 1 -0.4,-2.1 V 81.7 L 20,81.1 v 0 0.2 0 0.3 0 c 0,0.1 -0.1,0.2 -0.1,0.3 v 0 l -0.2,0.6 v 0 a 0.4,0.4 0 0 0 -0.1,0.3 v 0 l -0.2,0.3 v 0 0.3 h -0.1 v 0.3 0 L 19.1,84 v 0 l -0.2,0.2 v 0 l -0.2,0.3 v 0 0.2 H 18.6 L 18.4,85 v 0 l -0.2,0.2 v 0 L 18,85.5 a 17.3,17.3 0 0 0 -1.9,3.9 H 16 v 0.2 0 1.4 0 0.2 0 0.2 h 0.3 l 1,1.2 a 0.6,0.6 0 0 0 0.1,-0.4 9.8,9.8 0 0 1 1.4,-3.2 l 0.4,-0.7 0.3,-0.5 a 3,3 0 0 1 -0.4,-1 C 19.1,86.6 19,86.3 19,86 a 3,3 0 0 1 0.6,-1.8 z" />
    <rect
       id="fedda96b-046e-4628-9307-265960ae187f"
       data-name="rect170"
       class="ffe9cec8-0cd9-4946-bf24-5f5a7b948720"
       x="54.5"
       y="80.699997"
       width="1.2"
       height="1.23" />
    <path
       id="a0ccfc92-6701-4ec9-82cb-9fade7247773"
       data-name="path172"
       class="ffe9cec8-0cd9-4946-bf24-5f5a7b948720"
       d="m 29.9,94.1 0.8,1.1 a 0.8,0.8 0 0 1 0.2,-0.4 1.9,1.9 0 0 1 0.5,-0.9 L 32,93.3 a 5.9,5.9 0 0 0 -0.4,-0.8 4.2,4.2 0 0 0 -0.4,-1 C 31.1,91.1 31.1,90.7 31,90.3 a 4.9,4.9 0 0 1 0.1,-1.2 V 88.9 H 30 a 0.3,0.3 0 0 1 -0.1,-0.2 c -0.1,0 -0.1,-0.1 -0.1,-0.2 a 14.6,14.6 0 0 0 0.7,-1.9 3.9,3.9 0 0 0 -0.3,-3 C 29.9,83.1 29.2,83 28.4,83 l -1.9,0.2 H 26.2 A 0.4,0.4 0 0 0 26.1,82.9 V 82.5 C 26,82.4 26,82.2 25.9,82 l -0.5,-0.9 -0.3,-0.5 -0.4,-0.4 -0.7,-0.4 -0.9,-0.2 -0.8,0.2 -0.7,0.7 c -0.1,0.2 -0.1,0.5 -0.2,0.7 -0.1,0.2 -0.1,0.3 -0.1,0.5 v 0.2 0 0.6 0 0.2 0 c 0.1,0.1 0,0.1 0.1,0.2 v 0.3 c 0.1,0.2 0.1,0.4 0.2,0.6 v 0.4 a 1,1 0 0 0 0.1,0.3 v 0.2 A 0.4,0.4 0 0 1 21.6,85 H 21.3 L 20.8,85.3 20,86 a 2.5,2.5 0 0 0 -0.7,2.1 c 0,0.1 0.1,0.1 0.1,0.2 v 0.2 0 0.2 0 l 0.2,0.2 v 0 0.2 0 a 5.5,5.5 0 0 0 2,1.7 h 0.6 l 1.5,0.4 0.2,0.2 V 92 a 3.7,3.7 0 0 0 -0.4,1.4 l 0.6,0.6 a 7.6,7.6 0 0 1 1.2,1.9 2,2 0 0 1 2.1,-0.9 l 0.7,0.4 0.5,0.6 a 8.3,8.3 0 0 1 0.8,1.2 h 1 a 25,25 0 0 1 -1.6,-2.4 h -1.5 a 2.9,2.9 0 0 1 -1.6,-0.5 c -0.1,0 -0.1,-0.1 -0.1,-0.2 0,-0.1 0.6,-0.2 1.2,-0.3 h 1.6 C 27.8,92.7 27.1,91.6 26.5,90.4 L 25.3,90 23.7,89.6 a 5.3,5.3 0 0 1 -2.1,-0.9 c 0,-0.1 -0.1,-0.2 0,-0.3 0.1,-0.1 0,-0.2 0.6,-0.1 l 1.3,0.2 2.4,0.6 C 25.4,88.2 25,87.2 24.6,86.3 L 23.7,86.1 23,85.7 v -0.3 c 0.1,-0.2 0.8,-0.2 1.2,-0.1 a 19.1,19.1 0 0 1 -1,-3.4 c -0.1,-0.5 0,-0.5 0.1,-0.5 0.1,0 0.2,-0.1 0.3,0.4 0.1,0.5 0.5,1.4 1.3,3.2 0.2,-0.3 0.7,-0.8 0.9,-0.7 l 0.2,0.2 a 1.9,1.9 0 0 1 -0.2,0.7 L 25.3,86 c 0.4,0.9 0.9,1.8 1.4,2.7 a 16.4,16.4 0 0 1 1,-2.2 l 0.7,-1.1 C 28.7,85 28.8,85 28.9,85 29,85 29,85.1 29,85.2 a 5.3,5.3 0 0 1 -0.6,2 l -0.6,1.5 -0.5,1.1 c 0.6,1.1 1.3,2.2 2,3.3 A 10.1,10.1 0 0 1 30,91.6 c 0.3,-0.5 0.6,-0.9 0.7,-0.9 a 0.2,0.2 0 0 1 0.2,0.2 4,4 0 0 1 -0.3,1.5 z" />
    <polygon
       id="b4023398-e490-48d4-81bc-99c2ed0de2d0"
       data-name="polygon174"
       class="ffe9cec8-0cd9-4946-bf24-5f5a7b948720"
       points="63.1,83.2 61.9,83.2 61.9,91.8 63.1,91.8 " />
    <rect
       id="fcaab5f3-1590-408a-b87e-7225ab99ddb6"
       data-name="rect176"
       class="ffe9cec8-0cd9-4946-bf24-5f5a7b948720"
       x="61.900002"
       y="80.699997"
       width="1.2"
       height="1.23" />
    <polygon
       id="a451ff8b-4eff-41a5-9db0-2d20770c357d"
       data-name="polygon178"
       class="ffe9cec8-0cd9-4946-bf24-5f5a7b948720"
       points="58.2,83.2 56.9,83.2 56.9,91.8 58.2,91.8 " />
    <polygon
       id="b138a8fb-7f3e-4c51-9b86-2c23eae08639"
       data-name="polygon180"
       class="ffe9cec8-0cd9-4946-bf24-5f5a7b948720"
       points="60,83.2 59.4,83.2 59.4,91.8 60.6,91.8 60.6,83.2 " />
    <rect
       id="a5583d64-2791-404a-af79-aec32f60d007"
       data-name="rect182"
       class="ffe9cec8-0cd9-4946-bf24-5f5a7b948720"
       x="56.900002"
       y="80.699997"
       width="1.2"
       height="1.23" />
    <path
       id="a88f3022-399d-4c4c-9afe-a67b84e5e0b7"
       data-name="path184"
       class="ffe9cec8-0cd9-4946-bf24-5f5a7b948720"
       d="M 19.5,95.2 A 26.4,26.4 0 0 1 21,92.3 l 0.4,-0.6 -0.8,-0.5 a 6.9,6.9 0 0 1 -1.1,-1.3 l -0.5,0.8 -0.2,0.5 a 11.2,11.2 0 0 0 -1.1,2.5 2.1,2.1 0 0 0 0,1.1 z" />
    <path
       id="e3418c0b-08a5-4f12-954b-3a4937b7497b"
       data-name="path186"
       class="ffe9cec8-0cd9-4946-bf24-5f5a7b948720"
       d="M 34.4,7.7 H 34.3 A 3.4,3.4 0 0 0 33.7,8.3 C 33.6,8.4 33.6,8.6 33.5,8.7 L 35,8.4 c 0.3,-0.2 0.6,-0.7 0.9,-0.7 h 0.2 c 0.1,0.1 0,0.2 -0.1,0.4 h 0.9 C 37.2,7.7 37.9,7 38.2,7 h 0.2 c 0.1,0.1 0.1,0.1 -0.5,0.8 h 1.2 a 1.4,1.4 0 0 1 0.8,-0.6 h 0.3 c 0,0.1 0,0.2 -0.2,0.4 a 3.3,3.3 0 0 1 1.4,0 h 0.2 c 0,0.1 0,0.2 -0.2,0.2 L 40.1,8 40.3,8.3 H 40.1 A 1,1 0 0 1 39.2,8 L 38,8.5 c 0.8,0.4 0.8,0.5 0.7,0.6 A 0.2,0.2 0 0 1 38.5,9.3 C 38.2,9.4 37.4,8.9 37,8.7 l -0.9,0.2 c 0.2,0.1 0.4,0.2 0.3,0.3 A 0.3,0.3 0 0 1 36.3,9.4 C 36,9.5 35.5,9.2 35.2,9.1 l -1.5,0.4 0.4,0.3 1.2,0.2 2.5,-0.2 a 21.2,21.2 0 0 0 3.6,-1 L 43.2,7.9 42.5,7.4 H 37.3 L 35.8,7.7 35.1,8 h -0.7 z" />
    <path
       id="a0c1e7c2-43ac-41dc-a00b-6296002dd233"
       data-name="path188"
       class="ffe9cec8-0cd9-4946-bf24-5f5a7b948720"
       d="m 36.3,5.6 a 3,3 0 0 1 0.2,-1 h 0.3 c 0.1,0 0.1,0.2 0.1,0.4 l 0.4,-0.4 h 0.2 c 0,-0.5 0.1,-1.4 0.3,-1.5 H 38 c 0.1,0.1 0.2,0.1 0.1,0.9 l 0.8,-0.7 a 2,2 0 0 1 0.2,-0.9 c 0.1,0 0.2,-0.1 0.3,0 0.1,0.1 0.1,0 0.1,0.3 0,0.3 1,-1 1.1,-0.9 0.1,0.1 0.2,0.2 -0.7,1.2 -0.9,1 0.3,0.1 0.3,0.1 0,0 0,0.2 0,0.3 0,0.1 -0.6,0.2 -0.9,0.3 l -0.7,0.8 h 0.9 c 0.1,0.1 0,0.2 0,0.3 a 3.5,3.5 0 0 1 -1.6,0.3 l -0.5,0.6 h 0.4 V 6 c -0.2,0.2 -0.7,0.2 -1.1,0.2 v 0.2 l 0.6,-0.2 h 1.4 L 38.9,6 v 0 l 0.2,-0.2 v 0 l 0.2,-0.2 0.3,-0.3 v 0 l 0.2,-0.2 v 0 a 1,1 0 0 0 0.4,-0.5 v 0 l 0.2,-0.2 v 0 l 0.5,-0.8 v 0 C 40.9,3.5 41,3.4 41,3.3 v 0 A 0.4,0.4 0 0 0 41.1,3 v 0 l 0.2,-0.3 a 0.4,0.4 0 0 1 0.1,-0.3 v 0 -0.6 0 A 3,3 0 0 0 41.5,0.5 L 39.8,1.2 A 9.5,9.5 0 0 0 37,3.2 14.3,14.3 0 0 0 35.5,5 2,2 0 0 0 35.2,6.1 v 0.4 z" />
    <path
       id="f290dd09-5e0d-48f1-ab1f-cbe50b72ff82"
       data-name="path190"
       class="ffe9cec8-0cd9-4946-bf24-5f5a7b948720"
       d="m 29.2,8.9 a 1.8,1.8 0 0 1 0.3,-1.1 h 0.3 c 0.1,0.1 0.1,0.2 0.1,0.5 L 30.4,7.9 V 7.7 c 0,-0.2 0.1,-0.6 0.1,-0.9 A 1.1,1.1 0 0 1 30.8,6.1 H 31 c 0.1,0 0.1,0 0.1,0.1 a 1.1,1.1 0 0 1 0,0.8 l 0.5,-0.4 0.3,-0.4 a 1.3,1.3 0 0 1 0.2,-0.9 h 0.2 c 0.1,0.1 0.1,0.1 0.2,0.4 L 32.8,5.3 33,5.1 33.3,4.8 c 0.1,-0.2 0.2,-0.1 0.2,-0.1 0,0 0.2,0.1 0.1,0.3 l -0.2,0.4 c -0.1,0 -0.1,0.1 -0.2,0.3 L 32.9,6 h 0.4 V 6.3 A 1.4,1.4 0 0 1 32.4,6.6 L 32,7.1 31.6,7.5 h 1 A 0.4,0.4 0 0 1 32.5,7.8 L 31.8,8 H 31 l -0.6,0.6 c 0.2,0 0.4,0.1 0.4,0.2 0,0.1 0,0.2 -0.1,0.2 -0.1,0 -0.7,0.2 -1,0.2 l -1.1,1 H 29 a 2.4,2.4 0 0 0 1.2,-0.3 7.8,7.8 0 0 0 2.2,-1.5 l 0.2,-0.2 0.7,-0.9 v 0 A 2.1,2.1 0 0 0 33.7,6.7 3.6,3.6 0 0 0 34.1,5.8 L 34.4,5 c 0,-0.2 0.1,-0.4 0.1,-0.7 V 4 A 1.7,1.7 0 0 0 34.4,3.3 L 33.8,3.6 33.3,3.9 32.7,4.2 A 17.8,17.8 0 0 0 30.1,6.4 6.9,6.9 0 0 0 28.5,8.2 2.2,2.2 0 0 0 28,9.3 0.7,0.7 0 0 0 28.1,9.8 Z" />
    <path
       id="a9dc8d96-d5f3-46d3-bdff-7ea5a46d5e17"
       data-name="path192"
       class="ffe9cec8-0cd9-4946-bf24-5f5a7b948720"
       d="m 21.8,15.7 0.9,-1.2 a 2,2 0 0 1 0,-1.1 H 23 a 0.6,0.6 0 0 1 0.2,0.5 1,1 0 0 1 0.4,-0.5 v -0.2 c -0.1,-0.5 -0.3,-1.4 -0.1,-1.7 h 0.3 c 0.1,0.1 0.2,0.1 0.3,1 a 3.7,3.7 0 0 0 0.6,-1 c 0,-0.3 -0.1,-0.8 0,-0.9 l 0.3,-0.2 0.2,0.3 a 6.1,6.1 0 0 1 0.7,-1 h 0.2 c 0.1,0.1 0.1,0.1 0.1,0.3 a 11.7,11.7 0 0 1 -0.5,1.1 c 0.3,-0.1 0.3,0 0.3,0 a 0.4,0.4 0 0 1 0.1,0.3 c -0.1,0.2 -0.6,0.4 -0.9,0.5 l -0.5,1 c 0.8,-0.3 0.9,-0.2 0.9,-0.1 0,0.1 0.1,0.2 0,0.2 -0.1,0 -1,0.6 -1.5,0.7 a 4.3,4.3 0 0 1 -0.4,0.7 h 0.4 a 0.2,0.2 0 0 1 0,0.3 1.3,1.3 0 0 1 -1,0.4 3.5,3.5 0 0 1 -0.5,0.8 l 1.8,-0.5 0.8,-1 h 0.1 v -0.2 h 0.1 V 14 l 0.2,-0.3 v 0 l 0.2,-0.3 v 0 A 7.5,7.5 0 0 0 27,10 6.6,6.6 0 0 0 26.9,8 l -1.7,1.1 a 11.8,11.8 0 0 0 -2.3,2.7 6.5,6.5 0 0 0 -1.1,2.2 2.5,2.5 0 0 0 -0.2,1.2 c 0,0.2 0.1,0.3 0.2,0.5 z" />
    <path
       id="bb313a56-8421-40d0-b73f-fbc13d6ca982"
       data-name="path194"
       class="ffe9cec8-0cd9-4946-bf24-5f5a7b948720"
       d="m 43.7,1.7 c 0.1,0 0.2,0 0.2,0.1 0,0.1 0.1,0.2 0,0.4 h 0.7 C 44.8,1.8 45.3,1 45.6,1 h 0.2 c 0.1,0.1 0.1,0.2 -0.3,0.9 l 1,-0.3 c 0.2,-0.3 0.4,-0.7 0.6,-0.7 h 0.2 c 0.1,0.1 0.1,0.1 0,0.4 -0.1,0.3 1.3,-0.6 1.4,-0.5 0.1,0.1 0,0.2 -1.2,0.8 l 0.3,0.2 C 47.7,1.9 47.7,2 47.6,2 A 1.5,1.5 0 0 1 46.7,1.9 l -1,0.4 c 0.8,0.3 0.8,0.3 0.8,0.5 L 46.3,3 A 3.4,3.4 0 0 1 44.8,2.6 l -0.7,0.2 h 0.1 L 46.3,3 h 0.4 l 0.4,-0.2 v 0 L 47.8,2.4 48.9,1.6 49.1,1.3 A 2.7,2.7 0 0 0 49.8,0.5 0.8,0.8 0 0 0 50,0.3 3.7,3.7 0 0 0 48.2,0.1 9.7,9.7 0 0 0 44.8,0.7 7.8,7.8 0 0 0 42.7,1.6 2,2 0 0 0 41.9,2.4 L 41.7,2.7 V 2.9 L 43,2.5 c 0.2,-0.3 0.5,-0.8 0.7,-0.8 z" />
    <path
       id="bee8d1e0-32dd-4839-b2b4-84c104b0a405"
       data-name="path196"
       class="ffe9cec8-0cd9-4946-bf24-5f5a7b948720"
       d="m 29.1,14.5 c -0.2,0.2 -0.8,0 -1.2,0 l -1.1,0.6 h 0.7 l 0.7,0.2 h 0.2 a 9.2,9.2 0 0 0 2.3,-0.9 12.7,12.7 0 0 0 3.1,-2 6.7,6.7 0 0 0 1.5,-1.4 5.9,5.9 0 0 0 -1.9,-0.5 h -0.8 l -1.1,0.2 a 8.1,8.1 0 0 0 -2.2,0.7 11.4,11.4 0 0 0 -2.3,1.6 2.6,2.6 0 0 0 -0.7,1.1 0.9,0.9 0 0 0 -0.1,0.5 l 1.4,-0.8 c 0.1,-0.3 0.3,-0.9 0.6,-0.9 h 0.3 c 0.1,0 0,0.2 0,0.5 l 0.6,-0.3 h 0.1 c 0.2,-0.5 0.7,-1.4 1,-1.5 h 0.3 c 0.1,0 0.1,0.1 -0.3,0.9 l 1.1,-0.4 A 1.4,1.4 0 0 1 32,11.3 h 0.2 q 0.1,0 0,0.3 l 1.3,-0.3 h 0.2 v 0.2 l -1.2,0.6 0.3,0.2 -0.2,0.2 a 1.8,1.8 0 0 1 -1,-0.1 l -1,0.5 c 0.9,0.3 0.9,0.3 0.9,0.5 l -0.2,0.2 c -0.2,0.2 -1.2,-0.1 -1.7,-0.2 l -0.7,0.4 c 0.2,0.1 0.4,0.2 0.4,0.3 v 0.2 z" />
    <path
       id="f5c9633d-ac36-46fd-9793-b6390079d14d"
       data-name="path198"
       class="ffe9cec8-0cd9-4946-bf24-5f5a7b948720"
       d="m 21.4,21 a 8.7,8.7 0 0 0 2.4,-1 17.7,17.7 0 0 0 3.2,-2.1 l 0.5,-0.4 0.4,-0.5 0.4,-0.3 0.2,-0.2 -0.3,-0.2 h -0.5 l -0.6,-0.2 h -2.4 l -0.9,0.2 h -1.6 l -0.3,0.2 h -0.7 a 2.8,2.8 0 0 1 -0.1,0.9 h 0.3 c 0.1,0 0.1,0.2 0,0.5 L 22,17.6 h 0.2 a 10.4,10.4 0 0 1 0.4,-1 0.9,0.9 0 0 1 0.6,-0.6 0.2,0.2 0 0 1 0.3,0 c 0.1,0.1 0.1,0.2 -0.3,1.1 l 1.2,-0.5 A 2,2 0 0 1 25,15.7 h 0.3 c 0.1,0.1 0.1,0.1 0,0.4 a 5,5 0 0 1 1.3,-0.3 h 0.3 c 0,0.1 0,0.2 -0.2,0.3 l -1.2,0.5 c 0.3,0.1 0.3,0.2 0.3,0.3 a 0.2,0.2 0 0 1 -0.2,0.2 1.8,1.8 0 0 1 -1,-0.1 l -1.1,0.5 c 1,0.3 1,0.4 1,0.5 0,0.1 -0.1,0.2 -0.2,0.3 h -0.7 l -1,-0.3 -0.8,0.5 c 0.2,0 0.4,0.1 0.4,0.3 0,0.2 0,0.2 -0.1,0.2 -0.1,0 -0.8,0.1 -1.2,0 l -0.3,0.2 a 3.6,3.6 0 0 1 -0.4,0.9 z" />
    <path
       id="bd73543f-b0a7-4c21-985c-77ed8a4e776a"
       data-name="path200"
       class="ffe9cec8-0cd9-4946-bf24-5f5a7b948720"
       d="m 14,24 1.1,-0.6 A 0.8,0.8 0 0 1 15.3,23 v -0.2 c -0.3,-1 -0.4,-1.2 -0.3,-1.3 0.1,-0.1 0.3,-0.1 0.3,-0.1 0,0 0.4,0.4 0.6,0.8 l 0.7,-1.3 a 12.7,12.7 0 0 1 -0.4,-1.4 2.3,2.3 0 0 1 -0.1,-1.1 h 0.3 l 0.2,0.2 c 0.1,0.2 0.1,0.4 0.2,0.5 l 0.3,1 0.8,-1.6 a 6.1,6.1 0 0 1 -0.3,-1.6 l 0.2,-0.2 c 0.2,0 0.4,0.5 0.6,0.9 l 0.9,-1.9 c 0.2,-0.3 0.2,-0.3 0.3,-0.2 0.1,0.1 0.2,0 0.1,0.3 a 11.9,11.9 0 0 1 -0.8,2 c 0.4,-0.1 0.9,-0.2 1,-0.1 0.1,0.1 0.1,0.1 0.1,0.2 0,0.1 -1.1,0.7 -1.5,0.8 -0.4,0.1 -0.5,1.1 -0.8,1.7 l 0.9,-0.3 0.5,-0.2 h 0.4 v 0.2 c 0,0.2 -0.5,0.4 -1,0.6 l -1.3,0.5 -0.7,1.3 h 2.4 l 0.3,-0.6 v -0.4 l 0.2,-0.3 v -0.3 h 0.1 a 0.4,0.4 0 0 1 0.1,-0.3 v 0 -0.2 0 -0.3 0 c 0,-0.1 0.1,-0.2 0.1,-0.3 a 8.5,8.5 0 0 0 0.4,-1.7 v -1 0 -1.6 C 20,15.3 20,15 19.9,14.8 a 3.2,3.2 0 0 0 -0.3,-0.9 l -0.9,0.5 -0.6,0.4 -0.6,0.6 a 11.6,11.6 0 0 0 -2.5,3.7 18.8,18.8 0 0 0 -1.2,3 3.3,3.3 0 0 0 0.1,1.7 c 0,0.1 0.1,0.1 0.1,0.2 z" />
    <path
       id="e053732a-0c90-424b-9cad-c89c9aff53fd"
       data-name="path202"
       class="ffe9cec8-0cd9-4946-bf24-5f5a7b948720"
       d="M 49.5,2 H 50 c 0.1,0.1 0,0.3 -0.1,0.5 h 0.7 c 0.3,-0.4 0.9,-1 1.2,-1 H 52 c 0.1,0.1 0.1,0.2 -0.5,0.8 h 1.1 c 0.2,-0.2 0.5,-0.5 0.7,-0.5 h 0.2 c 0,0 0.1,0.1 -0.1,0.3 1.3,-0.1 1.3,0 1.3,0.1 0,0.1 0,0.2 -1.3,0.4 0.2,0.1 0.2,0.2 0.2,0.2 A 0.2,0.2 0 0 1 53.4,3 L 52.6,2.7 h -1 c 0.7,0.4 0.7,0.5 0.6,0.6 A 0.1,0.1 0 0 1 52.1,3.4 C 51.8,3.5 51.1,3.1 50.7,2.8 H 50 l 0.2,0.4 C 50.2,3.3 50.1,3.3 50,3.3 49.9,3.3 49.4,3.1 49.1,3 l -1.3,0.2 0.3,0.3 c 0.4,0.3 1.3,0.6 3.3,0.3 A 9,9 0 0 0 54.6,3 5.6,5.6 0 0 0 56.1,2 4.6,4.6 0 0 0 54.5,1.3 9.8,9.8 0 0 0 51.1,1 l -0.9,0.2 -0.3,0.4 z" />
    <path
       id="fafbeea8-3f17-41c5-86f9-9534bc58b0b0"
       data-name="path204"
       class="ffe9cec8-0cd9-4946-bf24-5f5a7b948720"
       d="M 42.2,6.2 C 42,6.3 41.5,6 41.2,5.9 l -0.9,0.2 h 0.1 a 9,9 0 0 1 2.2,0.6 h 1.1 A 20.9,20.9 0 0 0 47.1,5.9 L 48.8,5.2 A 4.3,4.3 0 0 0 47.1,4 H 46.5 L 45.6,3.8 a 8.8,8.8 0 0 0 -2.3,0 L 42.2,4 41.2,4.3 H 41 l -0.9,1.2 1,-0.2 C 41.3,5 41.7,4.6 41.9,4.6 h 0.3 A 1.7,1.7 0 0 1 42,5.1 h 0.8 c 0.3,-0.3 1,-1 1.3,-1 h 0.3 c 0,0.1 0.1,0.2 -0.6,0.8 H 45 c 0.2,-0.2 0.6,-0.5 0.8,-0.4 0.2,0.1 0.2,0 0.2,0.1 0,0.1 0.1,0.1 -0.1,0.3 h 1.2 l 0.2,0.2 h -1.4 c 0.2,0.2 0.2,0.3 0.1,0.4 H 45.8 L 45,5.3 h -1.1 c 0.7,0.5 0.7,0.6 0.7,0.7 H 44.4 C 44.1,6.1 43.3,5.6 42.9,5.3 L 42.1,5.5 42.4,5.8 42.2,6 Z" />
  </g>
</svg>
