<svg xmlns="http://www.w3.org/2000/svg" viewBox="0 0 69.11 115.38"><defs><style>.f7695eb1-da02-4eab-9b8b-07ba5f5fd966{isolation:isolate;}.aec8b72e-456a-425b-a856-45bf0783a4a7{fill:#010101;}.ae2b9a78-4a60-4677-964d-e178eba0f50e,.b05904a6-ff3c-4eab-a50d-389434fb79cd,.b0b60c31-e36a-42ce-a6cd-4632e5e56725,.b56450d9-bda8-40a7-8cb6-08a9e4b1c6d3,.b73117a1-bb72-47cd-b7d9-9bd9e6041768,.b76f85fe-c3f5-4508-a5ed-48d44893a7e8,.b9685d6e-17fa-4fe1-8cee-c069db2155dd,.bf1f5160-c9a6-44f9-b4dd-0fe570e42725,.bf3014ae-df1c-4c1d-8bc4-5bcd064d7bd3,.e3f22874-1fd9-48d6-aa0a-502fb008aa91,.f2c0ad80-f770-4bd0-8f1c-2da9147b474b,.f95ce042-756b-4ea2-ab81-a534be9f06ea{fill:none;stroke-linecap:round;stroke-linejoin:round;}.bf3014ae-df1c-4c1d-8bc4-5bcd064d7bd3{stroke:#034d26;}.ae2b9a78-4a60-4677-964d-e178eba0f50e,.b05904a6-ff3c-4eab-a50d-389434fb79cd,.b0b60c31-e36a-42ce-a6cd-4632e5e56725,.b56450d9-bda8-40a7-8cb6-08a9e4b1c6d3,.b73117a1-bb72-47cd-b7d9-9bd9e6041768,.b76f85fe-c3f5-4508-a5ed-48d44893a7e8,.bf1f5160-c9a6-44f9-b4dd-0fe570e42725,.bf3014ae-df1c-4c1d-8bc4-5bcd064d7bd3,.e3f22874-1fd9-48d6-aa0a-502fb008aa91,.f2c0ad80-f770-4bd0-8f1c-2da9147b474b,.f95ce042-756b-4ea2-ab81-a534be9f06ea{stroke-width:0.83px;}.b73117a1-bb72-47cd-b7d9-9bd9e6041768{stroke:#33869c;}.f95ce042-756b-4ea2-ab81-a534be9f06ea{stroke:#8ac653;}.b9685d6e-17fa-4fe1-8cee-c069db2155dd{stroke:#276f38;stroke-width:0.83px;}.e3f22874-1fd9-48d6-aa0a-502fb008aa91{stroke:#94ca54;}.ae2b9a78-4a60-4677-964d-e178eba0f50e{stroke:#f6eb16;}.b05904a6-ff3c-4eab-a50d-389434fb79cd{stroke:#52b848;}.b76f85fe-c3f5-4508-a5ed-48d44893a7e8{stroke:#fdc010;}.b56450d9-bda8-40a7-8cb6-08a9e4b1c6d3{stroke:#ffd240;}.f2c0ad80-f770-4bd0-8f1c-2da9147b474b{stroke:#04b04f;}.bf1f5160-c9a6-44f9-b4dd-0fe570e42725{stroke:#90b4df;}.b0b60c31-e36a-42ce-a6cd-4632e5e56725{stroke:#321547;}</style></defs><g id="ffa58c9c-9035-41d4-9b17-27becccab57e" data-name="Layer 1"><g class="f7695eb1-da02-4eab-9b8b-07ba5f5fd966"><path class="aec8b72e-456a-425b-a856-45bf0783a4a7" d="M1.72,18.72V3.11H8.64a9.19,9.19,0,0,1,3.17.42A3.43,3.43,0,0,1,13.55,5a4.48,4.48,0,0,1,.65,2.36,3.93,3.93,0,0,1-1.08,2.8A5.43,5.43,0,0,1,9.8,11.62a5.57,5.57,0,0,1,1.25.77,11.11,11.11,0,0,1,1.71,2.08l2.72,4.25h-2.6l-2.07-3.25c-.6-.93-1.1-1.65-1.49-2.15a4.59,4.59,0,0,0-1.05-1,3.13,3.13,0,0,0-.94-.42,6.34,6.34,0,0,0-1.15-.07H3.78v6.93ZM3.78,10H8.22a6.81,6.81,0,0,0,2.22-.29,2.36,2.36,0,0,0,1.21-.94,2.52,2.52,0,0,0,.42-1.4,2.36,2.36,0,0,0-.8-1.83,3.83,3.83,0,0,0-2.55-.71H3.78Z"/><path class="aec8b72e-456a-425b-a856-45bf0783a4a7" d="M24.61,18.72V17.06A4.14,4.14,0,0,1,21,19a4.51,4.51,0,0,1-1.87-.39,3,3,0,0,1-1.29-1,3.58,3.58,0,0,1-.59-1.42,9.52,9.52,0,0,1-.12-1.79v-7h1.92v6.27a11,11,0,0,0,.12,2A2,2,0,0,0,20,16.9a2.44,2.44,0,0,0,1.45.43A3.18,3.18,0,0,0,23,16.89a2.46,2.46,0,0,0,1.07-1.21,6,6,0,0,0,.32-2.21V7.41h1.91V18.72Z"/><path class="aec8b72e-456a-425b-a856-45bf0783a4a7" d="M29.68,18.72V3.11H40.21V5H31.75V9.78h7.33v1.85H31.75v7.09Z"/><path class="aec8b72e-456a-425b-a856-45bf0783a4a7" d="M42.61,18.72V3.11h1.92V18.72Z"/><path class="aec8b72e-456a-425b-a856-45bf0783a4a7" d="M54.92,18.72V17.06A4.14,4.14,0,0,1,51.33,19a4.51,4.51,0,0,1-1.87-.39,3,3,0,0,1-1.29-1,3.58,3.58,0,0,1-.59-1.42,9.52,9.52,0,0,1-.12-1.79v-7h1.92v6.27a12.31,12.31,0,0,0,.11,2,2,2,0,0,0,.77,1.19,2.42,2.42,0,0,0,1.45.43,3.21,3.21,0,0,0,1.62-.44,2.51,2.51,0,0,0,1.07-1.21,6,6,0,0,0,.31-2.21V7.41h1.92V18.72Z"/><path class="aec8b72e-456a-425b-a856-45bf0783a4a7" d="M58.36,18.72l4.13-5.88L58.67,7.41h2.39l1.74,2.65c.33.51.59.93.79,1.27.31-.47.6-.88.86-1.25l1.91-2.67h2.29l-3.91,5.33,4.21,6H66.59l-2.32-3.51-.62-1-3,4.46Z"/></g></g><g id="ef67171f-5f17-4528-b1bf-71d388a38af0" data-name="graphs"><path id="ebebd35e-b94d-4981-8099-6e187417f91f" data-name="path6498" class="bf3014ae-df1c-4c1d-8bc4-5bcd064d7bd3" d="M1.73,23.3c2.33,2.51,3.5,5.86,5.63,8.46,1.28.86,1.59,2.58,2.76,3.47a23.78,23.78,0,0,1,3.64,4.07c.53.47,1.32.75,1.39,1.57,1.75,1.58,2.82,3.67,4.06,5.64a18.53,18.53,0,0,0,5.44,4.39c1.35,1.31,3.43,1.56,4.8,2.83.28.71,1.17,1.12,1.39,1.89.41.57.22,1.27.5,1.85,0,.48.73.72,1.06,1,0,.4.25.84.28,1.24.06.7.65,1.18.55,1.9-.29.58.12,1.38-.37,1.84-.18.26,0,.49.23.65-.17.64-.06,1.28-.28,1.89-.21.33.14.61.18.93a4.18,4.18,0,0,1-.32.92,7.82,7.82,0,0,1-.19,3.47A13.64,13.64,0,0,1,33,73.18c.16.64-.08,1.43.5,1.9s.57,1.28,1,1.84c.6,1.22,1,2.53,1.52,3.79.34.73,1,1.37,1.15,2.18,1.41,3.55,2.07,7.33,3.17,11,.53,1.78,1.16,3.55,1.75,5.31a19.09,19.09,0,0,0,1.42,4.39"/><path id="f06a5b4d-3a17-4ddd-a0e3-d0a5b57bde72" data-name="path6558" class="b73117a1-bb72-47cd-b7d9-9bd9e6041768" d="M61.26,23.38a18.84,18.84,0,0,1,.27,10c-.2,1.82-1.11,3.5-1.21,5.32-.39,3.13-.37,6.4-1.39,9.42-.86,2.4-2.44,4.48-3.29,6.88-1,2.25-2.91,3.93-4.63,5.62-1.73,1.87-3.43,3.78-5.14,5.68-2.42,2.62-6.17,5.35-5.55,9.37.78,4.59,2.13,9.13,2.24,13.81a233,233,0,0,0,1.08,25.08"/><path id="b11b62eb-aa19-4fad-909f-e3a3b57225dd" data-name="path6544" class="f95ce042-756b-4ea2-ab81-a534be9f06ea" d="M51.06,23.37a80,80,0,0,1,.21,12.19,46.35,46.35,0,0,1-1.44,12.89A47.36,47.36,0,0,1,48,54.68a2.76,2.76,0,0,0-.56,1.89c.09.56-.27,1-.18,1.57-.87,2.37-2.56,4.4-3.15,6.88-1.52,4.57-2.82,9.27-2.24,14.13.79,11.8,1.29,23.62,1.8,35.43"/><path id="a3a5d6af-4250-43c6-8e92-56747bb1fba2" data-name="path6510" class="b9685d6e-17fa-4fe1-8cee-c069db2155dd" d="M23.44,23.33c.63.52.48,1.29,1.06,1.85A17.45,17.45,0,0,1,27,28.32a4.14,4.14,0,0,1,.74,2.54A14.86,14.86,0,0,1,29.25,34c.51,1.22,1.73,1.95,2.21,3.14a7.74,7.74,0,0,1,.83,2.22c.25.63.79,1.22,1,1.9.9,1.14,1.16,2.59,2,3.74.8.42.39,1.46,1.06,1.9.27.28.06.59.09.92s.38.83.23,1.25c-.08.69.64,1.41,1.06,1.89a8.94,8.94,0,0,0,1.89,2.18A4.49,4.49,0,0,1,40.26,55c.25.29.68.59.78,1,1.65,1.37.41,3.79,1.42,5.32-.09.55.2,1.07-.18,1.57-.16.3.08.66-.19.92.17.4-.22.85-.32,1.25.3.37-.23.58-.19,1a12.1,12.1,0,0,0-1.53,4.71c-.48.6.23,1.16.18,1.85a11.5,11.5,0,0,0-.14,2.81c.19.51-.24,1.16.13,1.57-.12,1.55.16,3.23-.46,4.71a19.76,19.76,0,0,1-.7,3.47c-.42,1.66.44,3.36.73,5,.41,2.29.72,4.63,1.19,6.93,1,5.83,1.56,11.72,2.61,17.55"/><path id="efb2d192-2e04-49e2-ae6c-7852e60a7856" data-name="path6522" class="e3f22874-1fd9-48d6-aa0a-502fb008aa91" d="M34.9,23.34c.4,1.85,1.78,3.41,1.88,5.32a5.22,5.22,0,0,0,.83,2.82c.4.91.57,1.89.92,2.82a27.82,27.82,0,0,1,1.89,4.07,8.5,8.5,0,0,1,1.84,4.39c.37.56.3,1.35.74,1.89a5.23,5.23,0,0,1,1.28,2.82,5,5,0,0,1,.32,3.14c-.05.76-.67,1.43-.46,2.22a21.42,21.42,0,0,1-.33,5.31c.78.44.61,1.16.5,1.89,1,2.17.2,2.14-.05,4.07a8.19,8.19,0,0,0-.56,2.49,16.57,16.57,0,0,0-1.16,3.46c-.25,1.36.21,2.72.27,4.07-.53,4.06-1.05,8.14-1.68,12.24a114.46,114.46,0,0,0,1,12.52c.47,5.23,1,10.46,1.46,15.7"/><path id="fd5141d5-8eb8-4efd-a945-566c726d5a91" data-name="path6524" class="ae2b9a78-4a60-4677-964d-e178eba0f50e" d="M43.69,76.34c-.48-3.66-1.09-7.33-1.23-11-.18-1.13-.85-2.27-.46-3.42.22-1.48,1.18-2.65,1.53-4.11a7.59,7.59,0,0,0,1.85-3.41c.88-1.18.48-2.77.89-4.11.48-.72.34-1.7.55-2.49.1-.41-.24-.83,0-1.25a15.1,15.1,0,0,0-.32-5.64,21.49,21.49,0,0,0-3.27-7.21C42,30.59,42,26.41,41.9,23.08"/><path id="e356a478-4680-47e6-ba4b-74f68f7f3b13" data-name="path6526" class="b05904a6-ff3c-4eab-a50d-389434fb79cd" d="M43.74,74.77A44.76,44.76,0,0,1,44.9,66c.5-1.33.35-2.81,1.07-4.06,1.57-4.35,3.74-8.43,5.1-12.88,1.2-3,.84-6.22,1-9.38.1-5.38.16-10.89,0-16.3"/><path id="b8de7901-b167-402b-94ad-4839c645e8e2" data-name="path6528" class="b76f85fe-c3f5-4508-a5ed-48d44893a7e8" d="M43.74,76.34c0-4,.24-8,.15-11.92-.11-2.2-.38-4.4-.45-6.61a41.85,41.85,0,0,1,.88-5A64.55,64.55,0,0,1,48,44.66c.46-1.27,1.13-2.48,1.58-3.74.2-.92.25-1.91.46-2.82,0-4.82-1-9.79-.87-14.65"/><path id="f99d4fd5-b779-4d06-97ad-763a706ae91a" data-name="path6532" class="b56450d9-bda8-40a7-8cb6-08a9e4b1c6d3" d="M51.25,23.37a68.24,68.24,0,0,1-.18,16.9c-1.53,7.61-4.22,15-5.29,22.58-.57,3.16-1.43,6.22-2,9.38-.43,3.54-.75,7.1-.89,10.67-.4,6.59.57,13.18.8,19.77"/><path id="b0662cd2-dd6a-4801-8c67-340981e6d3e3" data-name="path6546" class="f2c0ad80-f770-4bd0-8f1c-2da9147b474b" d="M43.73,80.4c0-3.13-.09-6.29.2-9.42.22-1.76,0-3.64.7-5.31.7-2.2,1.13-4.47,2-6.6,1.69-3.7,3.29-7.48,4.77-11.27.63-2.13,1-4.38,1.44-6.56.3-1.55.19-3.16.56-4.71.3-4.35.08-8.78.16-13.16"/><path id="fc8e745e-0043-4f08-b4f0-3365b5d4d381" data-name="path6560" class="bf1f5160-c9a6-44f9-b4dd-0fe570e42725" d="M43.72,86.68c-.09-3.45-.15-6.9-.08-10.34a18,18,0,0,1,2.09-9.42c2-3.37,4.89-6.1,6.86-9.42,1.57-1.51,1.46-3.65,1.8-5.63.65-2.41,1.24-4.8,1.86-7.2a9.17,9.17,0,0,0,1.25-3.42,31.39,31.39,0,0,0,1.35-5.36c0-4-.26-7.93-.17-11.91"/><path id="aaf7703d-1963-4c8c-b31e-4ac7c842c6c9" data-name="path6564" class="b0b60c31-e36a-42ce-a6cd-4632e5e56725" d="M43.61,115c.29-2.73.54-33.73.21-36.45-.25-1.23.13-2.67-.59-3.74a6.9,6.9,0,0,1,2-5.64c.24-1.56,2.31-2.17,3.1-3.46a8.08,8.08,0,0,0,1.39-2.21,35,35,0,0,0,2.77-2.81c1.43-1.26,3.24-2.26,4.07-4.06.75-1.63,2.24-2.69,3.29-4.06.54-.55.63-1.43,1.2-1.89a11.92,11.92,0,0,0,2.09-2.5,6.38,6.38,0,0,1,1.43-2.81,9.69,9.69,0,0,1,1.25-2.54c.19-.35.48-.86.33-1.25A3.36,3.36,0,0,0,66.56,40a20,20,0,0,0,1.3-3.09,6.76,6.76,0,0,0-.37-3.47c-.27-.9-.3-1.9-.59-2.81A60.56,60.56,0,0,1,66.77,24"/></g></svg>