<?xml version="1.0" encoding="utf-8"?>
<!-- Generator: Adobe Illustrator 26.1.0, SVG Export Plug-In . SVG Version: 6.00 Build 0)  -->
<svg version="1.1" id="Layer_1" xmlns="http://www.w3.org/2000/svg" xmlns:xlink="http://www.w3.org/1999/xlink" x="0px" y="0px"
	 viewBox="0 0 69.1 115.4" style="enable-background:new 0 0 69.1 115.4;" xml:space="preserve">
<style type="text/css">
	.st0{display:none;}
	.st1{display:inline;}
	.st2{fill:#010101;}
	.st3{fill:none;stroke:#034D26;stroke-width:0.83;stroke-linecap:round;stroke-linejoin:round;}
	.st4{fill:none;stroke:#33869C;stroke-width:0.83;stroke-linecap:round;stroke-linejoin:round;}
	.st5{fill:none;stroke:#8AC653;stroke-width:0.83;stroke-linecap:round;stroke-linejoin:round;}
	.st6{fill:none;stroke:#276F38;stroke-width:0.83;stroke-linecap:round;stroke-linejoin:round;}
	.st7{fill:none;stroke:#94CA54;stroke-width:0.83;stroke-linecap:round;stroke-linejoin:round;}
	.st8{fill:none;stroke:#F6EB16;stroke-width:0.83;stroke-linecap:round;stroke-linejoin:round;}
	.st9{fill:none;stroke:#52B848;stroke-width:0.83;stroke-linecap:round;stroke-linejoin:round;}
	.st10{fill:none;stroke:#FDC010;stroke-width:0.83;stroke-linecap:round;stroke-linejoin:round;}
	.st11{fill:none;stroke:#FFD240;stroke-width:0.83;stroke-linecap:round;stroke-linejoin:round;}
	.st12{fill:none;stroke:#04B04F;stroke-width:0.83;stroke-linecap:round;stroke-linejoin:round;}
	.st13{fill:none;stroke:#90B4DF;stroke-width:0.83;stroke-linecap:round;stroke-linejoin:round;}
	.st14{fill:none;stroke:#321547;stroke-width:0.83;stroke-linecap:round;stroke-linejoin:round;}
	.st15{fill:#255178;}
	.st16{fill:#D5E3F0;}
</style>
<g id="ffa58c9c-9035-41d4-9b17-27becccab57e" class="st0">
	<g class="st1">
		<path class="st2" d="M1.7,18.7V3.1h6.9c1.1,0,2.1,0.1,3.2,0.4c0.7,0.3,1.3,0.8,1.7,1.5c0.4,0.7,0.7,1.5,0.6,2.4c0,1-0.4,2-1.1,2.8
			c-0.9,0.9-2.1,1.4-3.3,1.5c0.4,0.2,0.9,0.5,1.2,0.8c0.7,0.6,1.2,1.3,1.7,2.1l2.7,4.2h-2.6l-2.1-3.2c-0.6-0.9-1.1-1.6-1.5-2.1
			c-0.3-0.4-0.6-0.7-1.1-1C8,12.1,7.7,12,7.3,11.9c-0.4-0.1-0.8-0.1-1.2-0.1H3.8v6.9L1.7,18.7z M3.8,10h4.4c0.8,0,1.5-0.1,2.2-0.3
			c0.5-0.2,0.9-0.5,1.2-0.9c0.3-0.4,0.4-0.9,0.4-1.4c0-0.7-0.3-1.4-0.8-1.8C10.5,5,9.6,4.8,8.7,4.8H3.8V10z"/>
		<path class="st2" d="M24.6,18.7v-1.7c-0.8,1.2-2.1,2-3.6,1.9c-0.6,0-1.3-0.1-1.9-0.4c-0.5-0.2-1-0.6-1.3-1
			c-0.3-0.4-0.5-0.9-0.6-1.4c-0.1-0.6-0.1-1.2-0.1-1.8v-7H19v6.3c0,0.7,0,1.3,0.1,2c0.1,0.5,0.4,0.9,0.8,1.2
			c0.4,0.3,0.9,0.4,1.5,0.4c0.5,0,1.1-0.2,1.5-0.4c0.5-0.3,0.9-0.7,1.1-1.2c0.2-0.7,0.4-1.5,0.3-2.2V7.4h1.9v11.3H24.6z"/>
		<path class="st2" d="M29.7,18.7V3.1h10.5V5h-8.5v4.8h7.3v1.9h-7.3v7.1L29.7,18.7z"/>
		<path class="st2" d="M42.6,18.7V3.1h1.9v15.6H42.6z"/>
		<path class="st2" d="M54.9,18.7v-1.7c-0.8,1.2-2.1,2-3.6,1.9c-0.6,0-1.3-0.1-1.9-0.4c-0.5-0.2-1-0.6-1.3-1
			c-0.3-0.4-0.5-0.9-0.6-1.4c-0.1-0.6-0.1-1.2-0.1-1.8v-7h1.9v6.3c0,0.7,0,1.3,0.1,2c0.1,0.5,0.4,0.9,0.8,1.2
			c0.4,0.3,0.9,0.4,1.5,0.4c0.6,0,1.1-0.2,1.6-0.4c0.5-0.3,0.9-0.7,1.1-1.2c0.2-0.7,0.3-1.5,0.3-2.2v-6h1.9v11.3H54.9z"/>
		<path class="st2" d="M58.4,18.7l4.1-5.9l-3.8-5.4h2.4l1.7,2.6c0.3,0.5,0.6,0.9,0.8,1.3c0.3-0.5,0.6-0.9,0.9-1.2l1.9-2.7h2.3
			l-3.9,5.3l4.2,6h-2.4l-2.3-3.5l-0.6-1l-3,4.5L58.4,18.7z"/>
	</g>
</g>
<g id="ef67171f-5f17-4528-b1bf-71d388a38af0">
	<path id="ebebd35e-b94d-4981-8099-6e187417f91f" class="st3" d="M1.7,23.3c2.3,2.5,3.5,5.9,5.6,8.5c1.3,0.9,1.6,2.6,2.8,3.5
		c1.4,1.2,2.6,2.6,3.6,4.1c0.5,0.5,1.3,0.8,1.4,1.6c1.8,1.6,2.8,3.7,4.1,5.6c1.5,1.8,3.4,3.3,5.4,4.4c1.4,1.3,3.4,1.6,4.8,2.8
		c0.3,0.7,1.2,1.1,1.4,1.9c0.4,0.6,0.2,1.3,0.5,1.8c0,0.5,0.7,0.7,1.1,1c0,0.4,0.2,0.8,0.3,1.2c0.1,0.7,0.7,1.2,0.5,1.9
		c-0.3,0.6,0.1,1.4-0.4,1.8c-0.2,0.3,0,0.5,0.2,0.7c-0.2,0.6-0.1,1.3-0.3,1.9c-0.2,0.3,0.1,0.6,0.2,0.9c-0.1,0.3-0.2,0.6-0.3,0.9
		c0.2,1.2,0.1,2.3-0.2,3.5c0.2,0.6,0.4,1.2,0.5,1.9c0.2,0.6-0.1,1.4,0.5,1.9s0.6,1.3,1,1.8c0.6,1.2,1,2.5,1.5,3.8
		c0.3,0.7,1,1.4,1.2,2.2c1.4,3.6,2.1,7.3,3.2,11c0.5,1.8,1.2,3.6,1.8,5.3c0.3,1.5,0.8,3,1.4,4.4"/>
	<path id="f06a5b4d-3a17-4ddd-a0e3-d0a5b57bde72" class="st4" d="M61.3,23.4c1,3.2,1.1,6.7,0.3,10c-0.2,1.8-1.1,3.5-1.2,5.3
		c-0.4,3.1-0.4,6.4-1.4,9.4c-0.9,2.4-2.4,4.5-3.3,6.9c-1,2.2-2.9,3.9-4.6,5.6c-1.7,1.9-3.4,3.8-5.1,5.7c-2.4,2.6-6.2,5.3-5.5,9.4
		c0.8,4.6,2.1,9.1,2.2,13.8c-0.1,8.4,0.3,16.7,1.1,25.1"/>
	<path id="b11b62eb-aa19-4fad-909f-e3a3b57225dd" class="st5" d="M51.1,23.4c0.4,4.1,0.5,8.1,0.2,12.2c0.1,4.3-0.4,8.7-1.4,12.9
		c-0.5,2.1-1.1,4.2-1.8,6.2c-0.4,0.5-0.6,1.2-0.6,1.9c0.1,0.6-0.3,1-0.2,1.6c-0.9,2.4-2.6,4.4-3.2,6.9c-1.5,4.6-2.8,9.3-2.2,14.1
		c0.8,11.8,1.3,23.6,1.8,35.4"/>
	<path id="a3a5d6af-4250-43c6-8e92-56747bb1fba2" class="st6" d="M23.4,23.3c0.6,0.5,0.5,1.3,1.1,1.9c1,0.9,1.8,2,2.5,3.1
		c0.5,0.7,0.8,1.6,0.7,2.5c0.6,1,1.1,2,1.5,3.1c0.5,1.2,1.7,2,2.2,3.1c0.4,0.7,0.7,1.4,0.8,2.2c0.2,0.6,0.8,1.2,1,1.9
		c0.9,1.1,1.2,2.6,2,3.7c0.8,0.4,0.4,1.5,1.1,1.9c0.3,0.3,0.1,0.6,0.1,0.9s0.4,0.8,0.2,1.2c-0.1,0.7,0.6,1.4,1.1,1.9
		c0.5,0.8,1.1,1.6,1.9,2.2c0.3,0.6,0.6,1.2,0.6,1.9c0.2,0.3,0.7,0.6,0.8,1c1.7,1.4,0.4,3.8,1.4,5.3c-0.1,0.5,0.2,1.1-0.2,1.6
		c-0.2,0.3,0.1,0.7-0.2,0.9c0.2,0.4-0.2,0.8-0.3,1.2c0.3,0.4-0.2,0.6-0.2,1c-0.8,1.4-1.4,3.1-1.5,4.7c-0.5,0.6,0.2,1.2,0.2,1.8
		c-0.2,0.9-0.2,1.9-0.1,2.8c0.2,0.5-0.2,1.2,0.1,1.6c-0.1,1.6,0.2,3.2-0.5,4.7c-0.1,1.2-0.4,2.3-0.7,3.5c-0.4,1.7,0.4,3.4,0.7,5
		c0.4,2.3,0.7,4.6,1.2,6.9c1,5.8,1.6,11.7,2.6,17.5"/>
	<path id="efb2d192-2e04-49e2-ae6c-7852e60a7856" class="st7" d="M34.9,23.3c0.4,1.9,1.8,3.4,1.9,5.3c0,1,0.3,2,0.8,2.8
		c0.4,0.9,0.6,1.9,0.9,2.8c0.7,1.3,1.4,2.7,1.9,4.1c1,1.3,1.7,2.8,1.8,4.4c0.4,0.6,0.3,1.3,0.7,1.9c0.7,0.8,1.1,1.8,1.3,2.8
		c0.4,1,0.6,2.1,0.3,3.1c0,0.8-0.7,1.4-0.5,2.2c0.1,1.8,0,3.6-0.3,5.3c0.8,0.4,0.6,1.2,0.5,1.9c1,2.2,0.2,2.1,0,4.1
		c-0.3,0.8-0.5,1.6-0.6,2.5c-0.5,1.1-0.9,2.3-1.2,3.5c-0.2,1.4,0.2,2.7,0.3,4.1c-0.5,4.1-1,8.1-1.7,12.2c0.1,4.2,0.4,8.4,1,12.5
		c0.5,5.2,1,10.5,1.5,15.7"/>
	<path id="fd5141d5-8eb8-4efd-a945-566c726d5a91" class="st8" d="M43.7,76.3c-0.5-3.7-1.1-7.3-1.2-11c-0.2-1.1-0.8-2.3-0.5-3.4
		c0.2-1.5,1.2-2.7,1.5-4.1c0.9-1,1.5-2.1,1.8-3.4c0.9-1.2,0.5-2.8,0.9-4.1c0.5-0.7,0.3-1.7,0.5-2.5c0.1-0.4-0.2-0.8,0-1.2
		c0.2-1.9,0.1-3.8-0.3-5.6c-0.6-2.6-1.7-5-3.3-7.2c-1.2-3.1-1.2-7.3-1.3-10.6"/>
	<path id="e356a478-4680-47e6-ba4b-74f68f7f3b13" class="st9" d="M43.7,74.8c0.1-3,0.5-5.9,1.2-8.8c0.5-1.3,0.3-2.8,1.1-4.1
		c1.6-4.3,3.7-8.4,5.1-12.9c1.2-3,0.8-6.2,1-9.4c0.1-5.4,0.2-10.9,0-16.3"/>
	<path id="b8de7901-b167-402b-94ad-4839c645e8e2" class="st10" d="M43.7,76.3c0-4,0.2-8,0.2-11.9c-0.1-2.2-0.4-4.4-0.5-6.6
		c0.2-1.7,0.5-3.4,0.9-5c1-2.8,2.3-5.5,3.7-8.1c0.5-1.3,1.1-2.5,1.6-3.7c0.2-0.9,0.2-1.9,0.5-2.8c0-4.8-1-9.8-0.9-14.6"/>
	<path id="f99d4fd5-b779-4d06-97ad-763a706ae91a" class="st11" d="M51.2,23.4c0.6,5.6,0.6,11.3-0.2,16.9c-1.5,7.6-4.2,15-5.3,22.6
		c-0.6,3.2-1.4,6.2-2,9.4c-0.4,3.5-0.8,7.1-0.9,10.7c-0.4,6.6,0.6,13.2,0.8,19.8"/>
	<path id="b0662cd2-dd6a-4801-8c67-340981e6d3e3" class="st12" d="M43.7,80.4c0-3.1-0.1-6.3,0.2-9.4c0.2-1.8,0-3.6,0.7-5.3
		c0.7-2.2,1.1-4.5,2-6.6c1.7-3.7,3.3-7.5,4.8-11.3c0.6-2.1,1-4.4,1.4-6.6c0.3-1.5,0.2-3.2,0.6-4.7c0.3-4.3,0.1-8.8,0.2-13.2"/>
	<path id="fc8e745e-0043-4f08-b4f0-3365b5d4d381" class="st13" d="M43.7,86.7c-0.1-3.4-0.2-6.9-0.1-10.3c-0.2-3.3,0.5-6.5,2.1-9.4
		c2-3.4,4.9-6.1,6.9-9.4c1.6-1.5,1.5-3.7,1.8-5.6c0.7-2.4,1.2-4.8,1.9-7.2c0.6-1,1.1-2.2,1.2-3.4c0.6-1.7,1.1-3.5,1.3-5.4
		c0-4-0.3-7.9-0.2-11.9"/>
	<path id="aaf7703d-1963-4c8c-b31e-4ac7c842c6c9" class="st14" d="M43.6,115c0.3-2.7,0.5-33.7,0.2-36.4c-0.2-1.2,0.1-2.7-0.6-3.7
		c-0.2-2.1,0.5-4.2,2-5.6c0.2-1.6,2.3-2.2,3.1-3.5c0.6-0.7,1-1.4,1.4-2.2c1-0.9,1.9-1.8,2.8-2.8c1.4-1.3,3.2-2.3,4.1-4.1
		c0.8-1.6,2.2-2.7,3.3-4.1c0.5-0.5,0.6-1.4,1.2-1.9c0.8-0.7,1.5-1.6,2.1-2.5c0.2-1,0.7-2,1.4-2.8c0.3-0.9,0.7-1.8,1.2-2.5
		c0.2-0.3,0.5-0.9,0.3-1.2c0.3-0.5,0.4-1,0.4-1.6c0.5-1,1-2,1.3-3.1c0.2-1.2,0.1-2.4-0.4-3.5c-0.3-0.9-0.3-1.9-0.6-2.8
		c-0.2-2.2-0.2-4.4-0.1-6.6"/>
</g>
<g>
	<path class="st15" d="M1.4,15.1c0-1.7,0-3.5,0-5.2c0-0.7,0.6-1.4,1.4-1.4c2.8,0,5.5,0,8.3,0c1.4,0,2.6,0.9,2.8,2.4
		c0.1,1,0.2,2.1-0.1,3.1c-0.4,1.4-1.3,2.3-2.7,2.8c-0.1,0-0.2,0.1-0.3,0.1c-0.3,0.1-0.2,0.2-0.1,0.4c1.2,1,2.4,2,3.6,3
		c0.1,0.1,0.2,0.3,0.2,0.4c-0.1,0.2-0.2,0.2-0.4,0.2c-1,0-2,0-3.1,0c-0.3,0-0.5-0.2-0.7-0.4c-1.1-0.9-2.2-1.9-3.2-2.8
		c-0.6-0.5-1.1-0.7-1.9-0.6c-0.5,0.1-0.7-0.1-0.7-0.7c0-0.5,0-0.9,0-1.4c0-0.7,0-0.7,0.7-0.7c1.4,0,2.8,0,4.2,0
		c0.7,0,1.3-0.2,1.7-0.9c0.2-0.4,0.2-0.8,0.2-1.3c0-1,0-1-1-1c-1.9,0-3.7,0-5.6,0c-0.4,0-0.4,0.1-0.4,0.4c0,2.9,0,5.8,0,8.6
		c0,0.6,0,0.6-0.6,0.6c-0.5,0-1.1,0-1.6,0c-0.3,0-0.5-0.1-0.5-0.5C1.5,18.7,1.4,16.9,1.4,15.1z M13.2,20.3c-0.3-0.3-0.6-0.5-0.8-0.7
		c-0.9-0.8-1.9-1.6-2.8-2.4c-0.2-0.1-0.3-0.3-0.2-0.5c0.1-0.2,0.3-0.2,0.5-0.2c0.1,0,0.3,0,0.4,0c1.8-0.3,3-1.7,3.1-3.5
		c0-0.5,0-0.9,0-1.4c0-1.6-0.9-2.4-2.4-2.4c-2.6,0-5.2,0-7.8,0c-0.8,0-1,0.2-1,1c0,3.1,0,6.2,0,9.3c0,0.9,0,0.9,0.9,0.9
		c0.6,0,0.6,0,0.6-0.6c0-2.8,0-5.7,0-8.5c0-0.6,0.1-0.6,0.6-0.6c2.2,0,4.5,0,6.7,0c0.7,0,0.9,0.2,1,1c0,0.3,0,0.7,0,1
		c0.1,1.7-1.2,2.5-2.4,2.4c-1.1,0-2.2,0-3.2,0c-1.1,0-1.1,0-1.1,1.1c0,0.3,0.1,0.5,0.4,0.4c0.7-0.1,1.2,0.1,1.6,0.6
		c0.7,0.7,1.6,1.3,2.3,2c1,1.1,2.2,1.5,3.6,1.3C13.1,20.3,13.1,20.3,13.2,20.3z"/>
	<path class="st15" d="M66.6,20.9c-0.4,0-0.7,0-1.1,0c-0.4,0.1-0.7-0.2-0.9-0.4c-0.7-0.8-1.4-1.5-2.1-2.3c-0.2-0.3-0.4-0.2-0.6,0
		c-0.7,0.7-1.4,1.5-2.1,2.3C59.6,20.8,59.4,21,59,21c-0.8,0-1.6,0-2.4,0c-0.2,0-0.3,0-0.4-0.1c-0.1-0.2,0-0.3,0.2-0.5
		c1.1-1.2,2.2-2.5,3.4-3.6c0.2-0.2,0.3-0.4,0.5-0.6c0.2-0.2,0.2-0.4,0-0.6c-1-1-2-2.1-3-3.1c-0.1-0.2-0.3-0.3-0.4-0.5
		c-0.1-0.1-0.2-0.3-0.1-0.4c0.1-0.1,0.2-0.2,0.4-0.2c0.9,0,1.8,0,2.7,0c0.1,0,0.2,0,0.3,0.1c0.6,0.6,1.1,1.3,1.7,1.9
		c0.4,0.5,0.4,0.4,0.9,0c0.6-0.6,1.2-1.2,1.7-1.8c0.1-0.1,0.3-0.2,0.5-0.2c0.9,0,1.8,0,2.6,0c0.2,0,0.3,0,0.4,0.2
		c0.1,0.2-0.1,0.3-0.2,0.4c-1.1,1.2-2.2,2.4-3.3,3.6c-0.2,0.3-0.2,0.5,0,0.7c1,1,1.9,2,2.8,3c0.3,0.4,0.6,0.7,1,1
		c0.1,0.1,0.2,0.3,0.1,0.4c-0.1,0.2-0.2,0.2-0.4,0.2C67.5,20.9,67,20.9,66.6,20.9z M57.7,12c0.2,0.2,0.3,0.3,0.4,0.4
		c0.9,1,1.8,2,2.8,3c0.3,0.3,0.3,0.5,0,0.8c-1.1,1.1-2.1,2.3-3.2,3.5c-0.1,0.2-0.3,0.3-0.4,0.5c0.5,0,1,0,1.5,0
		c0.3,0,0.6-0.1,0.8-0.3c0.8-0.8,1.5-1.7,2.3-2.5c0.4-0.4,0.5-0.4,0.8,0c0.8,0.8,1.5,1.7,2.3,2.5c0.1,0.1,0.2,0.3,0.4,0.3
		c0.6,0,1.2,0,2,0c-0.3-0.3-0.6-0.6-0.8-0.9c-0.9-1-1.9-2-2.8-3c-0.3-0.3-0.4-0.6,0-0.9c1-1,1.9-2,2.8-3.1c0.1-0.1,0.2-0.2,0.2-0.4
		c-0.5,0-1,0-1.5,0c-0.3,0-0.5,0.1-0.7,0.3c-0.6,0.7-1.2,1.4-1.9,2c-0.4,0.4-0.5,0.4-0.8,0c-0.6-0.7-1.2-1.4-1.9-2
		c-0.1-0.1-0.3-0.3-0.5-0.3C58.9,12,58.4,12,57.7,12z"/>
	<path class="st15" d="M55.6,15.8c0,1.2,0,2.5,0,3.7c0,0.9-0.6,1.5-1.5,1.5c-1.6,0-3.1,0-4.7,0c-1.3,0-2.4-0.4-3.3-1.4
		c-0.8-0.8-1-1.7-1.1-2.7c-0.1-1.6,0-3.3,0-5c0-0.4,0.1-0.6,0.5-0.6c0.5,0,1,0,1.5,0c0.5,0,0.7,0.1,0.7,0.7c0,1.5,0,3,0,4.4
		c0,1.1,0.8,1.7,1.7,1.7c1-0.1,2,0,3,0c0.3,0,0.4-0.1,0.4-0.4c0-1.9,0-3.8,0-5.7c0-0.7,0.2-0.8,0.7-0.8c0.5,0,1,0,1.5,0
		c0.4,0,0.5,0.2,0.5,0.6C55.6,13.2,55.6,14.5,55.6,15.8z M55,16c0-1,0-2,0-2.9c0-1,0-1-1-1c-0.4,0-0.5,0.1-0.5,0.5
		c0,1.9,0,3.8,0,5.7c0,0.4-0.2,0.6-0.6,0.6c-1.1,0-2.3,0-3.4,0c-1.4,0-2.3-0.9-2.3-2.3c0-1.2,0-2.3,0-3.5c0-1,0-1-1-1
		c-0.4,0-0.4,0.1-0.4,0.5c0,1.4,0,2.8,0,4.2c0,2.2,1.5,3.7,3.7,3.7c1.5,0,3.1,0,4.6,0c0.7,0,1-0.2,1-1C55,18.2,55,17.1,55,16z"/>
	<path class="st15" d="M25.7,15.8c0,1.3,0,2.5,0,3.8c0,0.8-0.6,1.4-1.4,1.4c-1.7,0-3.4,0-5.1,0c-2.1,0-4.1-1.8-4-4
		c0-1.6,0.1-3.3,0-4.9c0-0.5,0.1-0.6,0.7-0.6c0.5,0,1,0,1.5,0c0.6,0,0.7,0,0.7,0.7c0,1.6,0,3.1,0,4.7c0,0.8,0.6,1.4,1.4,1.5
		c1.1,0,2.2,0,3.2,0c0.3,0,0.4-0.1,0.4-0.4c0-1.9,0-3.9,0-5.8c0-0.4,0.2-0.6,0.6-0.5c0.6,0,1.1,0,1.7,0c0.3,0,0.5,0.1,0.5,0.5
		C25.7,13.2,25.7,14.5,25.7,15.8z M25.1,15.9c0-1,0-1.9,0-2.9c0-1.1,0-1-1.1-1.1c-0.4,0-0.5,0.1-0.5,0.5c0,1.9,0,3.8,0,5.7
		c0,0.6-0.1,0.6-0.6,0.6c-1.1,0-2.3,0-3.4,0c-1.4,0-2.3-0.9-2.3-2.3c0-1.2,0-2.3,0-3.5c0-1.1,0-1.1-1.1-1.1c-0.3,0-0.5,0.1-0.5,0.4
		c0,1.4,0,2.7,0,4.1c0,2.3,1.5,3.7,3.8,3.8c1.5,0,3,0,4.6,0c0.8,0,1-0.3,1-1C25.1,18.2,25.1,17.1,25.1,15.9z"/>
	<path class="st15" d="M27.4,15.2c0-1.7,0-3.4,0-5c0-1.1,0.7-1.7,1.6-1.7c3.1,0,6.1,0,9.2,0c0.5,0,0.6,0.1,0.6,0.6
		c0,0.5,0,1.1,0,1.6c0,0.4-0.1,0.5-0.5,0.5c-2.5,0-5,0-7.6,0c-0.4,0-0.6,0.1-0.6,0.6c0,2.9,0,5.8,0,8.6c0,0.4-0.1,0.6-0.5,0.5
		c-0.6,0-1.2,0-1.7,0c-0.4,0-0.5-0.1-0.5-0.5C27.4,18.7,27.4,16.9,27.4,15.2z M28,14.9c0,1.7,0,3.3,0,5c0,0.4,0.1,0.6,0.5,0.5
		c0.1,0,0.2,0,0.3,0c0.6,0,0.6-0.1,0.6-0.6c0-2.8,0-5.7,0-8.5c0-0.6,0.1-0.7,0.7-0.7c2.4,0,4.7,0,7.1,0c0.9,0,0.9,0,0.9-0.9
		c0-0.4-0.1-0.6-0.5-0.6c-2.9,0-5.8,0-8.6,0c-0.8,0-1,0.2-1,1C28,11.7,28,13.3,28,14.9z"/>
	<path class="st15" d="M42.5,12.9c0,1.5,0,3.1,0,4.6c0,0.5,0.1,0.7,0.7,0.7c1.2,0,1.1-0.1,1.1,1.1c0,0.4,0,0.8,0,1.3
		c0,0.2-0.1,0.3-0.3,0.3c-0.9,0-1.9,0.1-2.7-0.5c-0.9-0.6-1.5-1.4-1.5-2.5c0-3.3,0-6.5,0-9.8c0-0.4,0.1-0.6,0.6-0.5
		c0.5,0,1.1,0,1.6,0c0.4,0,0.5,0.2,0.5,0.6C42.5,9.8,42.5,11.4,42.5,12.9z M41.9,13.1c0-1.3,0-2.6,0-3.8c0-1.1,0-1.1-1.1-1.1
		c-0.3,0-0.4,0.1-0.4,0.4c0,3,0,6.1,0,9.1c0,1.3,0.9,2.3,2.2,2.5c1.1,0.2,1.1,0.2,1.1-1c0-0.4-0.1-0.5-0.5-0.5
		c-0.9,0-1.4-0.4-1.4-1.4C41.9,16,41.9,14.6,41.9,13.1z"/>
	<path class="st15" d="M34.1,16.1c-1.1,0-2.2,0-3.2,0c-0.3,0-0.5-0.1-0.5-0.4c0-0.7-0.1-1.3,0-2c0-0.3,0.1-0.4,0.4-0.4
		c2.2,0,4.4,0,6.6,0c0.3,0,0.4,0.1,0.4,0.4c0,0.6,0,1.3,0,1.9c0,0.3-0.1,0.4-0.4,0.4C36.3,16.1,35.2,16.1,34.1,16.1z M34.2,14
		c-0.7,0-1.3,0-2,0C31,14,31,14,31,15.1c0,0.3,0.1,0.4,0.4,0.4c1.6,0,3.1,0,4.7,0c1.1,0,1.1,0,1.1-1.1c0-0.3-0.1-0.4-0.4-0.4
		C35.9,14,35,14,34.2,14z"/>
	<path class="st16" d="M13.2,20.3c-0.1,0-0.1,0-0.2,0c-1.4,0.2-2.6-0.2-3.6-1.3c-0.7-0.8-1.6-1.3-2.3-2c-0.5-0.4-1-0.7-1.6-0.6
		c-0.3,0.1-0.4-0.1-0.4-0.4c0-1.1,0-1.1,1.1-1.1c1.1,0,2.2,0,3.2,0c1.3,0,2.5-0.7,2.4-2.4c0-0.3,0-0.7,0-1c0-0.7-0.2-1-1-1
		c-2.2,0-4.5,0-6.7,0c-0.5,0-0.6,0.1-0.6,0.6c0,2.8,0,5.7,0,8.5c0,0.6,0,0.6-0.6,0.6c-0.9,0-0.9,0-0.9-0.9c0-3.1,0-6.2,0-9.3
		c0-0.8,0.2-1,1-1c2.6,0,5.2,0,7.8,0c1.6,0,2.4,0.9,2.4,2.4c0,0.5,0,0.9,0,1.4c0,1.8-1.2,3.2-3.1,3.5c-0.1,0-0.3,0-0.4,0
		c-0.2,0-0.4,0-0.5,0.2c-0.1,0.2,0.1,0.4,0.2,0.5c0.9,0.8,1.9,1.6,2.8,2.4C12.6,19.8,12.9,20,13.2,20.3z"/>
	<path class="st16" d="M57.7,12c0.7,0,1.3,0,1.8,0c0.2,0,0.3,0.1,0.5,0.3c0.6,0.7,1.2,1.4,1.9,2c0.4,0.4,0.5,0.4,0.8,0
		c0.6-0.7,1.3-1.3,1.9-2c0.2-0.2,0.4-0.3,0.7-0.3c0.5,0,1,0,1.5,0c0.1,0.2-0.1,0.3-0.2,0.4c-0.9,1-1.9,2.1-2.8,3.1
		c-0.3,0.4-0.3,0.6,0,0.9c1,1,1.9,2,2.8,3c0.2,0.3,0.5,0.5,0.8,0.9c-0.7,0-1.3,0-2,0c-0.2,0-0.3-0.2-0.4-0.3
		c-0.8-0.8-1.5-1.7-2.3-2.5c-0.4-0.4-0.5-0.4-0.8,0c-0.8,0.8-1.6,1.7-2.3,2.5c-0.2,0.2-0.4,0.4-0.8,0.3c-0.5,0-1,0-1.5,0
		c0.1-0.3,0.3-0.4,0.4-0.5c1.1-1.2,2.1-2.3,3.2-3.5c0.3-0.3,0.3-0.5,0-0.8c-0.9-1-1.9-2-2.8-3C57.9,12.4,57.8,12.3,57.7,12z"/>
	<path class="st16" d="M55,16c0,1.1,0,2.3,0,3.4c0,0.7-0.2,1-1,1c-1.5,0-3.1,0-4.6,0c-2.2,0-3.7-1.5-3.7-3.7c0-1.4,0-2.8,0-4.2
		c0-0.3,0.1-0.5,0.4-0.5c1,0,1,0,1,1c0,1.2,0,2.3,0,3.5c0,1.4,0.9,2.3,2.3,2.3c1.1,0,2.3,0,3.4,0c0.4,0,0.6-0.2,0.6-0.6
		c0-1.9,0-3.8,0-5.7c0-0.4,0.1-0.5,0.5-0.5c1,0,1,0,1,1C55,14,55,15,55,16z"/>
	<path class="st16" d="M25.1,15.9c0,1.1,0,2.2,0,3.4c0,0.8-0.2,1-1,1c-1.5,0-3,0-4.6,0c-2.3,0-3.8-1.5-3.8-3.8c0-1.4,0-2.7,0-4.1
		c0-0.4,0.1-0.4,0.5-0.4c1.1,0,1.1,0,1.1,1.1c0,1.2,0,2.3,0,3.5c0,1.4,0.9,2.3,2.3,2.3c1.1,0,2.3,0,3.4,0c0.6,0,0.6-0.1,0.6-0.6
		c0-1.9,0-3.8,0-5.7c0-0.4,0.1-0.5,0.5-0.5c1.1,0,1.1,0,1.1,1.1C25.1,14,25.1,15,25.1,15.9z"/>
	<path class="st16" d="M28,14.9c0-1.6,0-3.2,0-4.8c0-0.8,0.2-1,1-1c2.9,0,5.8,0,8.6,0c0.5,0,0.5,0.1,0.5,0.6c0,0.9,0,0.9-0.9,0.9
		c-2.4,0-4.7,0-7.1,0c-0.6,0-0.7,0.1-0.7,0.7c0,2.8,0,5.7,0,8.5c0,0.6-0.1,0.6-0.6,0.6c-0.1,0-0.2,0-0.3,0c-0.4,0-0.5-0.2-0.5-0.5
		C28,18.2,28,16.6,28,14.9z"/>
	<path class="st16" d="M41.9,13.1c0,1.4,0,2.9,0,4.3c0,0.9,0.4,1.4,1.4,1.4c0.4,0,0.5,0.1,0.5,0.5c0,1.1,0,1.1-1.1,1
		c-1.3-0.2-2.2-1.2-2.2-2.5c0-3,0-6.1,0-9.1c0-0.3,0.1-0.4,0.4-0.4c1.1,0,1.1,0,1.1,1.1C41.9,10.6,41.9,11.9,41.9,13.1z"/>
	<path class="st16" d="M34.2,14c0.9,0,1.8,0,2.7,0c0.3,0,0.4,0.1,0.4,0.4c0,1.1,0,1.1-1.1,1.1c-1.6,0-3.1,0-4.7,0
		c-0.3,0-0.4-0.1-0.4-0.4c0-1.1,0-1.1,1.1-1.1C32.8,14,33.5,14,34.2,14z"/>
</g>
</svg>
